<svg width="158" height="77" viewBox="0 0 158 77" fill="none" xmlns="http://www.w3.org/2000/svg">
<g opacity="0.3">
<path opacity="0.010101" d="M153.355 97.1534C154.763 95.6644 155.089 93.4608 154.187 91.6355L154.095 91.4602L117.078 23.5327C116.097 21.7328 114.101 20.7433 112.086 21.0369L111.892 21.0688L35.849 35.2838C33.7694 35.6727 32.1768 37.3573 31.9039 39.4553L21.9251 116.168C21.6608 118.201 22.6931 120.175 24.4952 121.121L24.6719 121.209L94.5478 154.405C96.3992 155.285 98.5952 154.913 100.053 153.492L100.191 153.351L153.355 97.1534Z" stroke="url(#paint0_linear_589_7865)" stroke-width="0.791958"/>
<path opacity="0.020202" d="M154.214 96.1924C155.596 94.6792 155.883 92.471 154.95 90.6618L154.855 90.4881L116.734 23.3514C115.722 21.5691 113.71 20.6139 111.701 20.9423L111.506 20.9784L35.8756 36.4874C33.8031 36.9124 32.2395 38.6236 32.0031 40.726L23.3819 117.448C23.1532 119.485 24.2204 121.441 26.039 122.356L26.2172 122.441L96.5197 154.348C98.386 155.195 100.575 154.785 102.008 153.338L102.144 153.194L154.214 96.1924Z" stroke="url(#paint1_linear_589_7865)" stroke-width="0.791958"/>
<path opacity="0.030303" d="M155.053 95.2335C156.408 93.6964 156.656 91.4826 155.691 89.6899L155.594 89.5179L116.386 23.1898C115.343 21.4254 113.314 20.5062 111.311 20.8698L111.117 20.9093L35.9198 37.7021C33.8551 38.1634 32.3223 39.9016 32.1228 42.0078L24.8566 118.713C24.6633 120.754 25.764 122.69 27.598 123.573L27.7775 123.656L98.4839 154.27C100.365 155.085 102.547 154.635 103.953 153.164L104.088 153.019L155.053 95.2335Z" stroke="url(#paint2_linear_589_7865)" stroke-width="0.791958"/>
<path opacity="0.040404" d="M155.869 94.2751C157.198 92.7145 157.407 90.4968 156.412 88.7212L156.311 88.5509L116.033 23.0498C114.959 21.304 112.915 20.4205 110.919 20.8187L110.725 20.8606L35.9834 38.927C33.927 39.424 32.4241 41.1888 32.2611 43.2981L26.3467 119.965C26.189 122.009 27.324 123.926 29.1734 124.777L29.3544 124.855L100.441 154.172C102.336 154.953 104.509 154.467 105.89 152.971L106.021 152.823L155.869 94.2751Z" stroke="url(#paint3_linear_589_7865)" stroke-width="0.791958"/>
<path opacity="0.050505" d="M156.664 93.3175C157.965 91.734 158.136 89.513 157.109 87.7551L157.005 87.5865L115.674 22.9295C114.57 21.2026 112.51 20.3539 110.521 20.7871L110.328 20.8333L36.0643 40.1624C34.0168 40.6953 32.5448 42.4859 32.4189 44.5978L27.8526 121.201C27.7307 123.247 28.8981 125.144 30.7619 125.963L30.9452 126.038L102.387 154.053C104.295 154.801 106.46 154.276 107.815 152.756L107.944 152.607L156.664 93.3175Z" stroke="url(#paint4_linear_589_7865)" stroke-width="0.791958"/>
<path opacity="0.0606061" d="M157.439 92.3642C158.712 90.7581 158.844 88.5346 157.787 86.7948L157.68 86.6281L115.312 22.832C114.178 21.1244 112.104 20.3117 110.122 20.7798L109.932 20.8294L36.1645 41.4099C34.1267 41.9786 32.6861 43.7945 32.5971 45.9084L29.3749 122.425C29.2888 124.472 30.4901 126.348 32.3679 127.134L32.5515 127.207L104.327 153.916C106.248 154.63 108.403 154.069 109.731 152.525L109.857 152.373L157.439 92.3642Z" stroke="url(#paint5_linear_589_7865)" stroke-width="0.791958"/>
<path opacity="0.0707071" d="M158.191 91.412C159.436 89.7839 159.529 87.5584 158.442 85.8374L158.332 85.6725L114.945 22.7527C113.782 21.0656 111.694 20.2902 109.721 20.7924L109.531 20.8454L36.2834 42.665C34.2558 43.2691 32.8473 45.11 32.795 47.225L30.9125 123.631C30.8621 125.679 32.0951 127.534 33.9863 128.288L34.1721 128.357L106.256 153.758C108.189 154.439 110.334 153.84 111.635 152.274L111.758 152.119L158.191 91.412Z" stroke="url(#paint6_linear_589_7865)" stroke-width="0.791958"/>
<path opacity="0.0808081" d="M158.924 90.4647C160.141 88.8154 160.194 86.5892 159.077 84.8876L158.965 84.7237L114.578 22.6973C113.385 21.0304 111.283 20.2916 109.319 20.8285L109.129 20.8837L36.4221 43.9326C34.4053 44.572 33.029 46.4371 33.0138 48.5528L32.4662 124.824C32.4515 126.874 33.7174 128.707 35.6217 129.427L35.8078 129.493L108.177 153.583C110.121 154.231 112.256 153.593 113.529 152.005L113.65 151.848L158.924 90.4647Z" stroke="url(#paint7_linear_589_7865)" stroke-width="0.791958"/>
<path opacity="0.0909091" d="M159.634 89.5213C160.821 87.8509 160.836 85.6233 159.69 83.9413L159.575 83.7804L114.203 22.6622C112.982 21.0166 110.868 20.3138 108.914 20.8844L108.725 20.944L36.5783 45.2079C34.5729 45.8824 33.2294 47.7722 33.2512 49.8879L34.0332 126.002C34.0543 128.051 35.3512 129.862 37.2675 130.549L37.4557 130.612L110.086 153.388C112.042 154.001 114.165 153.328 115.41 151.717L115.528 151.559L159.634 89.5213Z" stroke="url(#paint8_linear_589_7865)" stroke-width="0.791958"/>
<path opacity="0.10101" d="M160.325 88.581C161.483 86.8901 161.459 84.6627 160.283 83.0009L160.165 82.842L113.828 22.6474C112.578 21.0236 110.453 20.3584 108.509 20.9632L108.321 21.0261L36.7548 46.4935C34.7615 47.2029 33.4512 49.115 33.5098 51.2298L35.6158 127.164C35.6726 129.212 37.0018 131 38.93 131.653L39.1183 131.714L111.986 153.175C113.952 153.754 116.063 153.043 117.28 151.412L117.395 151.25L160.325 88.581Z" stroke="url(#paint9_linear_589_7865)" stroke-width="0.791958"/>
<path opacity="0.111111" d="M160.995 87.6448C162.123 85.9339 162.061 83.7073 160.856 82.0663L160.735 81.9095L113.452 22.6545C112.174 21.0522 110.037 20.4244 108.104 21.0634L107.918 21.1284L36.9519 47.7876C34.9712 48.5316 33.6945 50.4662 33.7901 52.5798L37.2139 128.31C37.3065 130.358 38.6659 132.122 40.605 132.741L40.7952 132.797L113.877 152.944C115.853 153.488 117.951 152.74 119.14 151.087L119.252 150.925L160.995 87.6448Z" stroke="url(#paint10_linear_589_7865)" stroke-width="0.791958"/>
<path opacity="0.121212" d="M161.642 86.713C162.74 84.9826 162.639 82.7575 161.406 81.1377L161.282 80.983L113.071 22.6823C111.765 21.1028 109.618 20.5116 107.696 21.1838L107.511 21.2531L37.1648 49.0887C35.1975 49.8672 33.9548 51.8239 34.0871 53.9354L38.8224 129.44C38.9508 131.486 40.3415 133.226 42.2913 133.812L42.4815 133.865L115.754 152.693C117.739 153.203 119.824 152.419 120.983 150.746L121.092 150.58L161.642 86.713Z" stroke="url(#paint11_linear_589_7865)" stroke-width="0.791958"/>
<path opacity="0.131313" d="M162.271 85.7869C163.339 84.0375 163.199 81.8145 161.938 80.2166L161.812 80.0641L112.692 22.7308C111.358 21.1744 109.2 20.6215 107.291 21.3274L107.106 21.4L37.4011 50.3995C35.4477 51.2122 34.2392 53.1902 34.4085 55.2991L40.4484 130.555C40.6125 132.598 42.0327 134.313 43.992 134.865L44.1842 134.915L117.622 152.426C119.616 152.901 121.687 152.08 122.817 150.387L122.924 150.22L162.271 85.7869Z" stroke="url(#paint12_linear_589_7865)" stroke-width="0.791958"/>
<path opacity="0.141414" d="M162.878 84.8653C163.915 83.0978 163.736 80.8783 162.447 79.3026L162.319 79.1514L112.308 22.8007C110.948 21.2679 108.781 20.7528 106.884 21.4916L106.701 21.5664L37.6538 51.7162C35.7148 52.5628 34.5412 54.5625 34.7473 56.6683L42.0844 131.652C42.284 133.692 43.7347 135.383 45.7038 135.9L45.8957 135.946L119.478 152.139C121.479 152.58 123.536 151.723 124.636 150.01L124.739 149.842L162.878 84.8653Z" stroke="url(#paint13_linear_589_7865)" stroke-width="0.791958"/>
<path opacity="0.151515" d="M163.465 83.951C164.471 82.1656 164.253 79.9487 162.937 78.3958L162.806 78.2477L111.924 22.8922C110.537 21.3833 108.362 20.9051 106.478 21.677L106.297 21.756L37.928 53.0416C36.0041 53.9219 34.8655 55.9409 35.1082 58.0427L43.7352 132.734C43.9703 134.77 45.4495 136.435 47.4271 136.918L47.6208 136.96L121.321 151.836C123.33 152.242 125.371 151.35 126.441 149.618L126.542 149.447L163.465 83.951Z" stroke="url(#paint14_linear_589_7865)" stroke-width="0.791958"/>
<path opacity="0.161616" d="M164.032 83.0419C165.008 81.2392 164.751 79.0265 163.408 77.4967L163.274 77.351L111.542 23.0047C110.128 21.52 107.944 21.0799 106.074 21.8848L105.895 21.9668L38.2218 54.3741C36.3137 55.288 35.2113 57.3264 35.4907 59.4235L45.3994 133.799C45.6702 135.83 47.178 137.47 49.1639 137.918L49.3573 137.957L123.155 151.517C125.171 151.887 127.195 150.959 128.235 149.208L128.332 149.037L164.032 83.0419Z" stroke="url(#paint15_linear_589_7865)" stroke-width="0.791958"/>
<path opacity="0.171717" d="M164.58 82.1389C165.524 80.3194 165.229 78.1115 163.859 76.6054L163.723 76.462L111.158 23.1368C109.719 21.6774 107.529 21.2763 105.673 22.1134L105.494 22.1987L38.5364 55.7116C36.6445 56.6586 35.577 58.7162 35.8928 60.8081L47.0749 134.845C47.3809 136.872 48.9174 138.485 50.9106 138.898L51.1058 138.935L124.974 151.178C126.997 151.513 129.005 150.551 130.014 148.783L130.108 148.609L164.58 82.1389Z" stroke="url(#paint16_linear_589_7865)" stroke-width="0.791958"/>
<path opacity="0.181818" d="M165.108 81.2435C166.019 79.4078 165.686 77.2055 164.29 75.7235L164.151 75.5825L110.775 23.2918C109.311 21.8574 107.113 21.4947 105.273 22.3644L105.095 22.4518L38.8698 57.0575C36.9948 58.0373 35.9642 60.113 36.3166 62.1991L48.7632 135.877C49.1046 137.898 50.6688 139.484 52.6691 139.862L52.8638 139.894L126.782 150.825C128.809 151.125 130.8 150.127 131.779 148.341L131.871 148.166L165.108 81.2435Z" stroke="url(#paint17_linear_589_7865)" stroke-width="0.791958"/>
<path opacity="0.191919" d="M165.614 80.3538C166.494 78.5025 166.122 76.3063 164.7 74.8489L164.559 74.7104L110.391 23.4663C108.902 22.0576 106.698 21.7324 104.873 22.6341L104.698 22.7254L39.223 58.4065C37.3652 59.4189 36.3704 61.5133 36.7592 63.593L50.4612 136.89C50.8379 138.904 52.4296 140.462 54.436 140.806L54.6322 140.835L128.576 150.453C130.608 150.718 132.582 149.685 133.529 147.883L133.617 147.707L165.614 80.3538Z" stroke="url(#paint18_linear_589_7865)" stroke-width="0.791958"/>
<path opacity="0.20202" d="M166.103 79.4735C166.95 77.6073 166.54 75.4186 165.093 73.9863L164.95 73.8493L110.01 23.6626C108.497 22.2805 106.288 21.9945 104.479 22.9276L104.305 23.0221L39.5971 59.7639C37.7574 60.8086 36.7999 62.919 37.2249 64.9916L52.173 137.887C52.5849 139.894 54.2033 141.424 56.2154 141.732L56.4113 141.759L130.357 150.068C132.394 150.297 134.349 149.23 135.265 147.412L135.35 147.233L166.103 79.4735Z" stroke="url(#paint19_linear_589_7865)" stroke-width="0.791958"/>
<path opacity="0.212121" d="M166.572 78.5998C167.386 76.719 166.938 74.537 165.466 73.1301L165.32 72.9966L109.63 23.8783C108.093 22.5225 105.879 22.2753 104.086 23.2402L103.914 23.3366L39.9914 61.1242C38.1701 62.2009 37.2487 64.3278 37.7098 66.3927L53.8939 138.863C54.3406 140.864 55.9858 142.365 58.003 142.639L58.2 142.661L132.126 149.664C134.166 149.857 136.102 148.756 136.986 146.922L137.068 146.743L166.572 78.5998Z" stroke="url(#paint20_linear_589_7865)" stroke-width="0.791958"/>
<path opacity="0.222222" d="M167.022 77.734C167.804 75.8393 167.317 73.6655 165.821 72.2845L165.673 72.1535L109.252 24.1158C107.691 22.7872 105.474 22.5777 103.698 23.5734L103.528 23.6739L40.4059 62.4893C38.6038 63.5975 37.7207 65.7401 38.2176 67.7965L55.6277 139.824C56.1092 141.816 57.7801 143.289 59.802 143.527L59.9985 143.546L133.88 149.245C135.924 149.403 137.841 148.269 138.692 146.419L138.771 146.239L167.022 77.734Z" stroke="url(#paint21_linear_589_7865)" stroke-width="0.791958"/>
<path opacity="0.232323" d="M167.453 76.8775C168.201 74.9694 167.677 72.8044 166.158 71.4498L166.007 71.3214L108.877 24.3745C107.293 23.0732 105.071 22.9026 103.314 23.9293L103.145 24.0327L40.8414 63.8602C39.0588 64.9997 38.2122 67.1575 38.7451 69.2051L57.3705 140.767C57.8868 142.751 59.5834 144.194 61.6088 144.397L61.8065 144.412L135.621 148.812C137.667 148.934 139.564 147.767 140.382 145.903L140.459 145.72L167.453 76.8775Z" stroke="url(#paint22_linear_589_7865)" stroke-width="0.791958"/>
<path opacity="0.242424" d="M167.866 76.0295C168.581 74.1085 168.019 71.9531 166.476 70.6252L166.323 70.4995L108.503 24.6527C106.897 23.3793 104.673 23.2482 102.933 24.3056L102.767 24.4118L41.2963 65.2341C39.5338 66.4046 38.7262 68.5775 39.2947 70.6154L59.1242 141.691C59.675 143.665 61.3964 145.079 63.4253 145.246L63.6225 145.259L137.348 148.364C139.396 148.45 141.272 147.249 142.058 145.371L142.131 145.187L167.866 76.0295Z" stroke="url(#paint23_linear_589_7865)" stroke-width="0.791958"/>
<path opacity="0.252525" d="M168.258 75.1892C168.94 73.2561 168.34 71.1108 166.774 69.81L166.619 69.687L108.131 24.9512C106.503 23.706 104.278 23.6137 102.557 24.701L102.391 24.8094L41.7715 66.611C40.0297 67.812 39.259 69.9981 39.8629 72.0258L60.8858 142.597C61.4709 144.561 63.2169 145.944 65.2482 146.076L65.4463 146.084L139.059 147.898C141.108 147.949 142.963 146.716 143.716 144.825L143.785 144.639L168.258 75.1892Z" stroke="url(#paint24_linear_589_7865)" stroke-width="0.791958"/>
<path opacity="0.262626" d="M168.634 74.359C169.281 72.4142 168.644 70.2797 167.056 69.0065L166.899 68.8862L107.764 25.2703C106.115 24.0536 103.887 23.9995 102.185 25.1168L102.023 25.2287L42.2671 67.992C40.5467 69.2234 39.815 71.4222 40.4543 73.439L62.6587 143.484C63.2781 145.438 65.0477 146.791 67.0812 146.887L67.2785 146.892L140.758 147.42C142.807 147.434 144.64 146.169 145.36 144.264L145.426 144.078L168.634 74.359Z" stroke="url(#paint25_linear_589_7865)" stroke-width="0.791958"/>
<path opacity="0.272727" d="M168.992 73.5385C169.605 71.583 168.931 69.4606 167.321 68.2153L167.162 68.0978L107.4 25.6091C105.73 24.4218 103.503 24.4071 101.821 25.5537L101.66 25.6687L42.7844 69.3748C41.0856 70.6358 40.3917 72.8476 41.066 74.8529L64.4402 144.354C65.0937 146.296 66.8866 147.617 68.9211 147.678L69.1197 147.68L142.441 146.926C144.49 146.905 146.301 145.608 146.988 143.692L147.051 143.505L168.992 73.5385Z" stroke="url(#paint26_linear_589_7865)" stroke-width="0.791958"/>
<path opacity="0.282828" d="M169.33 72.729C169.909 70.763 169.198 68.6519 167.567 67.4348L167.406 67.3201L107.04 25.9688C105.349 24.8105 103.122 24.835 101.46 26.0111L101.301 26.128L43.3202 70.7613C41.6437 72.0519 40.9893 74.275 41.6986 76.2682L66.2298 145.203C66.917 147.134 68.7328 148.424 70.7684 148.45L70.9661 148.449L144.108 146.42C146.157 146.363 147.944 145.035 148.598 143.107L148.658 142.917L169.33 72.729Z" stroke="url(#paint27_linear_589_7865)" stroke-width="0.791958"/>
<path opacity="0.292929" d="M169.651 71.9288C170.196 69.9529 169.448 67.8546 167.795 66.6662L167.632 66.5543L106.684 26.3489C104.973 25.2202 102.746 25.2826 101.105 26.4876L100.949 26.6078L43.8767 72.1487C42.2229 73.4684 41.6068 75.7037 42.3509 77.6843L68.0269 146.036C68.7477 147.954 70.5864 149.212 72.6223 149.202L72.8196 149.197L145.76 145.899C147.808 145.807 149.572 144.447 150.191 142.507L150.248 142.318L169.651 71.9288Z" stroke="url(#paint28_linear_589_7865)" stroke-width="0.791958"/>
<path opacity="0.30303" d="M169.955 71.1396C170.465 69.1545 169.681 67.0696 168.007 65.9102L167.843 65.8012L106.332 26.7484C104.602 25.6501 102.377 25.7519 100.758 26.985L100.603 27.1083L44.4539 73.5395C42.8236 74.8878 42.2472 77.1325 43.0255 79.0997L69.8337 146.849C70.5879 148.755 72.4476 149.981 74.4828 149.935L74.68 149.926L147.397 145.365C149.443 145.237 151.183 143.847 151.768 141.897L151.821 141.707L169.955 71.1396Z" stroke="url(#paint29_linear_589_7865)" stroke-width="0.791958"/>
<path opacity="0.313131" d="M170.242 70.3612C170.718 68.3674 169.897 66.2965 168.204 65.1666L168.037 65.0604L105.988 27.1681C104.238 26.0998 102.015 26.2409 100.417 27.5024L100.265 27.6271L45.0532 74.9313C43.4465 76.3078 42.9085 78.5624 43.7212 80.5159L71.6477 147.643C72.435 149.535 74.3165 150.728 76.3508 150.647L76.5482 150.635L149.02 144.819C151.063 144.654 152.779 143.234 153.33 141.274L153.38 141.083L170.242 70.3612Z" stroke="url(#paint30_linear_589_7865)" stroke-width="0.791958"/>
<path opacity="0.323232" d="M170.511 69.5938C170.952 67.592 170.096 65.5357 168.383 64.4355L168.214 64.3323L105.646 27.6078C103.879 26.5703 101.659 26.7491 100.083 28.0379L99.9327 28.1665L45.6704 76.3233C44.0881 77.7276 43.5905 79.9911 44.4369 81.9299L73.4689 148.418C74.2891 150.296 76.1904 151.456 78.2229 151.339L78.4196 151.324L150.625 144.258C152.664 144.059 154.355 142.609 154.872 140.64L154.919 140.448L170.511 69.5938Z" stroke="url(#paint31_linear_589_7865)" stroke-width="0.791958"/>
<path opacity="0.333333" d="M170.764 68.839C171.169 66.8301 170.277 64.7898 168.546 63.7196L168.375 63.6184L105.312 28.0678C103.526 27.0613 101.309 27.279 99.7562 28.5953L99.6079 28.7266L46.3094 77.7178C44.7517 79.1496 44.2927 81.4216 45.173 83.3455L75.2964 149.175C76.1494 151.039 78.0712 152.166 80.1015 152.013L80.2979 151.994L152.214 143.688C154.25 143.453 155.915 141.973 156.398 139.996L156.441 139.802L170.764 68.839Z" stroke="url(#paint32_linear_589_7865)" stroke-width="0.791958"/>
<path opacity="0.343434" d="M171 68.0931C171.37 66.0773 170.442 64.0521 168.692 63.0123L168.52 62.915L104.982 28.543C103.179 27.5679 100.966 27.8249 99.4364 29.1684L99.2913 29.3017L46.967 79.1084C45.4346 80.5671 45.0165 82.8473 45.9303 84.7555L77.1309 149.909C78.0163 151.758 79.9566 152.85 81.9836 152.663L82.18 152.641L153.787 143.101C155.819 142.83 157.458 141.322 157.906 139.336L157.945 139.143L171 68.0931Z" stroke="url(#paint33_linear_589_7865)" stroke-width="0.791958"/>
<path opacity="0.353535" d="M171.219 67.3614C171.554 65.3394 170.591 63.3308 168.823 62.3216L168.65 62.2274L104.659 29.0415C102.839 28.0981 100.632 28.3935 99.1259 29.7631L98.9819 29.8986L47.6465 80.5024C46.1398 81.9877 45.7604 84.2744 46.7072 86.1664L78.9707 150.627C79.8881 152.46 81.8482 153.519 83.8719 153.296L84.068 153.271L155.343 142.505C157.37 142.199 158.982 140.663 159.396 138.669L159.432 138.475L171.219 67.3614Z" stroke="url(#paint34_linear_589_7865)" stroke-width="0.791958"/>
<path opacity="0.363636" d="M171.423 66.6426C171.723 64.615 170.726 62.6235 168.94 61.6454L168.765 61.5542L104.344 29.5593C102.508 28.6476 100.305 28.9811 98.8234 30.3769L98.6821 30.5157L48.3463 81.8971C46.8659 83.4085 46.5271 85.701 47.5069 87.5761L80.8185 151.326C81.7677 153.143 83.7453 154.167 85.7647 153.909L85.9599 153.88L156.884 141.899C158.905 141.558 160.49 139.993 160.869 137.993L160.902 137.797L171.423 66.6426Z" stroke="url(#paint35_linear_589_7865)" stroke-width="0.791958"/>
<path opacity="0.373737" d="M171.611 65.9334C171.875 63.9008 170.843 61.927 169.041 60.9803L168.864 60.8921L104.034 30.0928C102.183 29.2135 99.9871 29.5858 98.5299 31.007L98.3911 31.1482L49.0657 83.2868C47.6118 84.8237 47.3125 87.1224 48.3247 88.9801L82.67 152.004C83.6509 153.803 85.6467 154.793 87.6614 154.5L87.856 154.467L158.408 141.278C160.422 140.902 161.98 139.309 162.323 137.303L162.353 137.108L171.611 65.9334Z" stroke="url(#paint36_linear_589_7865)" stroke-width="0.791958"/>
<path opacity="0.383838" d="M171.782 65.2399C172.01 63.203 170.944 61.2475 169.125 60.3324L168.947 60.2473L103.731 30.6483C101.865 29.8012 99.6757 30.2122 98.2433 31.6589L98.1065 31.8017L49.8037 84.6797C48.3769 86.2418 48.1184 88.5448 49.163 90.3845L84.5259 152.663C85.5379 154.445 87.5501 155.4 89.5592 155.072L89.7537 155.037L159.912 140.649C161.92 140.238 163.45 138.619 163.758 136.607L163.785 136.41L171.782 65.2399Z" stroke="url(#paint37_linear_589_7865)" stroke-width="0.791958"/>
<path opacity="0.393939" d="M171.939 64.5569C172.132 62.5166 171.032 60.5807 169.198 59.6974L169.017 59.6146L103.438 31.2205C101.557 30.4061 99.3745 30.8543 97.9676 32.3259L97.8347 32.4714L50.5647 86.0681C49.1652 87.6549 48.9461 89.9624 50.0228 91.7837L86.3882 153.302C87.4312 155.067 89.4604 155.986 91.4636 155.622L91.657 155.583L161.403 140.008C163.403 139.561 164.904 137.915 165.177 135.898L165.2 135.702L171.939 64.5569Z" stroke="url(#paint38_linear_589_7865)" stroke-width="0.791958"/>
<path opacity="0.40404" d="M172.081 63.8885C172.239 61.845 171.104 59.9279 169.255 59.0767L169.074 58.9979L103.151 31.8115C101.256 31.0301 99.0829 31.5161 97.7019 33.0117L97.5707 33.1601L51.3433 87.4547C49.972 89.0656 49.7941 91.3762 50.9021 93.1784L88.2548 153.921C89.3284 155.667 91.3727 156.551 93.3691 156.153L93.5617 156.11L162.874 139.356C164.866 138.875 166.339 137.204 166.577 135.182L166.596 134.985L172.081 63.8885Z" stroke="url(#paint39_linear_589_7865)" stroke-width="0.791958"/>
<path opacity="0.414141" d="M172.208 63.2335C172.33 61.1876 171.163 59.2906 169.299 58.4718L169.116 58.3962L102.874 32.4204C100.966 31.6721 98.8008 32.1971 97.4461 33.7168L97.3175 33.8674L52.144 88.8403C50.8008 90.4749 50.6624 92.7887 51.802 94.5714L90.1254 154.522C91.2294 156.249 93.2891 157.096 95.2782 156.663L95.4706 156.618L164.329 138.696C166.312 138.18 167.755 136.483 167.958 134.458L167.974 134.26L172.208 63.2335Z" stroke="url(#paint40_linear_589_7865)" stroke-width="0.791958"/>
<path opacity="0.424242" d="M172.32 62.5931C172.406 60.5453 171.206 58.669 169.328 57.8829L169.144 57.8105L102.604 33.0494C100.683 32.3346 98.5283 32.897 97.2003 34.4399L97.0738 34.5919L52.9622 90.2238C51.6478 91.8817 51.5511 94.1978 52.7215 95.9603L91.999 155.103C93.1329 156.81 95.2068 157.623 97.1881 157.155L97.3797 157.106L165.766 138.027C167.74 137.476 169.153 135.754 169.321 133.725L169.333 133.528L172.32 62.5931Z" stroke="url(#paint41_linear_589_7865)" stroke-width="0.791958"/>
<path opacity="0.434343" d="M172.418 61.9655C172.468 59.9165 171.235 58.0614 169.344 57.3082L169.158 57.2391L102.343 33.6952C100.41 33.014 98.2645 33.613 96.9637 35.1789L96.8405 35.3339L53.8015 91.6036C52.5161 93.2841 52.4586 95.6013 53.6596 97.3431L93.8757 155.664C95.0393 157.352 97.1276 158.127 99.1006 157.625L99.2908 157.572L167.185 137.347C169.149 136.762 170.532 135.016 170.664 132.984L170.673 132.787L172.418 61.9655Z" stroke="url(#paint42_linear_589_7865)" stroke-width="0.791958"/>
<path opacity="0.444444" d="M172.502 61.3513C172.517 59.3017 171.252 57.4684 169.348 56.7484L169.161 56.6825L102.092 34.3565C100.147 33.7092 98.0128 34.3467 96.7396 35.9353L96.6199 36.0918L54.6608 92.9799C53.4052 94.6826 53.3887 97 54.6199 98.7205L95.7573 156.205C96.9502 157.871 99.0512 158.611 101.015 158.074L101.204 158.018L168.588 136.657C170.541 136.038 171.894 134.268 171.99 132.234L171.995 132.037L172.502 61.3513Z" stroke="url(#paint43_linear_589_7865)" stroke-width="0.791958"/>
<path opacity="0.454545" d="M172.571 60.7533C172.55 58.704 171.254 56.8937 169.337 56.2069L169.149 56.1435L101.849 35.0384C99.8931 34.4252 97.7707 35.0994 96.5254 36.7098L96.4071 36.8682L55.5378 94.353C54.3119 96.0773 54.3354 98.3952 55.5964 100.094L97.6382 156.727C98.86 158.373 100.974 159.075 102.928 158.504L103.117 158.445L169.969 135.961C171.912 135.308 173.233 133.515 173.294 131.48L173.296 131.282L172.571 60.7533Z" stroke="url(#paint44_linear_589_7865)" stroke-width="0.791958"/>
<path opacity="0.464646" d="M172.629 60.1683C172.573 58.1196 171.244 56.3316 169.316 55.6783L169.127 55.619L101.618 35.7347C99.6516 35.1556 97.5401 35.8666 96.3231 37.4985L96.2081 37.6598L56.436 95.7212C55.2406 97.4667 55.305 99.7833 56.5955 101.46L99.5246 157.227C100.775 158.851 102.9 159.517 104.844 158.912L105.031 158.849L171.336 135.255C173.266 134.568 174.556 132.752 174.582 130.716L174.58 130.518L172.629 60.1683Z" stroke="url(#paint45_linear_589_7865)" stroke-width="0.791958"/>
<path opacity="0.474747" d="M172.674 59.6C172.582 57.5526 171.222 55.788 169.283 55.1685L169.093 55.1125L101.396 36.4505C99.4201 35.9061 97.3224 36.6541 96.1341 38.3066L96.0219 38.4698L57.354 97.0864C56.189 98.8526 56.2938 101.169 57.6135 102.823L101.412 157.711C102.691 159.313 104.828 159.941 106.761 159.302L106.947 159.236L172.685 134.543C174.603 133.822 175.861 131.983 175.851 129.947L175.846 129.75L172.674 59.6Z" stroke="url(#paint46_linear_589_7865)" stroke-width="0.791958"/>
<path opacity="0.484848" d="M172.704 59.0454C172.576 56.9998 171.186 55.2593 169.236 54.6738L169.046 54.621L101.183 37.1826C99.198 36.6727 97.1137 37.457 95.9545 39.1303L95.8446 39.2947L58.2893 98.4471C57.1555 100.233 57.3008 102.546 58.649 104.177L103.301 158.173C104.607 159.752 106.754 160.343 108.675 159.671L108.861 159.602L174.012 133.821C175.918 133.067 177.144 131.208 177.098 129.172L177.09 128.975L172.704 59.0454Z" stroke="url(#paint47_linear_589_7865)" stroke-width="0.791958"/>
<path opacity="0.494949" d="M172.722 58.5052C172.558 56.4621 171.138 54.7461 169.178 54.1947L168.987 54.1453L100.982 37.9298C98.9881 37.4544 96.9174 38.2754 95.7875 39.9691L95.6812 40.1347L59.2449 99.8013C58.1422 101.607 58.3272 103.918 59.7037 105.524L105.19 158.615C106.523 160.171 108.681 160.724 110.591 160.018L110.775 159.947L175.323 133.092C177.216 132.305 178.409 130.424 178.328 128.39L178.315 128.192L172.722 58.5052Z" stroke="url(#paint48_linear_589_7865)" stroke-width="0.791958"/>
<path opacity="0.50505" d="M172.728 57.9828C172.529 55.9429 171.079 54.2519 169.11 53.7349L168.918 53.6888L100.792 38.6966C98.79 38.2561 96.7339 39.1121 95.6336 40.8248L95.5301 40.9937L60.2186 101.153C59.1478 102.977 59.3738 105.284 60.778 106.866L107.081 159.039C108.441 160.572 110.608 161.088 112.505 160.349L112.687 160.273L176.616 132.359C178.494 131.539 179.654 129.637 179.537 127.605L179.522 127.408L172.728 57.9828Z" stroke="url(#paint49_linear_589_7865)" stroke-width="0.791958"/>
<path opacity="0.515152" d="M172.723 57.4742C172.488 55.4381 171.009 53.7726 169.031 53.29L168.838 53.2473L100.613 39.4763C98.6035 39.0708 96.5627 39.9637 95.4925 41.6956L95.392 41.8662L61.2127 102.497C60.1737 104.34 60.4392 106.642 61.871 108.2L108.972 159.443C110.36 160.952 112.536 161.429 114.419 160.657L114.6 160.578L177.89 131.617C179.753 130.765 180.88 128.843 180.728 126.813L180.709 126.615L172.723 57.4742Z" stroke="url(#paint50_linear_589_7865)" stroke-width="0.791958"/>
<path opacity="0.525253" d="M172.706 56.9821C172.435 54.9505 170.927 53.3112 168.941 52.863L168.747 52.8237L100.444 40.2734C98.4287 39.903 96.4044 40.831 95.3645 42.581L95.2663 42.7527L62.2234 103.835C61.2169 105.696 61.5238 107.993 62.9825 109.526L110.863 159.826C112.277 161.31 114.46 161.75 116.33 160.945L116.51 160.864L179.145 130.869C180.994 129.984 182.086 128.043 181.899 126.016L181.877 125.82L172.706 56.9821Z" stroke="url(#paint51_linear_589_7865)" stroke-width="0.791958"/>
<path opacity="0.535354" d="M172.677 56.5058C172.371 54.4792 170.835 52.8664 168.841 52.453L168.647 52.4171L100.288 41.0867C98.2663 40.7515 96.2579 41.7139 95.2487 43.4819L95.1543 43.656L63.2545 105.167C62.2805 107.045 62.6263 109.337 64.1115 110.844L112.755 160.191C114.194 161.65 116.385 162.052 118.241 161.214L118.419 161.129L180.381 130.116C182.214 129.199 183.273 127.239 183.05 125.216L183.025 125.02L172.677 56.5058Z" stroke="url(#paint52_linear_589_7865)" stroke-width="0.791958"/>
<path opacity="0.545455" d="M172.637 56.0456C172.296 54.0246 170.732 52.4389 168.731 52.0604L168.536 52.0278L100.144 41.9141C98.1163 41.6144 96.1249 42.6128 95.1469 44.3983L95.0562 44.5733L64.3031 106.494C63.3623 108.388 63.7485 110.674 65.2597 112.154L114.646 160.536C116.11 161.97 118.307 162.333 120.148 161.464L120.325 161.376L181.6 129.357C183.416 128.408 184.441 126.43 184.183 124.411L184.153 124.215L172.637 56.0456Z" stroke="url(#paint53_linear_589_7865)" stroke-width="0.791958"/>
<path opacity="0.555556" d="M172.587 55.6007C172.211 53.5859 170.619 52.0278 168.612 51.6843L168.417 51.6552L100.012 42.7571C97.9797 42.4929 96.0066 43.5254 95.0598 45.3275L94.9708 45.504L65.3703 107.811C64.4625 109.722 64.8882 112.001 66.4249 113.455L116.536 160.861C118.025 162.269 120.228 162.593 122.053 161.691L122.229 161.601L182.8 128.593C184.599 127.612 185.589 125.616 185.295 123.601L185.263 123.407L172.587 55.6007Z" stroke="url(#paint54_linear_589_7865)" stroke-width="0.791958"/>
<path opacity="0.565657" d="M172.526 55.1738C172.114 53.1659 170.495 51.6357 168.483 51.3273L168.287 51.3016L99.8923 43.616C97.8555 43.3871 95.8996 44.4539 94.9844 46.2724L94.8991 46.4511L66.4547 109.124C65.5806 111.051 66.0463 113.321 67.6083 114.748L118.423 161.167C119.937 162.549 122.146 162.835 123.955 161.902L124.129 161.809L183.979 127.824C185.761 126.812 186.716 124.8 186.387 122.791L186.352 122.596L172.526 55.1738Z" stroke="url(#paint55_linear_589_7865)" stroke-width="0.791958"/>
<path opacity="0.575758" d="M172.454 54.761C172.007 52.7606 170.362 51.2588 168.345 50.9857L168.148 50.9634L99.7844 44.4878C97.7437 44.2945 95.8068 45.3951 94.9235 47.2295L94.8421 47.4089L67.5567 110.426C66.7161 112.367 67.2215 114.63 68.8083 116.03L120.309 161.452C121.847 162.808 124.061 163.055 125.853 162.091L126.025 161.993L185.14 127.049C186.904 126.006 187.824 123.977 187.46 121.974L187.421 121.781L172.454 54.761Z" stroke="url(#paint56_linear_589_7865)" stroke-width="0.791958"/>
<path opacity="0.585859" d="M172.374 54.3669C171.892 52.375 170.222 50.9027 168.2 50.6645L168.003 50.6457L99.6905 45.3755C97.6471 45.218 95.7307 46.3523 94.8796 48.2014L94.8006 48.3831L68.6784 111.723C67.872 113.679 68.4168 115.932 70.0275 117.303L122.196 161.72C123.757 163.048 125.974 163.258 127.75 162.262L127.92 162.162L186.283 126.272C188.029 125.198 188.913 123.154 188.515 121.158L188.472 120.965L172.374 54.3669Z" stroke="url(#paint57_linear_589_7865)" stroke-width="0.791958"/>
<path opacity="0.59596" d="M172.284 53.9914C171.767 52.0079 170.071 50.5646 168.045 50.3618L167.848 50.3464L99.609 46.2782C97.5629 46.1563 95.6662 47.3244 94.8475 49.1885L94.7716 49.3701L69.8162 113.013C69.0439 114.983 69.6272 117.226 71.2619 118.569L124.077 161.969C125.66 163.271 127.882 163.44 129.64 162.414L129.809 162.311L187.406 125.492C189.133 124.388 189.981 122.328 189.548 120.339L189.502 120.147L172.284 53.9914Z" stroke="url(#paint58_linear_589_7865)" stroke-width="0.791958"/>
<path opacity="0.606061" d="M172.184 53.6304C171.634 51.6562 169.912 50.2427 167.883 50.0753L167.686 50.0633L99.5414 47.1938C97.4937 47.1076 95.6175 48.3077 94.8313 50.1854L94.7588 50.3696L70.9712 114.292C70.2336 116.275 70.8567 118.507 72.5142 119.822L125.958 162.198C127.564 163.471 129.787 163.603 131.527 162.546L131.693 162.44L188.511 124.707C190.218 123.573 191.03 121.499 190.562 119.517L190.513 119.326L172.184 53.6304Z" stroke="url(#paint59_linear_589_7865)" stroke-width="0.791958"/>
<path opacity="0.616162" d="M172.076 53.2865C171.491 51.3222 169.745 49.9389 167.714 49.807L167.516 49.7985L99.487 48.1218C97.438 48.0713 95.5832 49.3051 94.83 51.1965L94.7607 51.3819L72.1446 115.563C71.4414 117.559 72.1027 119.78 73.7833 121.066L127.835 162.408C129.463 163.653 131.689 163.746 133.41 162.658L133.574 162.549L189.596 123.919C191.283 122.755 192.059 120.667 191.557 118.695L191.505 118.504L172.076 53.2865Z" stroke="url(#paint60_linear_589_7865)" stroke-width="0.791958"/>
<path opacity="0.626263" d="M171.96 52.9605C171.34 51.0067 169.571 49.6541 167.537 49.5577L167.339 49.5527L99.4468 49.0651C97.3971 49.0504 95.5641 50.3162 94.8442 52.2206L94.7779 52.4059L73.3337 116.826C72.6657 118.833 73.3669 121.043 75.0696 122.298L129.709 162.599C131.359 163.816 133.585 163.869 135.287 162.752L135.45 162.641L190.663 123.128C192.33 121.935 193.069 119.834 192.533 117.871L192.476 117.681L171.96 52.9605Z" stroke="url(#paint61_linear_589_7865)" stroke-width="0.791958"/>
<path opacity="0.636364" d="M171.836 52.6516C171.182 50.7089 169.389 49.3873 167.354 49.3265L167.157 49.3249L99.4213 50.0213C97.3718 50.0423 95.561 51.3389 94.8742 53.2552L94.8114 53.443L74.5418 118.079C73.9087 120.097 74.6473 122.294 76.3715 123.52L131.58 162.771C133.25 163.959 135.478 163.974 137.16 162.827L137.322 162.713L191.712 122.336C193.358 121.114 194.059 119 193.489 117.046L193.429 116.858L171.836 52.6516Z" stroke="url(#paint62_linear_589_7865)" stroke-width="0.791958"/>
<path opacity="0.646465" d="M171.703 52.3603C171.016 50.4295 169.2 49.14 167.165 49.1145L166.966 49.1157L99.4083 50.9891C97.3595 51.046 95.5717 52.3751 94.9186 54.3033L94.8596 54.4913L75.7645 119.323C75.167 121.352 75.9441 123.536 77.6895 124.731L133.446 162.925C135.137 164.083 137.364 164.059 139.026 162.884L139.185 162.766L192.74 121.54C194.364 120.29 195.03 118.164 194.425 116.22L194.362 116.033L171.703 52.3603Z" stroke="url(#paint63_linear_589_7865)" stroke-width="0.791958"/>
<path opacity="0.656566" d="M171.562 52.0873C170.842 50.1687 169.003 48.9106 166.968 48.9206L166.77 48.9259L99.4094 51.9711C97.362 52.0637 95.5982 53.4233 94.9787 55.3623L94.9217 55.5516L77.0027 120.556C76.4405 122.596 77.2554 124.766 79.0213 125.931L135.307 163.061C137.018 164.189 139.245 164.126 140.886 162.921L141.043 162.801L193.749 120.744C195.351 119.466 195.978 117.328 195.34 115.395L195.274 115.209L171.562 52.0873Z" stroke="url(#paint64_linear_589_7865)" stroke-width="0.791958"/>
<path opacity="0.666667" d="M171.415 51.8303C170.661 49.9245 168.801 48.6987 166.766 48.7443L166.568 48.753L99.4265 52.9633C97.3808 53.0916 95.6407 54.4823 95.0552 56.4322L95.0015 56.6225L78.2589 121.779C77.7323 123.828 78.5848 125.984 80.3709 127.118L137.165 163.176C138.895 164.274 141.12 164.173 142.74 162.94L142.895 162.817L194.738 119.945C196.318 118.639 196.909 116.492 196.237 114.57L196.168 114.384L171.415 51.8303Z" stroke="url(#paint65_linear_589_7865)" stroke-width="0.791958"/>
<path opacity="0.676768" d="M171.261 51.5918C170.473 49.6994 168.592 48.5063 166.558 48.5874L166.361 48.5996L99.4577 53.9692C97.4145 54.1332 95.698 55.5535 95.1467 57.5133L95.0977 57.7042L79.5303 122.993C79.0396 125.051 79.9295 127.191 81.7352 128.294L139.017 163.275C140.766 164.343 142.99 164.202 144.588 162.94L144.74 162.815L195.71 119.146C197.267 117.812 197.82 115.655 197.114 113.745L197.042 113.561L171.261 51.5918Z" stroke="url(#paint66_linear_589_7865)" stroke-width="0.791958"/>
<path opacity="0.686869" d="M171.101 51.3716C170.281 49.4932 168.38 48.333 166.347 48.4497L166.15 48.4654L99.5045 54.9867C97.4648 55.1865 95.7745 56.6364 95.2574 58.6052L95.2112 58.7977L80.8186 124.196C80.3639 126.262 81.2912 128.386 83.1157 129.457L140.866 163.355C142.634 164.392 144.854 164.213 146.43 162.924L146.58 162.795L196.664 118.347C198.197 116.986 198.712 114.819 197.973 112.922L197.898 112.74L171.101 51.3716Z" stroke="url(#paint67_linear_589_7865)" stroke-width="0.791958"/>
<path opacity="0.69697" d="M170.934 51.1673C170.081 49.3035 168.16 48.1766 166.13 48.3289L165.933 48.3479L99.5661 56.0133C97.5299 56.2485 95.8649 57.7283 95.3823 59.7062L95.3386 59.899L82.1212 125.387C81.7026 127.461 82.6667 129.568 84.5097 130.607L142.708 163.416C144.493 164.422 146.71 164.203 148.263 162.887L148.411 162.756L197.597 117.545C199.106 116.158 199.584 113.983 198.812 112.099L198.734 111.917L170.934 51.1673Z" stroke="url(#paint68_linear_589_7865)" stroke-width="0.791958"/>
<path opacity="0.707071" d="M170.761 50.9835C169.876 49.1352 167.936 48.0425 165.909 48.2298L165.712 48.2518L99.6429 57.0543C97.6114 57.325 95.9721 58.8327 95.5238 60.8184L95.4844 61.0124L83.4391 126.568C83.0567 128.649 84.0583 130.74 85.9192 131.747L144.544 163.46C146.346 164.435 148.559 164.178 150.089 162.835L150.235 162.702L198.512 116.746C199.997 115.333 200.436 113.149 199.631 111.279L199.55 111.099L170.761 50.9835Z" stroke="url(#paint69_linear_589_7865)" stroke-width="0.791958"/>
<path opacity="0.717172" d="M170.584 50.8173C169.667 48.9845 167.707 47.9255 165.683 48.1483L165.487 48.1742L99.7347 58.104C97.708 58.4101 96.0957 59.9473 95.6823 61.9407L95.6462 62.1354L84.7723 127.738C84.4264 129.825 85.4635 131.898 87.3416 132.872L146.373 163.486C148.193 164.43 150.401 164.134 151.907 162.765L152.05 162.629L199.408 115.946C200.867 114.507 201.269 112.317 200.432 110.461L200.347 110.282L170.584 50.8173Z" stroke="url(#paint70_linear_589_7865)" stroke-width="0.791958"/>
<path opacity="0.727273" d="M170.4 50.668C169.451 48.8515 167.473 47.8268 165.454 48.0849L165.258 48.1142L99.8419 59.1648C97.8208 59.5063 96.2355 61.0711 95.8571 63.0716L95.824 63.2656L86.1203 128.895C85.8108 130.988 86.8838 133.043 88.7788 133.984L148.197 163.494C150.033 164.405 152.235 164.072 153.717 162.676L153.858 162.537L200.285 115.146C201.719 113.682 202.082 111.485 201.213 109.644L201.124 109.467L170.4 50.668Z" stroke="url(#paint71_linear_589_7865)" stroke-width="0.791958"/>
<path opacity="0.737374" d="M170.212 50.5386C169.231 48.7389 167.236 47.7489 165.221 48.0422L165.026 48.075L99.9656 60.2375C97.951 60.6142 96.3928 62.2055 96.0492 64.212L96.0199 64.4078L87.4822 130.043C87.2093 132.141 88.3182 134.176 90.2291 135.084L150.014 163.487C151.865 164.366 154.061 163.993 155.518 162.571L155.657 162.431L201.144 114.35C202.552 112.861 202.876 110.657 201.975 108.832L201.884 108.657L170.212 50.5386Z" stroke="url(#paint72_linear_589_7865)" stroke-width="0.791958"/>
<path opacity="0.747475" d="M170.02 50.4259C169.008 48.6435 166.996 47.6884 164.986 48.0169L164.792 48.0531L100.106 61.3178C98.0983 61.7295 96.5678 63.3485 96.2593 65.3608L96.2335 65.5572L88.8604 131.176C88.6241 133.278 89.7682 135.294 91.6948 136.169L151.824 163.459C153.69 164.306 155.88 163.896 157.312 162.449L157.448 162.305L201.983 113.553C203.366 112.04 203.652 109.831 202.719 108.021L202.625 107.847L170.02 50.4259Z" stroke="url(#paint73_linear_589_7865)" stroke-width="0.791958"/>
<path opacity="0.757576" d="M169.822 50.3314C168.779 48.5669 166.751 47.6471 164.748 48.0107L164.554 48.0502L100.26 62.4081C98.2601 62.8549 96.7592 64.5001 96.4858 66.5172L96.4634 66.7139L90.2499 132.298C90.0504 134.404 91.2308 136.399 93.1724 137.24L153.626 163.415C155.507 164.229 157.689 163.781 159.096 162.309L159.229 162.164L202.804 112.757C204.16 111.22 204.408 109.006 203.443 107.214L203.345 107.041L169.822 50.3314Z" stroke="url(#paint74_linear_589_7865)" stroke-width="0.791958"/>
<path opacity="0.767677" d="M169.623 50.2548C168.549 48.5091 166.505 47.6252 164.509 48.0234L164.315 48.0659L100.433 63.5078C98.4406 63.9894 96.9686 65.6603 96.7306 67.6821L96.7107 67.8788L91.6561 133.406C91.4934 135.515 92.7072 137.49 94.6631 138.297L155.422 163.354C157.316 164.135 159.489 163.648 160.87 162.153L161.002 162.004L203.608 111.964C204.937 110.403 205.145 108.185 204.149 106.41L204.049 106.239L169.623 50.2548Z" stroke="url(#paint75_linear_589_7865)" stroke-width="0.791958"/>
<path opacity="0.777778" d="M169.418 50.1976C168.314 48.4707 166.254 47.6224 164.265 48.0554L164.073 48.1017L100.62 64.6162C98.6359 65.1325 97.1922 66.8293 96.9896 68.8551L96.9744 69.0516L93.0731 134.503C92.9473 136.615 94.1957 138.567 96.1653 139.34L157.207 163.275C159.115 164.024 161.28 163.5 162.634 161.98L162.763 161.83L204.39 111.172C205.691 109.588 205.862 107.368 204.835 105.61L204.732 105.441L169.418 50.1976Z" stroke="url(#paint76_linear_589_7865)" stroke-width="0.791958"/>
<path opacity="0.787879" d="M169.211 50.1582C168.077 48.4508 166.003 47.6386 164.022 48.1063L163.831 48.1559L100.824 65.7338C98.8502 66.2847 97.4373 68.0062 97.2699 70.0348L97.2579 70.2325L94.5054 135.586C94.4164 137.7 95.6985 139.631 97.6813 140.369L158.986 163.182C160.907 163.897 163.063 163.335 164.391 161.792L164.516 161.638L205.157 110.384C206.431 108.778 206.562 106.555 205.504 104.815L205.398 104.648L169.211 50.1582Z" stroke="url(#paint77_linear_589_7865)" stroke-width="0.791958"/>
<path opacity="0.79798" d="M169.001 50.1367C167.837 48.4493 165.749 47.6733 163.776 48.1756L163.586 48.2286L101.045 66.8587C99.0807 67.4439 97.698 69.1904 97.5662 71.222L97.5567 71.4195L95.95 136.656C95.898 138.771 97.2137 140.679 99.2092 141.382L160.757 163.07C162.69 163.751 164.835 163.152 166.136 161.586L166.258 161.432L205.904 109.599C207.149 107.971 207.242 105.745 206.154 104.024L206.046 103.859L169.001 50.1367Z" stroke="url(#paint78_linear_589_7865)" stroke-width="0.791958"/>
<path opacity="0.808081" d="M168.788 50.1341C167.595 48.4673 165.494 47.7278 163.53 48.2645L163.34 48.3208L101.283 67.9932C99.3289 68.6126 97.9763 70.3821 97.8797 72.4153L97.8745 72.6133L97.4069 137.713C97.3917 139.829 98.7412 141.714 100.749 142.382L162.518 162.944C164.462 163.591 166.596 162.954 167.869 161.366L167.991 161.209L206.633 108.816C207.85 107.167 207.904 104.94 206.787 103.239L206.674 103.076L168.788 50.1341Z" stroke="url(#paint79_linear_589_7865)" stroke-width="0.791958"/>
<path opacity="0.818182" d="M168.574 50.1512C167.352 48.5054 165.238 47.8027 163.284 48.3737L163.096 48.4332L101.538 69.1368C99.5953 69.7901 98.2738 71.5827 98.2128 73.6176L98.2111 73.8156L98.8782 138.758C98.8999 140.874 100.282 142.734 102.3 143.368L164.271 162.801C166.227 163.415 168.349 162.741 169.595 161.131L169.712 160.972L207.346 108.04C208.533 106.37 208.547 104.142 207.401 102.46L207.286 102.299L168.574 50.1512Z" stroke="url(#paint80_linear_589_7865)" stroke-width="0.791958"/>
<path opacity="0.828283" d="M168.357 50.1846C167.107 48.5605 164.981 47.8946 163.038 48.4996L162.85 48.5625L101.809 70.2845C99.8779 70.9717 98.5885 72.7881 98.5632 74.8238L98.5643 75.0206L100.361 139.787C100.42 141.902 101.834 143.739 103.863 144.337L166.014 162.642C167.98 163.222 170.091 162.511 171.308 160.879L171.423 160.717L208.039 107.264C209.197 105.573 209.173 103.346 207.997 101.684L207.88 101.526L168.357 50.1846Z" stroke="url(#paint81_linear_589_7865)" stroke-width="0.791958"/>
<path opacity="0.838384" d="M168.139 50.2357C166.861 48.6337 164.724 48.0054 162.791 48.6439L162.604 48.71L102.096 71.4396C100.178 72.1604 98.9204 73.9983 98.9305 76.034L98.9347 76.2317L101.854 140.802C101.95 142.915 103.395 144.727 105.435 145.289L167.747 162.466C169.723 163.01 171.821 162.263 173.009 160.61L173.122 160.448L208.713 106.493C209.842 104.782 209.778 102.556 208.573 100.915L208.454 100.758L168.139 50.2357Z" stroke="url(#paint82_linear_589_7865)" stroke-width="0.791958"/>
<path opacity="0.848485" d="M167.919 50.3066C166.613 48.7272 164.465 48.1361 162.544 48.8084L162.359 48.8777L102.401 72.6024C100.495 73.3565 99.2692 75.2167 99.3149 77.252L99.3235 77.4498L103.36 141.804C103.492 143.915 104.969 145.702 107.018 146.228L169.47 162.276C171.455 162.786 173.54 162.002 174.699 160.329L174.809 160.164L209.369 105.728C210.468 103.998 210.366 101.773 209.133 100.153L209.011 99.9976L167.919 50.3066Z" stroke="url(#paint83_linear_589_7865)" stroke-width="0.791958"/>
<path opacity="0.858586" d="M167.699 50.3963C166.366 48.8398 164.208 48.2864 162.299 48.9921L162.115 49.0647L102.723 73.7727C100.831 74.56 99.6388 76.4409 99.7198 78.4748L99.7319 78.6725L104.877 142.792C105.046 144.901 106.555 146.661 108.613 147.152L171.184 162.071C173.178 162.547 175.249 161.726 176.379 160.033L176.485 159.867L210.01 104.968C211.079 103.218 210.938 100.996 209.677 99.3976L209.551 99.245L167.699 50.3963Z" stroke="url(#paint84_linear_589_7865)" stroke-width="0.791958"/>
<path opacity="0.868687" d="M167.478 50.5024C166.118 48.9694 163.951 48.4537 162.054 49.1927L161.871 49.2685L103.063 74.9477C101.184 75.7679 100.025 77.6691 100.142 79.7015L100.156 79.8987L106.406 143.764C106.612 145.869 108.15 147.603 110.216 148.058L172.888 161.85C174.889 162.291 176.946 161.434 178.046 159.722L178.149 159.552L210.633 104.211C211.67 102.444 211.49 100.224 210.201 98.6479L210.073 98.4977L167.478 50.5024Z" stroke="url(#paint85_linear_589_7865)" stroke-width="0.791958"/>
<path opacity="0.878788" d="M167.258 50.6281C165.871 49.1191 163.695 48.6412 161.812 49.4132L161.63 49.4922L103.42 76.1288C101.557 76.9817 100.429 78.9034 100.582 80.9336L100.601 81.1297L107.946 144.723C108.189 146.825 109.757 148.531 111.831 148.949L174.581 161.615C176.59 162.02 178.631 161.128 179.701 159.396L179.802 159.226L211.238 103.461C212.244 101.675 212.027 99.4588 210.71 97.9059L210.58 97.758L167.258 50.6281Z" stroke="url(#paint86_linear_589_7865)" stroke-width="0.791958"/>
<path opacity="0.888889" d="M167.037 50.7711C165.624 49.2865 163.441 48.8465 161.571 49.6514L161.391 49.7335L103.794 77.3152C101.946 78.2005 100.853 80.1412 101.041 82.1681L101.063 82.3648L109.496 145.665C109.775 147.762 111.373 149.442 113.454 149.824L176.263 161.365C178.279 161.735 180.304 160.807 181.344 159.056L181.441 158.885L211.826 102.716C212.801 100.914 212.545 98.7011 211.202 97.1714L211.067 97.0256L167.037 50.7711Z" stroke="url(#paint87_linear_589_7865)" stroke-width="0.791958"/>
<path opacity="0.89899" d="M166.817 50.9334C165.378 49.474 163.188 49.0725 161.333 49.9095L161.154 49.9947L104.186 78.5073C102.353 79.4247 101.295 81.3848 101.518 83.4084L101.542 83.6046L111.057 146.595C111.373 148.687 113 150.337 115.087 150.683L177.935 161.1C179.957 161.436 181.965 160.473 182.974 158.705L183.068 158.531L212.397 101.979C213.341 100.16 213.045 97.9518 211.675 96.4457L211.54 96.3015L166.817 50.9334Z" stroke="url(#paint88_linear_589_7865)" stroke-width="0.791958"/>
<path opacity="0.909091" d="M166.598 51.1139C165.134 49.6797 162.936 49.3164 161.095 50.1858L160.918 50.2741L104.594 79.7052C102.778 80.6544 101.753 82.6325 102.011 84.6519L102.04 84.8468L112.626 147.509C112.978 149.595 114.635 151.217 116.728 151.527L179.594 160.823C181.621 161.123 183.612 160.124 184.59 158.339L184.682 158.164L212.95 101.247C213.861 99.4113 213.528 97.2091 212.132 95.7272L211.993 95.5862L166.598 51.1139Z" stroke="url(#paint89_linear_589_7865)" stroke-width="0.791958"/>
<path opacity="0.919192" d="M166.38 51.3111C164.891 49.9025 162.687 49.5777 160.862 50.4791L160.686 50.5705L105.021 80.9063C103.222 81.887 102.231 83.8819 102.525 85.8964L102.557 86.0917L114.206 148.407C114.595 150.487 116.279 152.079 118.377 152.352L181.242 160.529C183.274 160.794 185.248 159.761 186.195 157.959L186.284 157.783L213.487 100.521C214.367 98.67 213.994 96.4739 212.572 95.0166L212.432 94.8781L166.38 51.3111Z" stroke="url(#paint90_linear_589_7865)" stroke-width="0.791958"/>
<path opacity="0.929293" d="M166.162 51.5271C164.649 50.1448 162.44 49.8583 160.631 50.7916L160.457 50.886L105.464 82.1114C103.682 83.1235 102.727 85.1363 103.056 87.1454L103.092 87.3392L115.796 149.29C116.221 151.362 117.932 152.926 120.034 153.162L182.878 160.224C184.915 160.453 186.87 159.386 187.785 157.567L187.87 157.389L214.006 99.8025C214.853 97.9361 214.443 95.7469 212.996 94.3146L212.853 94.1786L166.162 51.5271Z" stroke="url(#paint91_linear_589_7865)" stroke-width="0.791958"/>
<path opacity="0.939394" d="M165.946 51.7598C164.409 50.4041 162.195 50.1562 160.403 51.1209L160.231 51.2184L105.925 83.3202C104.161 84.3632 103.242 86.3916 103.605 88.3945L103.644 88.5885L117.393 150.157C117.854 152.221 119.592 153.754 121.698 153.954L184.502 159.903C186.543 160.096 188.479 158.996 189.363 157.162L189.444 156.982L214.51 99.0906C215.324 97.2098 214.876 95.028 213.404 93.6212L213.258 93.4877L165.946 51.7598Z" stroke="url(#paint92_linear_589_7865)" stroke-width="0.791958"/>
<path opacity="0.949495" d="M165.733 52.0117C164.173 50.683 161.955 50.4737 160.18 51.4697L160.009 51.5701L106.405 84.533C104.659 85.6066 103.774 87.6515 104.173 89.6479L104.216 89.8413L119.001 151.008C119.498 153.065 121.263 154.568 123.372 154.731L186.115 159.571C188.159 159.728 190.075 158.593 190.926 156.744L191.006 156.563L214.998 98.3876C215.779 96.4928 215.292 94.3192 213.796 92.9382L213.649 92.8064L165.733 52.0117Z" stroke="url(#paint93_linear_589_7865)" stroke-width="0.791958"/>
<path opacity="0.959596" d="M165.523 52.2816C163.94 50.9805 161.719 50.8102 159.962 51.8366L159.792 51.9399L106.901 85.7501C105.175 86.8541 104.327 88.9141 104.76 90.9033L104.806 91.0948L120.617 151.845C121.15 153.893 122.941 155.364 125.053 155.49L187.715 159.225C189.761 159.347 191.658 158.18 192.477 156.316L192.553 156.134L215.469 97.6915C216.217 95.7833 215.693 93.6186 214.174 92.2639L214.024 92.1357L165.523 52.2816Z" stroke="url(#paint94_linear_589_7865)" stroke-width="0.791958"/>
<path opacity="0.969697" d="M165.317 52.5686C163.711 51.2952 161.487 51.1637 159.747 52.2207L159.581 52.3271L107.417 86.9696C105.709 88.1036 104.898 90.1772 105.365 92.1584L105.414 92.3501L122.242 152.665C122.81 154.703 124.626 156.144 126.74 156.233L189.304 158.867C191.352 158.954 193.228 157.752 194.014 155.874L194.086 155.691L215.925 97.0039C216.64 95.0828 216.078 92.9277 214.534 91.5997L214.382 91.4741L165.317 52.5686Z" stroke="url(#paint95_linear_589_7865)" stroke-width="0.791958"/>
<path opacity="0.979798" d="M165.111 52.8724C163.483 51.6272 161.257 51.5345 159.536 52.6218L159.372 52.731L107.948 88.19C106.261 89.3536 105.485 91.4419 105.987 93.4148L106.04 93.6046L123.874 153.469C124.478 155.497 126.319 156.905 128.434 156.957L190.879 158.495C192.927 158.546 194.782 157.313 195.535 155.421L195.605 155.237L216.364 96.3228C217.045 94.3896 216.446 92.2445 214.88 90.9438L214.726 90.8208L165.111 52.8724Z" stroke="url(#paint96_linear_589_7865)" stroke-width="0.791958"/>
<path opacity="0.989899" d="M164.909 53.1942C163.26 51.9776 161.033 51.9237 159.331 53.0409L159.168 53.153L108.498 89.4142C106.832 90.6069 106.092 92.7077 106.628 94.6714L106.685 94.8612L125.513 154.257C126.152 156.273 128.017 157.65 130.133 157.665L192.44 158.112C194.49 158.127 196.323 156.861 197.043 154.957L197.109 154.771L216.788 95.6518C217.436 93.7071 216.799 91.5728 215.211 90.2995L215.053 90.1792L164.909 53.1942Z" stroke="url(#paint97_linear_589_7865)" stroke-width="0.791958"/>
<path d="M164.71 53.5327C163.039 52.3451 160.812 52.3299 159.13 53.4768L158.969 53.5917L109.064 90.6386C107.418 91.8603 106.716 93.9745 107.287 95.9286L107.347 96.1174L127.159 155.028C127.833 157.034 129.722 158.376 131.838 158.354L193.988 157.716C196.037 157.695 197.848 156.398 198.535 154.482L198.598 154.294L217.196 94.9889C217.81 93.0331 217.135 90.9103 215.524 89.6649L215.366 89.5464L164.71 53.5327Z" stroke="url(#paint98_linear_589_7865)" stroke-width="0.791958"/>
</g>
<defs>
<linearGradient id="paint0_linear_589_7865" x1="78.9582" y1="127.142" x2="90.0566" y2="41.8223" gradientUnits="userSpaceOnUse">
<stop stop-color="#23A32E"/>
<stop offset="1" stop-color="#68FF74"/>
</linearGradient>
<linearGradient id="paint1_linear_589_7865" x1="80.4925" y1="127.413" x2="90.0825" y2="42.0688" gradientUnits="userSpaceOnUse">
<stop stop-color="#23A32E"/>
<stop offset="1" stop-color="#68FF74"/>
</linearGradient>
<linearGradient id="paint2_linear_589_7865" x1="82.0257" y1="127.671" x2="90.1101" y2="42.3287" gradientUnits="userSpaceOnUse">
<stop stop-color="#23A32E"/>
<stop offset="1" stop-color="#68FF74"/>
</linearGradient>
<linearGradient id="paint3_linear_589_7865" x1="83.5577" y1="127.916" x2="90.1393" y2="42.6018" gradientUnits="userSpaceOnUse">
<stop stop-color="#23A32E"/>
<stop offset="1" stop-color="#68FF74"/>
</linearGradient>
<linearGradient id="paint4_linear_589_7865" x1="85.0869" y1="128.146" x2="90.1692" y2="42.8872" gradientUnits="userSpaceOnUse">
<stop stop-color="#23A32E"/>
<stop offset="1" stop-color="#68FF74"/>
</linearGradient>
<linearGradient id="paint5_linear_589_7865" x1="86.6157" y1="128.366" x2="90.2027" y2="43.1876" gradientUnits="userSpaceOnUse">
<stop stop-color="#23A32E"/>
<stop offset="1" stop-color="#68FF74"/>
</linearGradient>
<linearGradient id="paint6_linear_589_7865" x1="88.1414" y1="128.571" x2="90.2373" y2="43.4997" gradientUnits="userSpaceOnUse">
<stop stop-color="#23A32E"/>
<stop offset="1" stop-color="#68FF74"/>
</linearGradient>
<linearGradient id="paint7_linear_589_7865" x1="89.6665" y1="128.764" x2="90.2763" y2="43.8268" gradientUnits="userSpaceOnUse">
<stop stop-color="#23A32E"/>
<stop offset="1" stop-color="#68FF74"/>
</linearGradient>
<linearGradient id="paint8_linear_589_7865" x1="91.1865" y1="128.945" x2="90.3155" y2="44.1663" gradientUnits="userSpaceOnUse">
<stop stop-color="#23A32E"/>
<stop offset="1" stop-color="#68FF74"/>
</linearGradient>
<linearGradient id="paint9_linear_589_7865" x1="92.7058" y1="129.112" x2="90.3597" y2="44.5192" gradientUnits="userSpaceOnUse">
<stop stop-color="#23A32E"/>
<stop offset="1" stop-color="#68FF74"/>
</linearGradient>
<linearGradient id="paint10_linear_589_7865" x1="94.2224" y1="129.267" x2="90.4074" y2="44.8849" gradientUnits="userSpaceOnUse">
<stop stop-color="#23A32E"/>
<stop offset="1" stop-color="#68FF74"/>
</linearGradient>
<linearGradient id="paint11_linear_589_7865" x1="95.7332" y1="129.409" x2="90.4559" y2="45.2632" gradientUnits="userSpaceOnUse">
<stop stop-color="#23A32E"/>
<stop offset="1" stop-color="#68FF74"/>
</linearGradient>
<linearGradient id="paint12_linear_589_7865" x1="97.2434" y1="129.54" x2="90.5109" y2="45.655" gradientUnits="userSpaceOnUse">
<stop stop-color="#23A32E"/>
<stop offset="1" stop-color="#68FF74"/>
</linearGradient>
<linearGradient id="paint13_linear_589_7865" x1="98.7476" y1="129.657" x2="90.5675" y2="46.0588" gradientUnits="userSpaceOnUse">
<stop stop-color="#23A32E"/>
<stop offset="1" stop-color="#68FF74"/>
</linearGradient>
<linearGradient id="paint14_linear_589_7865" x1="100.249" y1="129.763" x2="90.6288" y2="46.4759" gradientUnits="userSpaceOnUse">
<stop stop-color="#23A32E"/>
<stop offset="1" stop-color="#68FF74"/>
</linearGradient>
<linearGradient id="paint15_linear_589_7865" x1="101.746" y1="129.856" x2="90.6952" y2="46.9057" gradientUnits="userSpaceOnUse">
<stop stop-color="#23A32E"/>
<stop offset="1" stop-color="#68FF74"/>
</linearGradient>
<linearGradient id="paint16_linear_589_7865" x1="103.24" y1="129.937" x2="90.7661" y2="47.3476" gradientUnits="userSpaceOnUse">
<stop stop-color="#23A32E"/>
<stop offset="1" stop-color="#68FF74"/>
</linearGradient>
<linearGradient id="paint17_linear_589_7865" x1="104.729" y1="130.008" x2="90.8414" y2="47.8027" gradientUnits="userSpaceOnUse">
<stop stop-color="#23A32E"/>
<stop offset="1" stop-color="#68FF74"/>
</linearGradient>
<linearGradient id="paint18_linear_589_7865" x1="106.211" y1="130.064" x2="90.9206" y2="48.2687" gradientUnits="userSpaceOnUse">
<stop stop-color="#23A32E"/>
<stop offset="1" stop-color="#68FF74"/>
</linearGradient>
<linearGradient id="paint19_linear_589_7865" x1="107.691" y1="130.111" x2="91.0064" y2="48.7488" gradientUnits="userSpaceOnUse">
<stop stop-color="#23A32E"/>
<stop offset="1" stop-color="#68FF74"/>
</linearGradient>
<linearGradient id="paint20_linear_589_7865" x1="109.164" y1="130.145" x2="91.0967" y2="49.2388" gradientUnits="userSpaceOnUse">
<stop stop-color="#23A32E"/>
<stop offset="1" stop-color="#68FF74"/>
</linearGradient>
<linearGradient id="paint21_linear_589_7865" x1="110.634" y1="130.167" x2="91.1936" y2="49.7416" gradientUnits="userSpaceOnUse">
<stop stop-color="#23A32E"/>
<stop offset="1" stop-color="#68FF74"/>
</linearGradient>
<linearGradient id="paint22_linear_589_7865" x1="112.097" y1="130.179" x2="91.2959" y2="50.257" gradientUnits="userSpaceOnUse">
<stop stop-color="#23A32E"/>
<stop offset="1" stop-color="#68FF74"/>
</linearGradient>
<linearGradient id="paint23_linear_589_7865" x1="113.555" y1="130.179" x2="91.4043" y2="50.7838" gradientUnits="userSpaceOnUse">
<stop stop-color="#23A32E"/>
<stop offset="1" stop-color="#68FF74"/>
</linearGradient>
<linearGradient id="paint24_linear_589_7865" x1="115.006" y1="130.167" x2="91.5177" y2="51.3209" gradientUnits="userSpaceOnUse">
<stop stop-color="#23A32E"/>
<stop offset="1" stop-color="#68FF74"/>
</linearGradient>
<linearGradient id="paint25_linear_589_7865" x1="116.452" y1="130.145" x2="91.6385" y2="51.87" gradientUnits="userSpaceOnUse">
<stop stop-color="#23A32E"/>
<stop offset="1" stop-color="#68FF74"/>
</linearGradient>
<linearGradient id="paint26_linear_589_7865" x1="117.892" y1="130.112" x2="91.7664" y2="52.4305" gradientUnits="userSpaceOnUse">
<stop stop-color="#23A32E"/>
<stop offset="1" stop-color="#68FF74"/>
</linearGradient>
<linearGradient id="paint27_linear_589_7865" x1="119.324" y1="130.068" x2="91.8998" y2="53.0022" gradientUnits="userSpaceOnUse">
<stop stop-color="#23A32E"/>
<stop offset="1" stop-color="#68FF74"/>
</linearGradient>
<linearGradient id="paint28_linear_589_7865" x1="120.75" y1="130.013" x2="92.0399" y2="53.5849" gradientUnits="userSpaceOnUse">
<stop stop-color="#23A32E"/>
<stop offset="1" stop-color="#68FF74"/>
</linearGradient>
<linearGradient id="paint29_linear_589_7865" x1="122.17" y1="129.948" x2="92.188" y2="54.1789" gradientUnits="userSpaceOnUse">
<stop stop-color="#23A32E"/>
<stop offset="1" stop-color="#68FF74"/>
</linearGradient>
<linearGradient id="paint30_linear_589_7865" x1="123.583" y1="129.873" x2="92.3441" y2="54.7834" gradientUnits="userSpaceOnUse">
<stop stop-color="#23A32E"/>
<stop offset="1" stop-color="#68FF74"/>
</linearGradient>
<linearGradient id="paint31_linear_589_7865" x1="124.989" y1="129.787" x2="92.5064" y2="55.3984" gradientUnits="userSpaceOnUse">
<stop stop-color="#23A32E"/>
<stop offset="1" stop-color="#68FF74"/>
</linearGradient>
<linearGradient id="paint32_linear_589_7865" x1="126.387" y1="129.693" x2="92.6767" y2="56.025" gradientUnits="userSpaceOnUse">
<stop stop-color="#23A32E"/>
<stop offset="1" stop-color="#68FF74"/>
</linearGradient>
<linearGradient id="paint33_linear_589_7865" x1="127.777" y1="129.585" x2="92.8543" y2="56.6582" gradientUnits="userSpaceOnUse">
<stop stop-color="#23A32E"/>
<stop offset="1" stop-color="#68FF74"/>
</linearGradient>
<linearGradient id="paint34_linear_589_7865" x1="129.16" y1="129.47" x2="93.0403" y2="57.3045" gradientUnits="userSpaceOnUse">
<stop stop-color="#23A32E"/>
<stop offset="1" stop-color="#68FF74"/>
</linearGradient>
<linearGradient id="paint35_linear_589_7865" x1="130.537" y1="129.347" x2="93.2353" y2="57.9614" gradientUnits="userSpaceOnUse">
<stop stop-color="#23A32E"/>
<stop offset="1" stop-color="#68FF74"/>
</linearGradient>
<linearGradient id="paint36_linear_589_7865" x1="131.904" y1="129.211" x2="93.4376" y2="58.6252" gradientUnits="userSpaceOnUse">
<stop stop-color="#23A32E"/>
<stop offset="1" stop-color="#68FF74"/>
</linearGradient>
<linearGradient id="paint37_linear_589_7865" x1="133.262" y1="129.068" x2="93.6473" y2="59.3015" gradientUnits="userSpaceOnUse">
<stop stop-color="#23A32E"/>
<stop offset="1" stop-color="#68FF74"/>
</linearGradient>
<linearGradient id="paint38_linear_589_7865" x1="134.614" y1="128.915" x2="93.8676" y2="59.9847" gradientUnits="userSpaceOnUse">
<stop stop-color="#23A32E"/>
<stop offset="1" stop-color="#68FF74"/>
</linearGradient>
<linearGradient id="paint39_linear_589_7865" x1="135.957" y1="128.752" x2="94.0957" y2="60.6777" gradientUnits="userSpaceOnUse">
<stop stop-color="#23A32E"/>
<stop offset="1" stop-color="#68FF74"/>
</linearGradient>
<linearGradient id="paint40_linear_589_7865" x1="137.292" y1="128.582" x2="94.3335" y2="61.3805" gradientUnits="userSpaceOnUse">
<stop stop-color="#23A32E"/>
<stop offset="1" stop-color="#68FF74"/>
</linearGradient>
<linearGradient id="paint41_linear_589_7865" x1="138.617" y1="128.404" x2="94.5793" y2="62.0931" gradientUnits="userSpaceOnUse">
<stop stop-color="#23A32E"/>
<stop offset="1" stop-color="#68FF74"/>
</linearGradient>
<linearGradient id="paint42_linear_589_7865" x1="139.933" y1="128.216" x2="94.8344" y2="62.8132" gradientUnits="userSpaceOnUse">
<stop stop-color="#23A32E"/>
<stop offset="1" stop-color="#68FF74"/>
</linearGradient>
<linearGradient id="paint43_linear_589_7865" x1="141.242" y1="128.019" x2="95.1" y2="63.5412" gradientUnits="userSpaceOnUse">
<stop stop-color="#23A32E"/>
<stop offset="1" stop-color="#68FF74"/>
</linearGradient>
<linearGradient id="paint44_linear_589_7865" x1="142.54" y1="127.816" x2="95.3729" y2="64.2791" gradientUnits="userSpaceOnUse">
<stop stop-color="#23A32E"/>
<stop offset="1" stop-color="#68FF74"/>
</linearGradient>
<linearGradient id="paint45_linear_589_7865" x1="143.83" y1="127.602" x2="95.6574" y2="65.023" gradientUnits="userSpaceOnUse">
<stop stop-color="#23A32E"/>
<stop offset="1" stop-color="#68FF74"/>
</linearGradient>
<linearGradient id="paint46_linear_589_7865" x1="145.112" y1="127.384" x2="95.9519" y2="65.7775" gradientUnits="userSpaceOnUse">
<stop stop-color="#23A32E"/>
<stop offset="1" stop-color="#68FF74"/>
</linearGradient>
<linearGradient id="paint47_linear_589_7865" x1="146.382" y1="127.156" x2="96.2545" y2="66.5384" gradientUnits="userSpaceOnUse">
<stop stop-color="#23A32E"/>
<stop offset="1" stop-color="#68FF74"/>
</linearGradient>
<linearGradient id="paint48_linear_589_7865" x1="147.643" y1="126.921" x2="96.5674" y2="67.306" gradientUnits="userSpaceOnUse">
<stop stop-color="#23A32E"/>
<stop offset="1" stop-color="#68FF74"/>
</linearGradient>
<linearGradient id="paint49_linear_589_7865" x1="148.895" y1="126.68" x2="96.891" y2="68.0835" gradientUnits="userSpaceOnUse">
<stop stop-color="#23A32E"/>
<stop offset="1" stop-color="#68FF74"/>
</linearGradient>
<linearGradient id="paint50_linear_589_7865" x1="150.137" y1="126.431" x2="97.225" y2="68.8664" gradientUnits="userSpaceOnUse">
<stop stop-color="#23A32E"/>
<stop offset="1" stop-color="#68FF74"/>
</linearGradient>
<linearGradient id="paint51_linear_589_7865" x1="151.369" y1="126.175" x2="97.5686" y2="69.6564" gradientUnits="userSpaceOnUse">
<stop stop-color="#23A32E"/>
<stop offset="1" stop-color="#68FF74"/>
</linearGradient>
<linearGradient id="paint52_linear_589_7865" x1="152.592" y1="125.913" x2="97.9231" y2="70.4536" gradientUnits="userSpaceOnUse">
<stop stop-color="#23A32E"/>
<stop offset="1" stop-color="#68FF74"/>
</linearGradient>
<linearGradient id="paint53_linear_589_7865" x1="153.804" y1="125.645" x2="98.2878" y2="71.2576" gradientUnits="userSpaceOnUse">
<stop stop-color="#23A32E"/>
<stop offset="1" stop-color="#68FF74"/>
</linearGradient>
<linearGradient id="paint54_linear_589_7865" x1="155.006" y1="125.369" x2="98.6636" y2="72.067" gradientUnits="userSpaceOnUse">
<stop stop-color="#23A32E"/>
<stop offset="1" stop-color="#68FF74"/>
</linearGradient>
<linearGradient id="paint55_linear_589_7865" x1="156.198" y1="125.089" x2="99.0491" y2="72.8841" gradientUnits="userSpaceOnUse">
<stop stop-color="#23A32E"/>
<stop offset="1" stop-color="#68FF74"/>
</linearGradient>
<linearGradient id="paint56_linear_589_7865" x1="157.378" y1="124.8" x2="99.4451" y2="73.7047" gradientUnits="userSpaceOnUse">
<stop stop-color="#23A32E"/>
<stop offset="1" stop-color="#68FF74"/>
</linearGradient>
<linearGradient id="paint57_linear_589_7865" x1="158.55" y1="124.508" x2="99.8538" y2="74.5332" gradientUnits="userSpaceOnUse">
<stop stop-color="#23A32E"/>
<stop offset="1" stop-color="#68FF74"/>
</linearGradient>
<linearGradient id="paint58_linear_589_7865" x1="159.71" y1="124.211" x2="100.271" y2="75.3684" gradientUnits="userSpaceOnUse">
<stop stop-color="#23A32E"/>
<stop offset="1" stop-color="#68FF74"/>
</linearGradient>
<linearGradient id="paint59_linear_589_7865" x1="160.86" y1="123.908" x2="100.701" y2="76.207" gradientUnits="userSpaceOnUse">
<stop stop-color="#23A32E"/>
<stop offset="1" stop-color="#68FF74"/>
</linearGradient>
<linearGradient id="paint60_linear_589_7865" x1="162" y1="123.599" x2="101.142" y2="77.0509" gradientUnits="userSpaceOnUse">
<stop stop-color="#23A32E"/>
<stop offset="1" stop-color="#68FF74"/>
</linearGradient>
<linearGradient id="paint61_linear_589_7865" x1="163.128" y1="123.286" x2="101.594" y2="77.9004" gradientUnits="userSpaceOnUse">
<stop stop-color="#23A32E"/>
<stop offset="1" stop-color="#68FF74"/>
</linearGradient>
<linearGradient id="paint62_linear_589_7865" x1="164.247" y1="122.968" x2="102.058" y2="78.7543" gradientUnits="userSpaceOnUse">
<stop stop-color="#23A32E"/>
<stop offset="1" stop-color="#68FF74"/>
</linearGradient>
<linearGradient id="paint63_linear_589_7865" x1="165.354" y1="122.646" x2="102.532" y2="79.613" gradientUnits="userSpaceOnUse">
<stop stop-color="#23A32E"/>
<stop offset="1" stop-color="#68FF74"/>
</linearGradient>
<linearGradient id="paint64_linear_589_7865" x1="166.449" y1="122.32" x2="103.017" y2="80.4763" gradientUnits="userSpaceOnUse">
<stop stop-color="#23A32E"/>
<stop offset="1" stop-color="#68FF74"/>
</linearGradient>
<linearGradient id="paint65_linear_589_7865" x1="167.534" y1="121.989" x2="103.514" y2="81.3425" gradientUnits="userSpaceOnUse">
<stop stop-color="#23A32E"/>
<stop offset="1" stop-color="#68FF74"/>
</linearGradient>
<linearGradient id="paint66_linear_589_7865" x1="168.608" y1="121.654" x2="104.022" y2="82.2135" gradientUnits="userSpaceOnUse">
<stop stop-color="#23A32E"/>
<stop offset="1" stop-color="#68FF74"/>
</linearGradient>
<linearGradient id="paint67_linear_589_7865" x1="169.673" y1="121.317" x2="104.544" y2="83.0886" gradientUnits="userSpaceOnUse">
<stop stop-color="#23A32E"/>
<stop offset="1" stop-color="#68FF74"/>
</linearGradient>
<linearGradient id="paint68_linear_589_7865" x1="170.724" y1="120.974" x2="105.075" y2="83.9652" gradientUnits="userSpaceOnUse">
<stop stop-color="#23A32E"/>
<stop offset="1" stop-color="#68FF74"/>
</linearGradient>
<linearGradient id="paint69_linear_589_7865" x1="171.765" y1="120.63" x2="105.618" y2="84.8475" gradientUnits="userSpaceOnUse">
<stop stop-color="#23A32E"/>
<stop offset="1" stop-color="#68FF74"/>
</linearGradient>
<linearGradient id="paint70_linear_589_7865" x1="172.795" y1="120.283" x2="106.173" y2="85.7321" gradientUnits="userSpaceOnUse">
<stop stop-color="#23A32E"/>
<stop offset="1" stop-color="#68FF74"/>
</linearGradient>
<linearGradient id="paint71_linear_589_7865" x1="173.813" y1="119.931" x2="106.739" y2="86.6188" gradientUnits="userSpaceOnUse">
<stop stop-color="#23A32E"/>
<stop offset="1" stop-color="#68FF74"/>
</linearGradient>
<linearGradient id="paint72_linear_589_7865" x1="174.821" y1="119.58" x2="107.317" y2="87.5099" gradientUnits="userSpaceOnUse">
<stop stop-color="#23A32E"/>
<stop offset="1" stop-color="#68FF74"/>
</linearGradient>
<linearGradient id="paint73_linear_589_7865" x1="175.818" y1="119.224" x2="107.907" y2="88.4019" gradientUnits="userSpaceOnUse">
<stop stop-color="#23A32E"/>
<stop offset="1" stop-color="#68FF74"/>
</linearGradient>
<linearGradient id="paint74_linear_589_7865" x1="176.802" y1="118.866" x2="108.508" y2="89.2961" gradientUnits="userSpaceOnUse">
<stop stop-color="#23A32E"/>
<stop offset="1" stop-color="#68FF74"/>
</linearGradient>
<linearGradient id="paint75_linear_589_7865" x1="177.776" y1="118.505" x2="109.122" y2="90.192" gradientUnits="userSpaceOnUse">
<stop stop-color="#23A32E"/>
<stop offset="1" stop-color="#68FF74"/>
</linearGradient>
<linearGradient id="paint76_linear_589_7865" x1="178.737" y1="118.144" x2="109.745" y2="91.0903" gradientUnits="userSpaceOnUse">
<stop stop-color="#23A32E"/>
<stop offset="1" stop-color="#68FF74"/>
</linearGradient>
<linearGradient id="paint77_linear_589_7865" x1="179.689" y1="117.781" x2="110.383" y2="91.9901" gradientUnits="userSpaceOnUse">
<stop stop-color="#23A32E"/>
<stop offset="1" stop-color="#68FF74"/>
</linearGradient>
<linearGradient id="paint78_linear_589_7865" x1="180.629" y1="117.416" x2="111.031" y2="92.8908" gradientUnits="userSpaceOnUse">
<stop stop-color="#23A32E"/>
<stop offset="1" stop-color="#68FF74"/>
</linearGradient>
<linearGradient id="paint79_linear_589_7865" x1="181.557" y1="117.05" x2="111.691" y2="93.7933" gradientUnits="userSpaceOnUse">
<stop stop-color="#23A32E"/>
<stop offset="1" stop-color="#68FF74"/>
</linearGradient>
<linearGradient id="paint80_linear_589_7865" x1="182.475" y1="116.685" x2="112.364" y2="94.6979" gradientUnits="userSpaceOnUse">
<stop stop-color="#23A32E"/>
<stop offset="1" stop-color="#68FF74"/>
</linearGradient>
<linearGradient id="paint81_linear_589_7865" x1="183.382" y1="116.317" x2="113.047" y2="95.6013" gradientUnits="userSpaceOnUse">
<stop stop-color="#23A32E"/>
<stop offset="1" stop-color="#68FF74"/>
</linearGradient>
<linearGradient id="paint82_linear_589_7865" x1="184.275" y1="115.948" x2="113.742" y2="96.5044" gradientUnits="userSpaceOnUse">
<stop stop-color="#23A32E"/>
<stop offset="1" stop-color="#68FF74"/>
</linearGradient>
<linearGradient id="paint83_linear_589_7865" x1="185.158" y1="115.58" x2="114.448" y2="97.4094" gradientUnits="userSpaceOnUse">
<stop stop-color="#23A32E"/>
<stop offset="1" stop-color="#68FF74"/>
</linearGradient>
<linearGradient id="paint84_linear_589_7865" x1="186.031" y1="115.212" x2="115.167" y2="98.3151" gradientUnits="userSpaceOnUse">
<stop stop-color="#23A32E"/>
<stop offset="1" stop-color="#68FF74"/>
</linearGradient>
<linearGradient id="paint85_linear_589_7865" x1="186.891" y1="114.843" x2="115.897" y2="99.2188" gradientUnits="userSpaceOnUse">
<stop stop-color="#23A32E"/>
<stop offset="1" stop-color="#68FF74"/>
</linearGradient>
<linearGradient id="paint86_linear_589_7865" x1="187.742" y1="114.475" x2="116.64" y2="100.123" gradientUnits="userSpaceOnUse">
<stop stop-color="#23A32E"/>
<stop offset="1" stop-color="#68FF74"/>
</linearGradient>
<linearGradient id="paint87_linear_589_7865" x1="188.581" y1="114.107" x2="117.393" y2="101.027" gradientUnits="userSpaceOnUse">
<stop stop-color="#23A32E"/>
<stop offset="1" stop-color="#68FF74"/>
</linearGradient>
<linearGradient id="paint88_linear_589_7865" x1="189.408" y1="113.74" x2="118.158" y2="101.93" gradientUnits="userSpaceOnUse">
<stop stop-color="#23A32E"/>
<stop offset="1" stop-color="#68FF74"/>
</linearGradient>
<linearGradient id="paint89_linear_589_7865" x1="190.224" y1="113.375" x2="118.934" y2="102.833" gradientUnits="userSpaceOnUse">
<stop stop-color="#23A32E"/>
<stop offset="1" stop-color="#68FF74"/>
</linearGradient>
<linearGradient id="paint90_linear_589_7865" x1="191.03" y1="113.009" x2="119.722" y2="103.733" gradientUnits="userSpaceOnUse">
<stop stop-color="#23A32E"/>
<stop offset="1" stop-color="#68FF74"/>
</linearGradient>
<linearGradient id="paint91_linear_589_7865" x1="191.824" y1="112.645" x2="120.521" y2="104.633" gradientUnits="userSpaceOnUse">
<stop stop-color="#23A32E"/>
<stop offset="1" stop-color="#68FF74"/>
</linearGradient>
<linearGradient id="paint92_linear_589_7865" x1="192.607" y1="112.282" x2="121.331" y2="105.53" gradientUnits="userSpaceOnUse">
<stop stop-color="#23A32E"/>
<stop offset="1" stop-color="#68FF74"/>
</linearGradient>
<linearGradient id="paint93_linear_589_7865" x1="193.38" y1="111.922" x2="122.154" y2="106.427" gradientUnits="userSpaceOnUse">
<stop stop-color="#23A32E"/>
<stop offset="1" stop-color="#68FF74"/>
</linearGradient>
<linearGradient id="paint94_linear_589_7865" x1="194.142" y1="111.563" x2="122.988" y2="107.322" gradientUnits="userSpaceOnUse">
<stop stop-color="#23A32E"/>
<stop offset="1" stop-color="#68FF74"/>
</linearGradient>
<linearGradient id="paint95_linear_589_7865" x1="194.893" y1="111.206" x2="123.833" y2="108.214" gradientUnits="userSpaceOnUse">
<stop stop-color="#23A32E"/>
<stop offset="1" stop-color="#68FF74"/>
</linearGradient>
<linearGradient id="paint96_linear_589_7865" x1="195.633" y1="110.851" x2="124.688" y2="109.103" gradientUnits="userSpaceOnUse">
<stop stop-color="#23A32E"/>
<stop offset="1" stop-color="#68FF74"/>
</linearGradient>
<linearGradient id="paint97_linear_589_7865" x1="196.362" y1="110.498" x2="125.555" y2="109.99" gradientUnits="userSpaceOnUse">
<stop stop-color="#23A32E"/>
<stop offset="1" stop-color="#68FF74"/>
</linearGradient>
<linearGradient id="paint98_linear_589_7865" x1="197.08" y1="110.148" x2="126.432" y2="110.874" gradientUnits="userSpaceOnUse">
<stop stop-color="#23A32E"/>
<stop offset="1" stop-color="#68FF74"/>
</linearGradient>
</defs>
</svg>
