<svg width="118" height="95" viewBox="0 0 118 95" fill="none" xmlns="http://www.w3.org/2000/svg">
<g opacity="0.3">
<path opacity="0.010101" d="M153.355 68.4635C154.763 66.9745 155.088 64.7709 154.187 62.9456L154.095 62.7702L117.078 -5.15727C116.097 -6.95717 114.101 -7.94662 112.086 -7.65301L111.892 -7.62115L35.849 6.59389C33.7694 6.98278 32.1768 8.66737 31.9039 10.7654L21.9251 87.4784C21.6607 89.5109 22.693 91.4846 24.4952 92.4314L24.6718 92.5194L94.5478 125.715C96.3992 126.595 98.5951 126.223 100.052 124.802L100.191 124.661L153.355 68.4635Z" stroke="url(#paint0_linear_593_13308)" stroke-width="0.791958"/>
<path opacity="0.020202" d="M154.214 67.5025C155.596 65.9893 155.883 63.781 154.95 61.9719L154.855 61.7982L116.734 -5.33857C115.722 -7.12086 113.71 -8.07605 111.701 -7.74768L111.506 -7.71158L35.8756 7.79745C33.803 8.22246 32.2394 9.93364 32.0031 12.0361L23.3819 88.7583C23.1531 90.7951 24.2204 92.7507 26.039 93.6658L26.2171 93.7506L96.5196 125.658C98.3859 126.505 100.575 126.095 102.008 124.648L102.144 124.504L154.214 67.5025Z" stroke="url(#paint1_linear_593_13308)" stroke-width="0.791958"/>
<path opacity="0.030303" d="M155.052 66.5436C156.408 65.0064 156.656 62.7927 155.691 61L155.594 60.8279L116.386 -5.50015C115.343 -7.26456 113.314 -8.18376 111.311 -7.82018L111.117 -7.78068L35.9197 9.01219C33.8551 9.47351 32.3223 11.2117 32.1227 13.3178L24.8566 90.0233C24.6633 92.0637 25.7639 94.0002 27.5979 94.8835L27.7775 94.9663L98.4838 125.58C100.365 126.395 102.546 125.945 103.953 124.474L104.088 124.329L155.052 66.5436Z" stroke="url(#paint2_linear_593_13308)" stroke-width="0.791958"/>
<path opacity="0.040404" d="M155.869 65.5851C157.198 64.0246 157.407 61.8069 156.411 60.0313L156.311 59.8609L116.033 -5.64019C114.959 -7.38598 112.915 -8.26945 110.918 -7.87121L110.725 -7.82931L35.9834 10.237C33.927 10.7341 32.424 12.4989 32.2611 14.6082L26.3466 91.2749C26.189 93.3186 27.3239 95.2356 29.1734 96.0867L29.3544 96.1653L100.441 125.482C102.336 126.263 104.509 125.777 105.89 124.281L106.021 124.133L155.869 65.5851Z" stroke="url(#paint3_linear_593_13308)" stroke-width="0.791958"/>
<path opacity="0.050505" d="M156.664 64.6276C157.965 63.044 158.136 60.8231 157.109 59.0651L157.005 58.8966L115.674 -5.76042C114.57 -7.48734 112.51 -8.336 110.521 -7.90288L110.328 -7.85664L36.0643 11.4724C34.0167 12.0053 32.5448 13.7959 32.4189 15.9079L27.8525 92.5112C27.7306 94.5571 28.8981 96.454 30.7619 97.2728L30.9452 97.3483L102.387 125.363C104.295 126.111 106.46 125.586 107.815 124.066L107.944 123.917L156.664 64.6276Z" stroke="url(#paint4_linear_593_13308)" stroke-width="0.791958"/>
<path opacity="0.0606061" d="M157.439 63.6743C158.712 62.0682 158.844 59.8446 157.786 58.1049L157.68 57.9381L115.312 -5.85799C114.178 -7.5655 112.104 -8.37819 110.122 -7.91019L109.932 -7.86055L36.1645 12.72C34.1266 13.2886 32.6861 15.1046 32.597 17.2184L29.3748 93.7346C29.2888 95.7823 30.49 97.6578 32.3678 98.4438L32.5514 98.517L104.327 125.226C106.248 125.94 108.403 125.379 109.731 123.836L109.857 123.683L157.439 63.6743Z" stroke="url(#paint5_linear_593_13308)" stroke-width="0.791958"/>
<path opacity="0.0707071" d="M158.191 62.722C159.436 61.094 159.529 58.8685 158.442 57.1474L158.332 56.9826L114.945 -5.9372C113.782 -7.62433 111.694 -8.39975 109.721 -7.89751L109.531 -7.84458L36.2834 13.9751C34.2557 14.5791 32.8472 16.4201 32.795 18.5351L30.9125 94.9406C30.862 96.9895 32.0951 98.8445 33.9862 99.5978L34.1721 99.6669L106.256 125.068C108.189 125.749 110.334 125.15 111.635 123.584L111.758 123.429L158.191 62.722Z" stroke="url(#paint6_linear_593_13308)" stroke-width="0.791958"/>
<path opacity="0.0808081" d="M158.924 61.7748C160.141 60.1254 160.194 57.8993 159.077 56.1976L158.965 56.0337L114.578 -5.99263C113.385 -7.65951 111.283 -8.39833 109.319 -7.86149L109.129 -7.80621L36.4221 15.2427C34.4052 15.882 33.029 17.7472 33.0138 19.8629L32.4662 96.1343C32.4514 98.184 33.7174 100.017 35.6217 100.737L35.8077 100.803L108.177 124.893C110.121 125.541 112.256 124.903 113.529 123.315L113.65 123.158L158.924 61.7748Z" stroke="url(#paint7_linear_593_13308)" stroke-width="0.791958"/>
<path opacity="0.0909091" d="M159.634 60.8313C160.821 59.1609 160.836 56.9334 159.69 55.2514L159.575 55.0904L114.203 -6.02774C112.982 -7.67335 110.868 -8.37618 108.914 -7.80553L108.725 -7.74597L36.5782 16.518C34.5729 17.1924 33.2294 19.0823 33.2512 21.1979L34.0331 97.3121C34.0543 99.3614 35.3512 101.172 37.2675 101.859L37.4557 101.922L110.086 124.698C112.042 125.312 114.165 124.638 115.41 123.027L115.528 122.869L159.634 60.8313Z" stroke="url(#paint8_linear_593_13308)" stroke-width="0.791958"/>
<path opacity="0.10101" d="M160.325 59.8911C161.483 58.2002 161.459 55.9728 160.283 54.311L160.165 54.1521L113.828 -6.0425C112.578 -7.66635 110.453 -8.33158 108.509 -7.72673L108.321 -7.66389L36.7547 17.8036C34.7615 18.5129 33.4512 20.425 33.5098 22.5399L35.6157 98.4736C35.6726 100.522 37.0018 102.31 38.93 102.964L39.1182 103.024L111.986 124.485C113.952 125.065 116.063 124.354 117.28 122.722L117.395 122.56L160.325 59.8911Z" stroke="url(#paint9_linear_593_13308)" stroke-width="0.791958"/>
<path opacity="0.111111" d="M160.995 58.9549C162.123 57.244 162.061 55.0174 160.856 53.3764L160.735 53.2195L113.452 -6.03549C112.174 -7.6377 110.037 -8.26555 108.104 -7.62659L107.918 -7.56149L36.9519 19.0976C34.9712 19.8416 33.6945 21.7762 33.7901 23.8898L37.2139 99.6201C37.3065 101.668 38.6659 103.432 40.605 104.052L40.7952 104.107L113.877 124.254C115.853 124.799 117.951 124.05 119.14 122.397L119.252 122.235L160.995 58.9549Z" stroke="url(#paint10_linear_593_13308)" stroke-width="0.791958"/>
<path opacity="0.121212" d="M161.642 58.0231C162.74 56.2927 162.639 54.0675 161.406 52.4478L161.282 52.2931L113.071 -6.00764C111.765 -7.5871 109.618 -8.17838 107.696 -7.50619L107.511 -7.43683L37.1648 20.3988C35.1975 21.1772 33.9548 23.134 34.0871 25.2455L38.8224 100.75C38.9508 102.796 40.3414 104.537 42.2913 105.122L42.4815 105.175L115.754 124.003C117.739 124.513 119.824 123.729 120.983 122.056L121.092 121.89L161.642 58.0231Z" stroke="url(#paint11_linear_593_13308)" stroke-width="0.791958"/>
<path opacity="0.131313" d="M162.271 57.0969C163.339 55.3476 163.199 53.1246 161.938 51.5266L161.812 51.3741L112.692 -5.9591C111.358 -7.51552 109.2 -8.0684 107.291 -7.36256L107.106 -7.28997L37.4011 21.7095C35.4476 22.5222 34.2392 24.5002 34.4085 26.6092L40.4484 101.865C40.6125 103.908 42.0327 105.623 43.992 106.175L44.1841 106.225L117.622 123.736C119.616 124.211 121.687 123.39 122.817 121.697L122.924 121.53L162.271 57.0969Z" stroke="url(#paint12_linear_593_13308)" stroke-width="0.791958"/>
<path opacity="0.141414" d="M162.878 56.1753C163.915 54.4079 163.736 52.1883 162.447 50.6127L162.318 50.4614L112.308 -5.88926C110.947 -7.42207 108.781 -7.93715 106.884 -7.19834L106.701 -7.12352L37.6538 23.0262C35.7148 23.8729 34.5412 25.8726 34.7472 27.9783L42.0844 102.962C42.284 105.002 43.7347 106.693 45.7037 107.21L45.8957 107.256L119.478 123.449C121.479 123.89 123.535 123.033 124.636 121.321L124.739 121.152L162.878 56.1753Z" stroke="url(#paint13_linear_593_13308)" stroke-width="0.791958"/>
<path opacity="0.151515" d="M163.465 55.2611C164.471 53.4757 164.253 51.2588 162.937 49.7058L162.806 49.5578L111.924 -5.79777C110.537 -7.30666 108.362 -7.78486 106.478 -7.01296L106.297 -6.93399L37.9279 24.3516C36.004 25.232 34.8654 27.251 35.1081 29.3527L43.7351 104.044C43.9703 106.08 45.4495 107.745 47.4271 108.228L47.6207 108.27L121.321 123.147C123.33 123.552 125.371 122.66 126.441 120.928L126.542 120.757L163.465 55.2611Z" stroke="url(#paint14_linear_593_13308)" stroke-width="0.791958"/>
<path opacity="0.161616" d="M164.032 54.352C165.008 52.5493 164.751 50.3365 163.408 48.8068L163.274 48.6611L111.542 -5.68528C110.128 -7.16992 107.944 -7.61003 106.074 -6.80511L105.895 -6.72311L38.2218 25.6842C36.3137 26.598 35.2113 28.6364 35.4907 30.7336L45.3994 105.109C45.6702 107.14 47.1779 108.78 49.1638 109.228L49.3572 109.267L123.155 122.827C125.17 123.197 127.195 122.269 128.235 120.518L128.332 120.347L164.032 54.352Z" stroke="url(#paint15_linear_593_13308)" stroke-width="0.791958"/>
<path opacity="0.171717" d="M164.58 53.4489C165.524 51.6294 165.229 49.4215 163.859 47.9155L163.723 47.7721L111.158 -5.55309C109.719 -7.0125 107.529 -7.41363 105.673 -6.57652L105.494 -6.49126L38.5363 27.0217C36.6444 27.9686 35.577 30.0263 35.8928 32.1182L47.0748 106.155C47.3809 108.182 48.9174 109.795 50.9106 110.208L51.1057 110.245L124.974 122.488C126.996 122.824 129.005 121.861 130.014 120.093L130.108 119.919L164.58 53.4489Z" stroke="url(#paint16_linear_593_13308)" stroke-width="0.791958"/>
<path opacity="0.181818" d="M165.108 52.5536C166.019 50.7179 165.686 48.5155 164.29 47.0336L164.151 46.8926L110.775 -5.39815C109.311 -6.83256 107.113 -7.1952 105.273 -6.32554L105.095 -6.23813L38.8698 28.3675C36.9947 29.3474 35.9642 31.423 36.3166 33.5092L48.7632 107.187C49.1046 109.208 50.6687 110.794 52.6691 111.172L52.8638 111.205L126.782 122.135C128.809 122.435 130.8 121.437 131.779 119.651L131.871 119.476L165.108 52.5536Z" stroke="url(#paint17_linear_593_13308)" stroke-width="0.791958"/>
<path opacity="0.191919" d="M165.614 51.6639C166.494 49.8125 166.122 47.6163 164.7 46.159L164.559 46.0204L110.391 -5.22366C108.902 -6.63233 106.698 -6.95758 104.873 -6.05582L104.698 -5.96455L39.223 29.7165C37.3652 30.7289 36.3703 32.8234 36.7591 34.9031L50.4611 108.2C50.8378 110.214 52.4295 111.773 54.436 112.116L54.6321 112.145L128.576 121.763C130.608 122.028 132.582 120.995 133.529 119.193L133.617 119.017L165.614 51.6639Z" stroke="url(#paint18_linear_593_13308)" stroke-width="0.791958"/>
<path opacity="0.20202" d="M166.103 50.7835C166.95 48.9173 166.54 46.7286 165.093 45.2964L164.95 45.1593L110.01 -5.02738C108.496 -6.40943 106.288 -6.69548 104.479 -5.76235L104.305 -5.66785L39.5971 31.074C37.7573 32.1187 36.7999 34.2291 37.2248 36.3016L52.173 109.197C52.5849 111.205 54.2032 112.734 56.2154 113.042L56.4112 113.069L130.357 121.378C132.394 121.607 134.349 120.54 135.265 118.722L135.35 118.543L166.103 50.7835Z" stroke="url(#paint19_linear_593_13308)" stroke-width="0.791958"/>
<path opacity="0.212121" d="M166.572 49.9098C167.386 48.029 166.938 45.847 165.466 44.4402L165.32 44.3066L109.63 -4.81163C108.093 -6.16747 105.879 -6.41464 104.086 -5.44975L103.914 -5.35339L39.9914 32.4343C38.1701 33.5109 37.2487 35.6378 37.7098 37.7027L53.8938 110.173C54.3405 112.174 55.9858 113.675 58.0029 113.949L58.2 113.971L132.126 120.974C134.166 121.167 136.102 120.066 136.986 118.232L137.068 118.053L166.572 49.9098Z" stroke="url(#paint20_linear_593_13308)" stroke-width="0.791958"/>
<path opacity="0.222222" d="M167.022 49.0441C167.804 47.1493 167.317 44.9755 165.821 43.5946L165.673 43.4636L109.252 -4.57414C107.691 -5.90278 105.474 -6.1122 103.698 -5.11659L103.528 -5.01607L40.4058 33.7993C38.6037 34.9076 37.7206 37.0502 38.2175 39.1066L55.6276 111.134C56.1092 113.126 57.7801 114.599 59.802 114.837L59.9984 114.856L133.88 120.555C135.924 120.713 137.841 119.579 138.692 117.729L138.771 117.549L167.022 49.0441Z" stroke="url(#paint21_linear_593_13308)" stroke-width="0.791958"/>
<path opacity="0.232323" d="M167.453 48.1876C168.201 46.2794 167.677 44.1145 166.158 42.7598L166.007 42.6315L108.876 -4.31547C107.293 -5.61677 105.071 -5.78736 103.314 -4.76067L103.145 -4.65719L40.8414 35.1702C39.0588 36.3098 38.2122 38.4676 38.7451 40.5151L57.3705 112.077C57.8868 114.061 59.5833 115.504 61.6088 115.707L61.8065 115.722L135.621 120.122C137.667 120.244 139.564 119.077 140.382 117.213L140.459 117.03L167.453 48.1876Z" stroke="url(#paint22_linear_593_13308)" stroke-width="0.791958"/>
<path opacity="0.242424" d="M167.866 47.3395C168.581 45.4186 168.019 43.2631 166.476 41.9352L166.323 41.8095L108.503 -4.03721C106.896 -5.31067 104.673 -5.44175 102.933 -4.38432L102.767 -4.27817L41.2962 36.5441C39.5337 37.7146 38.7261 39.8875 39.2947 41.9255L59.1242 113.001C59.675 114.975 61.3963 116.389 63.4252 116.556L63.6225 116.569L137.348 119.674C139.396 119.76 141.272 118.559 142.058 116.681L142.131 116.497L167.866 47.3395Z" stroke="url(#paint23_linear_593_13308)" stroke-width="0.791958"/>
<path opacity="0.252525" d="M168.258 46.4993C168.94 44.5661 168.34 42.4208 166.774 41.1201L166.619 40.997L108.131 -3.73879C106.503 -4.98391 104.278 -5.07628 102.557 -3.98891L102.391 -3.88054L41.7714 37.9211C40.0297 39.1221 39.259 41.3082 39.8629 43.3358L60.8858 113.907C61.4709 115.871 63.2169 117.254 65.2482 117.386L65.4463 117.394L139.059 119.208C141.108 119.259 142.963 118.026 143.716 116.135L143.785 115.949L168.258 46.4993Z" stroke="url(#paint24_linear_593_13308)" stroke-width="0.791958"/>
<path opacity="0.262626" d="M168.634 45.6691C169.281 43.7243 168.644 41.5897 167.056 40.3165L166.899 40.1962L107.764 -3.41966C106.115 -4.63632 103.887 -4.69048 102.185 -3.5731L102.023 -3.46123L42.2671 39.3021C40.5467 40.5334 39.815 42.7323 40.4543 44.7491L62.6587 114.794C63.2781 116.748 65.0477 118.101 67.0812 118.197L67.2785 118.202L140.758 118.73C142.807 118.744 144.64 117.479 145.36 115.574L145.426 115.389L168.634 45.6691Z" stroke="url(#paint25_linear_593_13308)" stroke-width="0.791958"/>
<path opacity="0.272727" d="M168.992 44.8486C169.605 42.8931 168.931 40.7707 167.321 39.5254L167.162 39.4078L107.4 -3.0808C105.73 -4.26819 103.503 -4.28279 101.821 -3.13625L101.66 -3.02124L42.7843 40.6849C41.0856 41.9459 40.3917 44.1577 41.066 46.1629L64.4402 115.664C65.0936 117.606 66.8866 118.927 68.9211 118.988L69.1197 118.99L142.441 118.236C144.49 118.215 146.301 116.919 146.988 115.002L147.051 114.815L168.992 44.8486Z" stroke="url(#paint26_linear_593_13308)" stroke-width="0.791958"/>
<path opacity="0.282828" d="M169.33 44.0391C169.909 42.073 169.198 39.962 167.567 38.7449L167.406 38.6301L107.04 -2.72111C105.349 -3.87946 103.122 -3.85491 101.46 -2.67885L101.301 -2.56197L43.3202 42.0714C41.6437 43.362 40.9893 45.5851 41.6986 47.5783L66.2298 116.513C66.917 118.444 68.7328 119.734 70.7684 119.76L70.9661 119.759L144.108 117.73C146.157 117.673 147.944 116.345 148.598 114.417L148.658 114.227L169.33 44.0391Z" stroke="url(#paint27_linear_593_13308)" stroke-width="0.791958"/>
<path opacity="0.292929" d="M169.651 43.2389C170.196 41.263 169.448 39.1647 167.795 37.9763L167.632 37.8644L106.684 -2.34108C104.973 -3.46975 102.746 -3.40733 101.105 -2.20235L100.949 -2.08213L43.8766 43.4588C42.2229 44.7784 41.6068 47.0138 42.3508 48.9944L68.0268 117.346C68.7477 119.264 70.5863 120.522 72.6223 120.512L72.8196 120.507L145.76 117.209C147.808 117.117 149.572 115.757 150.191 113.817L150.248 113.628L169.651 43.2389Z" stroke="url(#paint28_linear_593_13308)" stroke-width="0.791958"/>
<path opacity="0.30303" d="M169.955 42.4497C170.465 40.4646 169.681 38.3797 168.007 37.2203L167.843 37.1112L106.332 -1.94158C104.602 -3.03982 102.377 -2.938 100.758 -1.70495L100.603 -1.58167L44.4539 44.8496C42.8236 46.1979 42.2472 48.4425 43.0255 50.4097L69.8337 118.159C70.5879 120.065 72.4475 121.291 74.4828 121.245L74.6799 121.236L147.397 116.675C149.443 116.547 151.183 115.157 151.768 113.207L151.821 113.017L169.955 42.4497Z" stroke="url(#paint29_linear_593_13308)" stroke-width="0.791958"/>
<path opacity="0.313131" d="M170.242 41.6713C170.718 39.6775 169.897 37.6066 168.204 36.4767L168.037 36.3705L105.988 -1.52182C104.238 -2.5901 102.015 -2.44907 100.417 -1.18757L100.265 -1.06288L45.0532 46.2413C43.4465 47.6179 42.9084 49.8725 43.7211 51.8259L71.6477 118.953C72.435 120.845 74.3165 122.038 76.3508 121.957L76.5481 121.945L149.02 116.129C151.063 115.965 152.779 114.544 153.33 112.584L153.379 112.393L170.242 41.6713Z" stroke="url(#paint30_linear_593_13308)" stroke-width="0.791958"/>
<path opacity="0.323232" d="M170.511 40.9038C170.952 38.9021 170.096 36.8458 168.383 35.7456L168.214 35.6423L105.646 -1.08219C103.879 -2.11965 101.659 -1.94082 100.083 -0.652056L99.9326 -0.52344L45.6703 47.6334C44.0881 49.0377 43.5904 51.3011 44.4368 53.24L73.4689 119.728C74.2891 121.606 76.1904 122.766 78.2228 122.65L78.4196 122.634L150.624 115.568C152.664 115.369 154.355 113.919 154.872 111.95L154.919 111.758L170.511 40.9038Z" stroke="url(#paint31_linear_593_13308)" stroke-width="0.791958"/>
<path opacity="0.333333" d="M170.764 40.149C171.169 38.1402 170.277 36.0998 168.546 35.0296L168.375 34.9285L105.312 -0.622161C103.526 -1.62869 101.309 -1.41092 99.7561 -0.0945952L99.6078 0.0366287L46.3093 49.0278C44.7516 50.4596 44.2926 52.7316 45.173 54.6555L75.2963 120.485C76.1493 122.349 78.0712 123.476 80.1015 123.323L80.2979 123.304L152.214 114.998C154.25 114.763 155.915 113.284 156.398 111.306L156.441 111.112L170.764 40.149Z" stroke="url(#paint32_linear_593_13308)" stroke-width="0.791958"/>
<path opacity="0.343434" d="M171 39.4032C171.37 37.3874 170.442 35.3622 168.692 34.3223L168.52 34.2251L104.982 -0.146908C103.179 -1.12209 100.966 -0.865022 99.4364 0.47842L99.2913 0.61179L46.9669 50.4184C45.4345 51.8772 45.0165 54.1573 45.9303 56.0655L77.1309 121.219C78.0162 123.068 79.9566 124.16 81.9835 123.973L82.18 123.951L153.787 114.411C155.819 114.14 157.458 112.632 157.906 110.646L157.945 110.453L171 39.4032Z" stroke="url(#paint33_linear_593_13308)" stroke-width="0.791958"/>
<path opacity="0.353535" d="M171.219 38.6715C171.554 36.6495 170.591 34.6408 168.823 33.6317L168.65 33.5374L104.659 0.351607C102.839 -0.59189 100.632 -0.296472 99.1259 1.07318L98.9819 1.20863L47.6465 51.8125C46.1398 53.2977 45.7604 55.5845 46.7072 57.4764L78.9707 121.937C79.8881 123.77 81.8482 124.829 83.8719 124.606L84.068 124.581L155.343 113.815C157.37 113.509 158.982 111.973 159.396 109.979L159.432 109.785L171.219 38.6715Z" stroke="url(#paint34_linear_593_13308)" stroke-width="0.791958"/>
<path opacity="0.363636" d="M171.423 37.9526C171.723 35.9251 170.725 33.9335 168.94 32.9554L168.765 32.8642L104.344 0.869378C102.508 -0.0423492 100.305 0.291113 98.8233 1.68699L98.6821 1.82579L48.3462 53.2072C46.8658 54.7185 46.527 57.0111 47.5068 58.8862L80.8185 122.636C81.7677 124.453 83.7453 125.478 85.7647 125.219L85.9598 125.19L156.884 113.209C158.905 112.868 160.49 111.303 160.869 109.303L160.902 109.107L171.423 37.9526Z" stroke="url(#paint35_linear_593_13308)" stroke-width="0.791958"/>
<path opacity="0.373737" d="M171.611 37.2434C171.875 35.2109 170.843 33.2371 169.041 32.2903L168.864 32.2022L104.034 1.40282C102.183 0.523553 99.9871 0.895885 98.5298 2.31704L98.391 2.45829L49.0657 54.5969C47.6118 56.1337 47.3125 58.4324 48.3247 60.2902L82.67 123.314C83.6509 125.113 85.6467 126.103 87.6614 125.81L87.856 125.777L158.408 112.588C160.422 112.212 161.98 110.619 162.323 108.613L162.353 108.418L171.611 37.2434Z" stroke="url(#paint36_linear_593_13308)" stroke-width="0.791958"/>
<path opacity="0.383838" d="M171.782 36.5499C172.01 34.5131 170.944 32.5576 169.125 31.6424L168.947 31.5574L103.731 1.95838C101.865 1.11129 99.6757 1.52228 98.2433 2.969L98.1065 3.1118L49.8037 55.9897C48.3769 57.5518 48.1184 59.8548 49.163 61.6946L84.5259 123.973C85.5379 125.756 87.5501 126.711 89.5592 126.382L89.7537 126.347L159.912 111.96C161.92 111.548 163.45 109.929 163.758 107.917L163.785 107.72L171.782 36.5499Z" stroke="url(#paint37_linear_593_13308)" stroke-width="0.791958"/>
<path opacity="0.393939" d="M171.939 35.867C172.132 33.8267 171.032 31.8908 169.198 31.0074L169.017 30.9247L103.438 2.53056C101.557 1.71614 99.3745 2.16437 97.9676 3.63597L97.8347 3.78148L50.5647 57.3781C49.1652 58.9649 48.9461 61.2724 50.0228 63.0938L86.3881 124.612C87.4312 126.377 89.4604 127.296 91.4636 126.932L91.657 126.893L161.403 111.318C163.403 110.871 164.904 109.225 165.177 107.208L165.2 107.012L171.939 35.867Z" stroke="url(#paint38_linear_593_13308)" stroke-width="0.791958"/>
<path opacity="0.40404" d="M172.081 35.1985C172.239 33.155 171.104 31.2379 169.255 30.3867L169.074 30.308L103.151 3.1216C101.256 2.34019 99.0829 2.82615 97.7019 4.3218L97.5707 4.47012L51.3433 58.7647C49.9719 60.3756 49.794 62.6863 50.9021 64.4885L88.2547 125.231C89.3284 126.977 91.3727 127.862 93.3691 127.463L93.5617 127.42L162.874 110.666C164.866 110.185 166.339 108.514 166.577 106.492L166.596 106.295L172.081 35.1985Z" stroke="url(#paint39_linear_593_13308)" stroke-width="0.791958"/>
<path opacity="0.414141" d="M172.208 34.5436C172.33 32.4976 171.163 30.6006 169.299 29.7818L169.116 29.7063L102.874 3.73041C100.966 2.98215 98.8007 3.50711 97.4461 5.02688L97.3175 5.17746L52.144 60.1503C50.8007 61.785 50.6624 64.0988 51.8019 65.8814L90.1253 125.832C91.2294 127.559 93.289 128.406 95.2781 127.973L95.4705 127.928L164.329 110.006C166.312 109.49 167.755 107.793 167.958 105.768L167.974 105.57L172.208 34.5436Z" stroke="url(#paint40_linear_593_13308)" stroke-width="0.791958"/>
<path opacity="0.424242" d="M172.32 33.9032C172.406 31.8554 171.206 29.9791 169.328 29.1929L169.144 29.1206L102.604 4.35946C100.683 3.64466 98.5282 4.20703 97.2003 5.74992L97.0738 5.90191L52.9621 61.5339C51.6477 63.1917 51.551 65.5079 52.7215 67.2703L91.9989 126.413C93.1328 128.12 95.2068 128.933 97.188 128.465L97.3796 128.416L165.766 109.337C167.74 108.786 169.153 107.064 169.321 105.035L169.333 104.838L172.32 33.9032Z" stroke="url(#paint41_linear_593_13308)" stroke-width="0.791958"/>
<path opacity="0.434343" d="M172.418 33.2756C172.468 31.2265 171.235 29.3715 169.344 28.6183L169.158 28.5491L102.343 5.00522C100.41 4.32404 98.2645 4.92301 96.9637 6.48896L96.8404 6.64394L53.8014 62.9137C52.5161 64.5942 52.4586 66.9114 53.6596 68.6532L93.8756 126.974C95.0393 128.662 97.1276 129.437 99.1006 128.935L99.2907 128.882L167.185 108.657C169.149 108.072 170.532 106.326 170.664 104.294L170.673 104.097L172.418 33.2756Z" stroke="url(#paint42_linear_593_13308)" stroke-width="0.791958"/>
<path opacity="0.444444" d="M172.502 32.6614C172.517 30.6118 171.252 28.7785 169.348 28.0585L169.161 27.9926L102.092 5.66657C100.147 5.0193 98.0128 5.65672 96.7396 7.24533L96.6199 7.40187L54.6608 64.29C53.4052 65.9927 53.3887 68.3101 54.6199 70.0305L95.7573 127.515C96.9502 129.181 99.0512 129.921 101.015 129.384L101.204 129.328L168.588 107.968C170.541 107.348 171.894 105.578 171.99 103.544L171.995 103.347L172.502 32.6614Z" stroke="url(#paint43_linear_593_13308)" stroke-width="0.791958"/>
<path opacity="0.454545" d="M172.571 32.0633C172.55 30.0141 171.254 28.2038 169.337 27.5169L169.149 27.4535L101.849 6.34846C99.8931 5.73526 97.7707 6.40949 96.5254 8.01981L96.4071 8.17822L55.5378 65.663C54.3119 67.3873 54.3354 69.7052 55.5964 71.404L97.6382 128.037C98.86 129.683 100.974 130.385 102.928 129.814L103.117 129.755L169.969 107.271C171.912 106.618 173.233 104.825 173.294 102.79L173.296 102.593L172.571 32.0633Z" stroke="url(#paint44_linear_593_13308)" stroke-width="0.791958"/>
<path opacity="0.464646" d="M172.629 31.4784C172.573 29.4297 171.244 27.6417 169.316 26.9884L169.127 26.929L101.618 7.04479C99.6516 6.4657 97.5401 7.17664 96.323 8.80861L96.2081 8.96983L56.436 67.0313C55.2405 68.7768 55.305 71.0933 56.5955 72.7698L99.5246 128.537C100.775 130.161 102.9 130.827 104.844 130.222L105.031 130.16L171.335 106.565C173.266 105.878 174.556 104.062 174.582 102.026L174.58 101.828L172.629 31.4784Z" stroke="url(#paint45_linear_593_13308)" stroke-width="0.791958"/>
<path opacity="0.474747" d="M172.674 30.9101C172.582 28.8626 171.222 27.0981 169.283 26.4786L169.093 26.4225L101.396 7.76058C99.4201 7.21614 97.3224 7.96413 96.1341 9.61669L96.0219 9.7799L57.354 68.3965C56.189 70.1626 56.2938 72.4789 57.6135 74.1327L101.412 129.021C102.691 130.623 104.828 131.251 106.761 130.612L106.947 130.546L172.685 105.853C174.603 105.132 175.861 103.293 175.851 101.257L175.846 101.06L172.674 30.9101Z" stroke="url(#paint46_linear_593_13308)" stroke-width="0.791958"/>
<path opacity="0.484848" d="M172.704 30.3555C172.576 28.3099 171.186 26.5693 169.236 25.9838L169.046 25.9311L101.183 8.49268C99.1979 7.98277 97.1137 8.76704 95.9544 10.4403L95.8445 10.6047L58.2893 69.7572C57.1555 71.5432 57.3008 73.8562 58.649 75.4866L103.301 129.483C104.607 131.063 106.754 131.653 108.675 130.981L108.861 130.912L174.012 105.132C175.918 104.377 177.144 102.518 177.098 100.482L177.09 100.285L172.704 30.3555Z" stroke="url(#paint47_linear_593_13308)" stroke-width="0.791958"/>
<path opacity="0.494949" d="M172.722 29.8152C172.558 27.7721 171.138 26.0561 169.178 25.5047L168.987 25.4553L100.982 9.2399C98.988 8.76447 96.9173 9.5855 95.7874 11.2792L95.6811 11.4448L59.2448 71.1114C58.1421 72.9171 58.3271 75.2276 59.7037 76.8343L105.189 129.925C106.523 131.481 108.681 132.034 110.591 131.328L110.775 131.257L175.323 104.402C177.216 103.615 178.409 101.734 178.328 99.7002L178.315 99.5025L172.722 29.8152Z" stroke="url(#paint48_linear_593_13308)" stroke-width="0.791958"/>
<path opacity="0.50505" d="M172.728 29.2929C172.529 27.253 171.079 25.562 169.11 25.0449L168.918 24.9989L100.792 10.0067C98.7899 9.56617 96.7338 10.4222 95.6335 12.1349L95.5301 12.3037L60.2185 72.4627C59.1477 74.2872 59.3738 76.5937 60.7779 78.1761L107.081 130.349C108.441 131.882 110.608 132.398 112.505 131.659L112.687 131.584L176.616 103.67C178.494 102.849 179.654 100.947 179.537 98.9149L179.522 98.7182L172.728 29.2929Z" stroke="url(#paint49_linear_593_13308)" stroke-width="0.791958"/>
<path opacity="0.515152" d="M172.723 28.7843C172.488 26.7481 171.009 25.0826 169.031 24.6001L168.838 24.5574L100.613 10.7864C98.6035 10.3808 96.5626 11.2738 95.4925 13.0057L95.392 13.1763L61.2126 73.8067C60.1736 75.6498 60.4391 77.9524 61.8709 79.5101L108.972 130.753C110.36 132.262 112.536 132.739 114.419 131.967L114.6 131.888L177.89 102.928C179.753 102.075 180.88 100.153 180.728 98.1233L180.709 97.9255L172.723 28.7843Z" stroke="url(#paint50_linear_593_13308)" stroke-width="0.791958"/>
<path opacity="0.525253" d="M172.706 28.2922C172.435 26.2606 170.927 24.6213 168.941 24.1731L168.747 24.1338L100.444 11.5834C98.4286 11.2131 96.4043 12.1411 95.3644 13.8911L95.2663 14.0627L62.2234 75.1447C61.2168 77.0056 61.5238 79.3034 62.9825 80.8358L110.863 131.136C112.276 132.62 114.46 133.06 116.33 132.255L116.51 132.174L179.145 102.179C180.994 101.294 182.086 99.3529 181.899 97.3257L181.877 97.1297L172.706 28.2922Z" stroke="url(#paint51_linear_593_13308)" stroke-width="0.791958"/>
<path opacity="0.535354" d="M172.677 27.8158C172.371 25.7892 170.835 24.1765 168.841 23.7631L168.647 23.7271L100.288 12.3967C98.2663 12.0616 96.2579 13.024 95.2487 14.792L95.1543 14.966L63.2545 76.4771C62.2805 78.3553 62.6263 80.6473 64.1115 82.1541L112.755 131.501C114.194 132.961 116.385 133.362 118.241 132.524L118.419 132.439L180.381 101.426C182.214 100.509 183.273 98.5491 183.05 96.5256L183.025 96.33L172.677 27.8158Z" stroke="url(#paint52_linear_593_13308)" stroke-width="0.791958"/>
<path opacity="0.545455" d="M172.637 27.3556C172.296 25.3347 170.732 23.7489 168.731 23.3704L168.536 23.3379L100.144 13.2241C98.1163 12.9244 96.1249 13.9228 95.1469 15.7084L95.0561 15.8833L64.3031 77.8037C63.3623 79.6985 63.7484 81.9836 65.2597 83.4641L114.646 131.846C116.11 133.28 118.307 133.643 120.148 132.774L120.325 132.686L181.6 100.667C183.416 99.7177 184.441 97.7401 184.183 95.7209L184.153 95.5251L172.637 27.3556Z" stroke="url(#paint53_linear_593_13308)" stroke-width="0.791958"/>
<path opacity="0.555556" d="M172.587 26.9108C172.211 24.896 170.619 23.3378 168.612 22.9943L168.417 22.9652L100.012 14.0672C97.9796 13.8029 96.0066 14.8355 95.0598 16.6375L94.9707 16.8141L65.3703 79.121C64.4624 81.032 64.8881 83.3106 66.4249 84.7646L116.536 132.171C118.025 133.579 120.228 133.903 122.053 133.002L122.229 132.911L182.8 99.9027C184.599 98.9219 185.589 96.9261 185.295 94.9115L185.263 94.7169L172.587 26.9108Z" stroke="url(#paint54_linear_593_13308)" stroke-width="0.791958"/>
<path opacity="0.565657" d="M172.526 26.4838C172.114 24.4759 170.495 22.9458 168.483 22.6374L168.287 22.6117L99.8923 14.926C97.8555 14.6972 95.8995 15.764 94.9843 17.5825L94.8991 17.7612L66.4547 80.4341C65.5806 82.3606 66.0463 84.6308 67.6083 86.0577L118.423 132.477C119.937 133.859 122.146 134.146 123.955 133.212L124.129 133.119L183.979 99.1344C185.761 98.1224 186.716 96.1101 186.387 94.1011L186.352 93.9064L172.526 26.4838Z" stroke="url(#paint55_linear_593_13308)" stroke-width="0.791958"/>
<path opacity="0.575758" d="M172.454 26.071C172.007 24.0707 170.362 22.5689 168.344 22.2957L168.148 22.2735L99.7843 15.7979C97.7437 15.6046 95.8067 16.7051 94.9235 18.5395L94.842 18.719L67.5567 81.7359C66.716 83.6775 67.2215 85.9404 68.8083 87.3399L120.309 132.762C121.847 134.118 124.061 134.365 125.853 133.401L126.025 133.303L185.14 98.3591C186.904 97.316 187.823 95.2871 187.46 93.2839L187.421 93.0906L172.454 26.071Z" stroke="url(#paint56_linear_593_13308)" stroke-width="0.791958"/>
<path opacity="0.585859" d="M172.374 25.677C171.892 23.685 170.222 22.2128 168.2 21.9746L168.003 21.9558L99.6904 16.6855C97.6471 16.528 95.7307 17.6624 94.8795 19.5115L94.8006 19.6931L68.6784 83.0333C67.872 84.9891 68.4167 87.2417 70.0275 88.6132L122.196 133.03C123.757 134.358 125.974 134.568 127.75 133.572L127.92 133.472L186.283 97.5819C188.029 96.5082 188.913 94.464 188.514 92.4676L188.472 92.2749L172.374 25.677Z" stroke="url(#paint57_linear_593_13308)" stroke-width="0.791958"/>
<path opacity="0.59596" d="M172.284 25.3015C171.767 23.318 170.071 21.8747 168.045 21.6719L167.848 21.6565L99.609 17.5883C97.5628 17.4663 95.6662 18.6345 94.8475 20.4986L94.7716 20.6801L69.8162 84.3229C69.0438 86.2926 69.6272 88.5359 71.2619 89.8792L124.077 133.279C125.66 134.581 127.882 134.751 129.64 133.724L129.809 133.621L187.406 96.8017C189.133 95.6977 189.981 93.6383 189.548 91.6493L189.502 91.4568L172.284 25.3015Z" stroke="url(#paint58_linear_593_13308)" stroke-width="0.791958"/>
<path opacity="0.606061" d="M172.184 24.9404C171.634 22.9662 169.912 21.5527 167.883 21.3853L167.686 21.3734L99.5414 18.5039C97.4937 18.4176 95.6175 19.6178 94.8313 21.4954L94.7587 21.6797L70.9712 85.6024C70.2335 87.5851 70.8567 89.8173 72.5142 91.1318L125.958 133.508C127.564 134.781 129.787 134.913 131.527 133.856L131.693 133.75L188.511 96.017C190.218 94.8831 191.03 92.8087 190.562 90.8274L190.513 90.6363L172.184 24.9404Z" stroke="url(#paint59_linear_593_13308)" stroke-width="0.791958"/>
<path opacity="0.616162" d="M172.076 24.5966C171.491 22.6322 169.745 21.249 167.714 21.1171L167.516 21.1086L99.487 19.4318C97.438 19.3814 95.5832 20.6152 94.83 22.5065L94.7607 22.692L72.1445 86.8731C71.4414 88.8686 72.1027 91.0902 73.7832 92.3756L127.835 133.718C129.463 134.963 131.689 135.056 133.41 133.968L133.574 133.859L189.596 95.2288C191.283 94.0653 192.059 91.9775 191.557 90.0047L191.505 89.8138L172.076 24.5966Z" stroke="url(#paint60_linear_593_13308)" stroke-width="0.791958"/>
<path opacity="0.626263" d="M171.96 24.2706C171.34 22.3167 169.571 20.9642 167.537 20.8678L167.339 20.8627L99.4467 20.3752C97.397 20.3605 95.5641 21.6262 94.8441 23.5307L94.7778 23.716L73.3337 88.1357C72.6656 90.1431 73.3669 92.3527 75.0695 93.6085L129.709 133.909C131.359 135.126 133.585 135.179 135.287 134.062L135.45 133.951L190.663 94.4382C192.33 93.2454 193.069 91.1443 192.533 89.1807L192.476 88.9909L171.96 24.2706Z" stroke="url(#paint61_linear_593_13308)" stroke-width="0.791958"/>
<path opacity="0.636364" d="M171.836 23.9616C171.182 22.0189 169.389 20.6974 167.354 20.6365L167.157 20.6349L99.4213 21.3313C97.3718 21.3524 95.561 22.649 94.8742 24.5653L94.8114 24.7531L74.5418 89.3886C73.9087 91.4073 74.6473 93.6045 76.3715 94.8305L131.58 134.082C133.25 135.269 135.478 135.284 137.16 134.137L137.322 134.023L191.712 93.6457C193.358 92.424 194.059 90.3099 193.489 88.3558L193.429 88.1676L171.836 23.9616Z" stroke="url(#paint62_linear_593_13308)" stroke-width="0.791958"/>
<path opacity="0.646465" d="M171.703 23.6703C171.016 21.7396 169.2 20.4501 167.165 20.4245L166.966 20.4258L99.4083 22.2991C97.3594 22.3561 95.5717 23.6852 94.9186 25.6133L94.8596 25.8014L75.7644 90.6329C75.167 92.6623 75.9441 94.8457 77.6894 96.0413L133.446 134.235C135.137 135.393 137.364 135.37 139.026 134.194L139.185 134.076L192.74 92.85C194.364 91.5997 195.03 89.4742 194.425 87.5304L194.362 87.3427L171.703 23.6703Z" stroke="url(#paint63_linear_593_13308)" stroke-width="0.791958"/>
<path opacity="0.656566" d="M171.562 23.3974C170.842 21.4787 169.003 20.2207 166.968 20.2307L166.77 20.236L99.4094 23.2811C97.362 23.3738 95.5982 24.7333 94.9787 26.6723L94.9217 26.8617L77.0027 91.8663C76.4405 93.9059 77.2554 96.076 79.0212 97.2411L135.307 134.371C137.018 135.5 139.245 135.436 140.886 134.231L141.043 134.111L193.749 92.0541C195.351 90.7756 195.978 88.6385 195.34 86.7055L195.274 86.5194L171.562 23.3974Z" stroke="url(#paint64_linear_593_13308)" stroke-width="0.791958"/>
<path opacity="0.666667" d="M171.415 23.1403C170.661 21.2345 168.801 20.0088 166.766 20.0543L166.568 20.0631L99.4265 24.2734C97.3808 24.4017 95.6406 25.7924 95.0552 27.7422L95.0014 27.9325L78.2589 93.089C77.7323 95.1382 78.5848 97.2937 80.3709 98.4277L137.165 134.486C138.895 135.584 141.12 135.483 142.74 134.25L142.895 134.127L194.738 91.2553C196.318 89.9491 196.909 87.8017 196.237 85.8801L196.168 85.6945L171.415 23.1403Z" stroke="url(#paint65_linear_593_13308)" stroke-width="0.791958"/>
<path opacity="0.676768" d="M171.261 22.9019C170.473 21.0095 168.592 19.8163 166.558 19.8975L166.361 19.9097L99.4576 25.2793C97.4144 25.4432 95.698 26.8635 95.1467 28.8234L95.0976 29.0143L79.5302 94.3031C79.0396 96.3611 79.9295 98.5015 81.7351 99.6041L139.017 134.585C140.766 135.653 142.99 135.512 144.588 134.251L144.74 134.125L195.71 90.4559C197.267 89.1223 197.82 86.9649 197.114 85.0554L197.041 84.8713L171.261 22.9019Z" stroke="url(#paint66_linear_593_13308)" stroke-width="0.791958"/>
<path opacity="0.686869" d="M171.101 22.6817C170.281 20.8033 168.38 19.6431 166.347 19.7598L166.15 19.7754L99.5044 26.2968C97.4648 26.4965 95.7745 27.9464 95.2574 29.9152L95.2111 30.1078L80.8186 95.5056C80.3639 97.5719 81.2911 99.6963 83.1157 100.767L140.866 134.665C142.634 135.702 144.854 135.523 146.43 134.234L146.58 134.105L196.664 89.6571C198.197 88.2965 198.712 86.1294 197.973 84.2324L197.898 84.0501L171.101 22.6817Z" stroke="url(#paint67_linear_593_13308)" stroke-width="0.791958"/>
<path opacity="0.69697" d="M170.934 22.4774C170.081 20.6136 168.16 19.4867 166.13 19.6389L165.933 19.658L99.5661 27.3234C97.5298 27.5585 95.8649 29.0383 95.3823 31.0162L95.3386 31.2091L82.1212 96.6967C81.7026 98.7706 82.6667 100.879 84.5097 101.918L142.708 134.726C144.493 135.732 146.71 135.513 148.262 134.197L148.411 134.066L197.597 88.8555C199.106 87.4685 199.584 85.2929 198.812 83.4093L198.734 83.2274L170.934 22.4774Z" stroke="url(#paint68_linear_593_13308)" stroke-width="0.791958"/>
<path opacity="0.707071" d="M170.761 22.2935C169.876 20.4452 167.936 19.3525 165.909 19.5398L165.712 19.5619L99.6429 28.3644C97.6114 28.635 95.972 30.1428 95.5238 32.1284L95.4844 32.3225L83.4391 97.8778C83.0567 99.9588 84.0583 102.05 85.9192 103.057L144.544 134.77C146.346 135.745 148.559 135.488 150.089 134.145L150.235 134.012L198.512 88.056C199.997 86.6427 200.436 84.459 199.631 82.589L199.55 82.4094L170.761 22.2935Z" stroke="url(#paint69_linear_593_13308)" stroke-width="0.791958"/>
<path opacity="0.717172" d="M170.584 22.1274C169.667 20.2946 167.707 19.2356 165.683 19.4583L165.487 19.4842L99.7346 29.4141C97.708 29.7202 96.0956 31.2574 95.6823 33.2507L95.6462 33.4454L84.7722 99.0481C84.4263 101.135 85.4634 103.208 87.3415 104.182L146.373 134.797C148.193 135.74 150.401 135.444 151.907 134.075L152.05 133.939L199.408 87.2564C200.867 85.8175 201.269 83.6268 200.432 81.7711L200.347 81.5921L170.584 22.1274Z" stroke="url(#paint70_linear_593_13308)" stroke-width="0.791958"/>
<path opacity="0.727273" d="M170.4 21.9781C169.451 20.1615 167.473 19.1369 165.454 19.3949L165.258 19.4243L99.8419 30.4749C97.8207 30.8163 96.2354 32.3812 95.8571 34.3816L95.824 34.5756L86.1202 100.205C85.8107 102.298 86.8838 104.353 88.7787 105.294L148.197 134.804C150.032 135.716 152.235 135.382 153.717 133.986L153.858 133.847L200.285 86.4563C201.719 84.9922 202.082 82.7947 201.213 80.954L201.124 80.7769L170.4 21.9781Z" stroke="url(#paint71_linear_593_13308)" stroke-width="0.791958"/>
<path opacity="0.737374" d="M170.212 21.8487C169.231 20.0489 167.236 19.0589 165.221 19.3523L165.026 19.385L99.9656 31.5476C97.9509 31.9242 96.3928 33.5156 96.0491 35.522L96.0199 35.7179L87.4822 101.353C87.2093 103.451 88.3182 105.486 90.2291 106.394L150.014 134.797C151.865 135.676 154.061 135.303 155.518 133.882L155.657 133.741L201.144 85.6599C202.552 84.1709 202.876 81.9671 201.975 80.1418L201.884 79.9667L170.212 21.8487Z" stroke="url(#paint72_linear_593_13308)" stroke-width="0.791958"/>
<path opacity="0.747475" d="M170.02 21.7359C169.008 19.9535 166.996 18.9985 164.986 19.327L164.792 19.3632L100.106 32.6278C98.0983 33.0396 96.5678 34.6585 96.2593 36.6709L96.2335 36.8672L88.8604 102.486C88.6241 104.589 89.7682 106.604 91.6948 107.479L151.824 134.769C153.69 135.616 155.88 135.206 157.312 133.759L157.448 133.615L201.983 84.8628C203.366 83.3496 203.652 81.1407 202.719 79.3315L202.625 79.1571L170.02 21.7359Z" stroke="url(#paint73_linear_593_13308)" stroke-width="0.791958"/>
<path opacity="0.757576" d="M169.822 21.6414C168.779 19.877 166.751 18.9571 164.748 19.3207L164.554 19.3603L100.26 33.7181C98.2601 34.1649 96.7592 35.8101 96.4858 37.8272L96.4634 38.024L90.2499 103.608C90.0504 105.714 91.2308 107.709 93.1724 108.55L153.626 134.725C155.507 135.539 157.689 135.091 159.096 133.619L159.229 133.474L202.804 84.0669C204.16 82.5298 204.408 80.3163 203.443 78.5236L203.345 78.3514L169.822 21.6414Z" stroke="url(#paint74_linear_593_13308)" stroke-width="0.791958"/>
<path opacity="0.767677" d="M169.622 21.5648C168.549 19.8192 166.505 18.9353 164.509 19.3334L164.315 19.376L100.433 34.8178C98.4406 35.2995 96.9686 36.9704 96.7306 38.9922L96.7107 39.1889L91.6561 104.716C91.4933 106.825 92.7072 108.8 94.6631 109.607L155.422 134.664C157.316 135.445 159.489 134.958 160.87 133.463L161.002 133.314L203.608 83.2736C204.937 81.713 205.145 79.4952 204.149 77.7196L204.049 77.5495L169.622 21.5648Z" stroke="url(#paint75_linear_593_13308)" stroke-width="0.791958"/>
<path opacity="0.777778" d="M169.418 21.5076C168.314 19.7808 166.254 18.9325 164.265 19.3655L164.073 19.4117L100.62 35.9263C98.6359 36.4426 97.1922 38.1394 96.9896 40.1652L96.9744 40.3617L93.0731 105.813C92.9473 107.925 94.1956 109.877 96.1653 110.65L157.207 134.586C159.115 135.334 161.28 134.81 162.634 133.29L162.763 133.14L204.39 82.4821C205.691 80.8985 205.862 78.6777 204.835 76.9198L204.732 76.7512L169.418 21.5076Z" stroke="url(#paint76_linear_593_13308)" stroke-width="0.791958"/>
<path opacity="0.787879" d="M169.211 21.4682C168.077 19.7609 166.003 18.9486 164.022 19.4163L163.83 19.466L100.824 37.0439C98.8502 37.5948 97.4373 39.3162 97.2699 41.3449L97.2578 41.5425L94.5054 106.896C94.4163 109.01 95.6985 110.941 97.6812 111.679L158.986 134.492C160.907 135.207 163.063 134.645 164.39 133.102L164.516 132.949L205.157 81.6943C206.431 80.0882 206.562 77.8646 205.504 76.1248L205.398 75.9583L169.211 21.4682Z" stroke="url(#paint77_linear_593_13308)" stroke-width="0.791958"/>
<path opacity="0.79798" d="M169.001 21.4467C167.837 19.7594 165.749 18.9834 163.776 19.4857L163.586 19.5386L101.045 38.1688C99.0807 38.754 97.698 40.5005 97.5662 42.5321L97.5566 42.7296L95.95 107.966C95.8979 110.081 97.2137 111.989 99.2091 112.692L160.757 134.38C162.69 135.061 164.835 134.462 166.136 132.896L166.258 132.742L205.904 80.9088C207.149 79.2808 207.242 77.0554 206.154 75.3344L206.046 75.1688L169.001 21.4467Z" stroke="url(#paint78_linear_593_13308)" stroke-width="0.791958"/>
<path opacity="0.808081" d="M168.788 21.4442C167.595 19.7774 165.494 19.0379 163.53 19.5746L163.34 19.6309L101.283 39.3033C99.3289 39.9226 97.9763 41.6921 97.8797 43.7254L97.8745 43.9234L97.4069 109.023C97.3917 111.139 98.7412 113.024 100.749 113.692L162.518 134.254C164.462 134.901 166.596 134.264 167.869 132.676L167.991 132.519L206.633 80.1265C207.85 78.4771 207.904 76.2504 206.787 74.5486L206.674 74.3856L168.788 21.4442Z" stroke="url(#paint79_linear_593_13308)" stroke-width="0.791958"/>
<path opacity="0.818182" d="M168.574 21.4612C167.352 19.8155 165.238 19.1128 163.284 19.6837L163.096 19.7433L101.538 40.4468C99.5953 41.1002 98.2738 42.8928 98.2128 44.9276L98.2111 45.1256L98.8781 110.068C98.8999 112.184 100.282 114.045 102.3 114.678L164.271 134.112C166.227 134.725 168.349 134.051 169.595 132.441L169.712 132.282L207.346 79.3501C208.533 77.6796 208.547 75.4521 207.401 73.7701L207.286 73.6094L168.574 21.4612Z" stroke="url(#paint80_linear_593_13308)" stroke-width="0.791958"/>
<path opacity="0.828283" d="M168.357 21.4946C167.107 19.8705 164.981 19.2047 163.038 19.8097L162.85 19.8726L101.809 41.5945C99.8779 42.2817 98.5884 44.0981 98.5631 46.1339L98.5642 46.3307L100.361 111.097C100.42 113.212 101.833 115.049 103.863 115.647L166.014 133.953C167.98 134.532 170.091 133.821 171.308 132.189L171.423 132.027L208.039 78.5744C209.197 76.8834 209.173 74.6562 207.997 72.9945L207.88 72.8358L168.357 21.4946Z" stroke="url(#paint81_linear_593_13308)" stroke-width="0.791958"/>
<path opacity="0.838384" d="M168.139 21.5458C166.861 19.9438 164.724 19.3154 162.791 19.9539L162.604 20.0201L102.096 42.7497C100.178 43.4704 98.9204 45.3084 98.9304 47.3441L98.9347 47.5418L101.854 112.112C101.95 114.225 103.395 116.037 105.435 116.599L167.747 133.776C169.723 134.321 171.821 133.573 173.009 131.92L173.122 131.758L208.713 77.8033C209.842 76.0922 209.778 73.8657 208.573 72.2247L208.454 72.0681L168.139 21.5458Z" stroke="url(#paint82_linear_593_13308)" stroke-width="0.791958"/>
<path opacity="0.848485" d="M167.919 21.6167C166.613 20.0372 164.465 19.4462 162.544 20.1184L162.358 20.1878L102.401 43.9124C100.495 44.6666 99.2692 46.5268 99.3148 48.5621L99.3235 48.7599L103.36 113.114C103.492 115.225 104.969 117.012 107.018 117.538L169.47 133.586C171.455 134.097 173.54 133.312 174.699 131.639L174.809 131.474L209.369 77.0382C210.468 75.3079 210.366 73.0829 209.133 71.4632L209.011 71.3077L167.919 21.6167Z" stroke="url(#paint83_linear_593_13308)" stroke-width="0.791958"/>
<path opacity="0.858586" d="M167.699 21.7064C166.366 20.1499 164.208 19.5964 162.299 20.3021L162.115 20.3747L102.723 45.0828C100.831 45.8701 99.6388 47.751 99.7198 49.7849L99.7319 49.9825L104.877 114.102C105.046 116.211 106.555 117.971 108.613 118.462L171.184 133.381C173.178 133.857 175.249 133.037 176.379 131.343L176.485 131.177L210.01 76.2777C211.078 74.5285 210.938 72.3056 209.677 70.7077L209.551 70.5551L167.699 21.7064Z" stroke="url(#paint84_linear_593_13308)" stroke-width="0.791958"/>
<path opacity="0.868687" d="M167.478 21.8125C166.118 20.2795 163.951 19.7637 162.054 20.5027L161.871 20.5785L103.063 46.2577C101.184 47.078 100.025 48.9792 100.142 51.0115L100.156 51.2087L106.406 115.074C106.612 117.179 108.15 118.913 110.216 119.368L172.888 133.16C174.889 133.601 176.945 132.744 178.046 131.032L178.149 130.862L210.633 75.5215C211.67 73.7539 211.49 71.5337 210.201 69.958L210.073 69.8078L167.478 21.8125Z" stroke="url(#paint85_linear_593_13308)" stroke-width="0.791958"/>
<path opacity="0.878788" d="M167.258 21.9382C165.871 20.4292 163.695 19.9512 161.811 20.7233L161.63 20.8023L103.42 47.4388C101.556 48.2917 100.429 50.2135 100.582 52.2436L100.601 52.4398L107.946 116.033C108.189 118.135 109.757 119.841 111.831 120.259L174.581 132.925C176.59 133.33 178.631 132.438 179.701 130.706L179.802 130.537L211.238 74.771C212.244 72.9855 212.026 70.7689 210.71 69.216L210.58 69.0681L167.258 21.9382Z" stroke="url(#paint86_linear_593_13308)" stroke-width="0.791958"/>
<path opacity="0.888889" d="M167.037 22.0811C165.624 20.5966 163.441 20.1566 161.571 20.9615L161.391 21.0436L103.794 48.6253C101.946 49.5106 100.853 51.4513 101.041 53.4781L101.063 53.6749L109.496 116.975C109.775 119.073 111.373 120.752 113.454 121.134L176.263 132.675C178.279 133.045 180.304 132.117 181.344 130.366L181.441 130.195L211.826 74.0264C212.801 72.2238 212.545 70.0112 211.202 68.4815L211.067 68.3357L167.037 22.0811Z" stroke="url(#paint87_linear_593_13308)" stroke-width="0.791958"/>
<path opacity="0.89899" d="M166.817 22.2434C165.378 20.784 163.188 20.3825 161.333 21.2195L161.154 21.3048L104.186 49.8174C102.353 50.7348 101.295 52.6949 101.517 54.7185L101.542 54.9146L111.057 117.905C111.373 119.997 113 121.647 115.087 121.993L177.935 132.41C179.957 132.746 181.965 131.783 182.974 130.015L183.068 129.841L212.397 73.2891C213.341 71.4696 213.045 69.2618 211.675 67.7557L211.54 67.6115L166.817 22.2434Z" stroke="url(#paint88_linear_593_13308)" stroke-width="0.791958"/>
<path opacity="0.909091" d="M166.598 22.424C165.134 20.9897 162.936 20.6264 161.095 21.4958L160.918 21.5842L104.594 51.0152C102.778 51.9645 101.753 53.9425 102.011 55.962L102.04 56.1569L112.626 118.819C112.978 120.905 114.635 122.528 116.728 122.837L179.594 132.133C181.621 132.433 183.612 131.434 184.59 129.649L184.682 129.474L212.95 72.557C213.861 70.7214 213.528 68.5191 212.132 67.0372L211.993 66.8962L166.598 22.424Z" stroke="url(#paint89_linear_593_13308)" stroke-width="0.791958"/>
<path opacity="0.919192" d="M166.38 22.6211C164.891 21.2126 162.687 20.8877 160.862 21.7892L160.686 21.8806L105.021 52.2163C103.221 53.1971 102.231 55.192 102.525 57.2065L102.557 57.4018L114.206 119.717C114.595 121.797 116.279 123.389 118.377 123.662L181.242 131.839C183.274 132.104 185.248 131.071 186.195 129.269L186.284 129.093L213.487 71.8314C214.367 69.98 213.994 67.784 212.572 66.3266L212.432 66.1882L166.38 22.6211Z" stroke="url(#paint90_linear_593_13308)" stroke-width="0.791958"/>
<path opacity="0.929293" d="M166.162 22.8372C164.649 21.4548 162.44 21.1684 160.63 22.1016L160.457 22.1961L105.464 53.4214C103.681 54.4336 102.727 56.4463 103.056 58.4555L103.092 58.6492L115.795 120.6C116.221 122.672 117.932 124.236 120.034 124.472L182.878 131.534C184.915 131.763 186.87 130.696 187.785 128.877L187.87 128.699L214.006 71.1126C214.853 69.2461 214.443 67.0569 212.996 65.6247L212.853 65.4887L166.162 22.8372Z" stroke="url(#paint91_linear_593_13308)" stroke-width="0.791958"/>
<path opacity="0.939394" d="M165.946 23.0699C164.409 21.7141 162.195 21.4662 160.403 22.431L160.231 22.5284L105.925 54.6303C104.161 55.6732 103.242 57.7016 103.605 59.7046L103.644 59.8985L117.393 121.467C117.854 123.531 119.592 125.064 121.698 125.264L184.502 131.213C186.543 131.406 188.479 130.306 189.363 128.472L189.444 128.292L214.51 70.4007C215.324 68.5199 214.876 66.3381 213.404 64.9312L213.258 64.7977L165.946 23.0699Z" stroke="url(#paint92_linear_593_13308)" stroke-width="0.791958"/>
<path opacity="0.949495" d="M165.733 23.3218C164.173 21.9931 161.955 21.7838 160.18 22.7797L160.009 22.8802L106.405 55.843C104.659 56.9167 103.774 58.9616 104.173 60.958L104.216 61.1513L119.001 122.318C119.498 124.375 121.263 125.878 123.372 126.041L186.115 130.881C188.159 131.038 190.075 129.904 190.926 128.054L191.006 127.873L214.998 69.6977C215.779 67.8028 215.292 65.6292 213.796 64.2483L213.649 64.1164L165.733 23.3218Z" stroke="url(#paint93_linear_593_13308)" stroke-width="0.791958"/>
<path opacity="0.959596" d="M165.523 23.5916C163.94 22.2906 161.719 22.1203 159.962 23.1466L159.792 23.25L106.901 57.0601C105.174 58.1642 104.326 60.2241 104.76 62.2133L104.806 62.4049L120.617 123.155C121.15 125.203 122.941 126.674 125.053 126.8L187.715 130.535C189.761 130.657 191.658 129.49 192.477 127.626L192.552 127.444L215.469 69.0015C216.217 67.0934 215.693 64.9286 214.174 63.574L214.024 63.4457L165.523 23.5916Z" stroke="url(#paint94_linear_593_13308)" stroke-width="0.791958"/>
<path opacity="0.969697" d="M165.317 23.8787C163.711 22.6053 161.487 22.4737 159.747 23.5308L159.581 23.6371L107.417 58.2797C105.709 59.4136 104.898 61.4873 105.365 63.4685L105.414 63.6602L122.242 123.975C122.81 126.013 124.626 127.454 126.74 127.543L189.304 130.177C191.352 130.264 193.228 129.063 194.014 127.184L194.086 127.001L215.925 68.3139C216.64 66.3929 216.078 64.2377 214.534 62.9098L214.382 62.7842L165.317 23.8787Z" stroke="url(#paint95_linear_593_13308)" stroke-width="0.791958"/>
<path opacity="0.979798" d="M165.111 24.1825C163.483 22.9373 161.257 22.8445 159.536 23.9318L159.372 24.0411L107.948 59.5001C106.261 60.6636 105.485 62.752 105.987 64.7248L106.04 64.9147L123.874 124.779C124.478 126.807 126.319 128.215 128.434 128.267L190.879 129.805C192.927 129.856 194.782 128.623 195.535 126.732L195.605 126.547L216.364 67.6329C217.045 65.6997 216.446 63.5546 214.88 62.2538L214.726 62.1309L165.111 24.1825Z" stroke="url(#paint96_linear_593_13308)" stroke-width="0.791958"/>
<path opacity="0.989899" d="M164.909 24.5043C163.26 23.2877 161.033 23.2337 159.331 24.3509L159.168 24.4631L108.498 60.7242C106.832 61.917 106.092 64.0178 106.628 65.9814L106.685 66.1713L125.513 125.567C126.152 127.583 128.017 128.96 130.133 128.975L192.44 129.422C194.49 129.437 196.323 128.171 197.043 126.267L197.109 126.081L216.788 66.9618C217.436 65.0172 216.799 62.8828 215.211 61.6095L215.053 61.4893L164.909 24.5043Z" stroke="url(#paint97_linear_593_13308)" stroke-width="0.791958"/>
<path d="M164.71 24.8428C163.039 23.6551 160.812 23.64 159.13 24.7868L158.969 24.9018L109.064 61.9486C107.418 63.1704 106.716 65.2845 107.287 67.2387L107.347 67.4275L127.159 126.338C127.833 128.344 129.722 129.686 131.838 129.665L193.988 129.026C196.037 129.005 197.848 127.708 198.535 125.792L198.597 125.604L217.196 66.2989C217.81 64.3432 217.135 62.2204 215.524 60.975L215.366 60.8565L164.71 24.8428Z" stroke="url(#paint98_linear_593_13308)" stroke-width="0.791958"/>
</g>
<defs>
<linearGradient id="paint0_linear_593_13308" x1="78.9582" y1="98.4522" x2="90.0566" y2="13.1323" gradientUnits="userSpaceOnUse">
<stop stop-color="#23A32E"/>
<stop offset="1" stop-color="#68FF74"/>
</linearGradient>
<linearGradient id="paint1_linear_593_13308" x1="80.4924" y1="98.7235" x2="90.0825" y2="13.3789" gradientUnits="userSpaceOnUse">
<stop stop-color="#23A32E"/>
<stop offset="1" stop-color="#68FF74"/>
</linearGradient>
<linearGradient id="paint2_linear_593_13308" x1="82.0257" y1="98.9814" x2="90.1101" y2="13.6388" gradientUnits="userSpaceOnUse">
<stop stop-color="#23A32E"/>
<stop offset="1" stop-color="#68FF74"/>
</linearGradient>
<linearGradient id="paint3_linear_593_13308" x1="83.5577" y1="99.2261" x2="90.1393" y2="13.9119" gradientUnits="userSpaceOnUse">
<stop stop-color="#23A32E"/>
<stop offset="1" stop-color="#68FF74"/>
</linearGradient>
<linearGradient id="paint4_linear_593_13308" x1="85.0868" y1="99.4566" x2="90.1691" y2="14.1972" gradientUnits="userSpaceOnUse">
<stop stop-color="#23A32E"/>
<stop offset="1" stop-color="#68FF74"/>
</linearGradient>
<linearGradient id="paint5_linear_593_13308" x1="86.6157" y1="99.6759" x2="90.2026" y2="14.4977" gradientUnits="userSpaceOnUse">
<stop stop-color="#23A32E"/>
<stop offset="1" stop-color="#68FF74"/>
</linearGradient>
<linearGradient id="paint6_linear_593_13308" x1="88.1413" y1="99.8806" x2="90.2373" y2="14.8098" gradientUnits="userSpaceOnUse">
<stop stop-color="#23A32E"/>
<stop offset="1" stop-color="#68FF74"/>
</linearGradient>
<linearGradient id="paint7_linear_593_13308" x1="89.6665" y1="100.074" x2="90.2763" y2="15.1369" gradientUnits="userSpaceOnUse">
<stop stop-color="#23A32E"/>
<stop offset="1" stop-color="#68FF74"/>
</linearGradient>
<linearGradient id="paint8_linear_593_13308" x1="91.1865" y1="100.255" x2="90.3155" y2="15.4764" gradientUnits="userSpaceOnUse">
<stop stop-color="#23A32E"/>
<stop offset="1" stop-color="#68FF74"/>
</linearGradient>
<linearGradient id="paint9_linear_593_13308" x1="92.7058" y1="100.422" x2="90.3597" y2="15.8293" gradientUnits="userSpaceOnUse">
<stop stop-color="#23A32E"/>
<stop offset="1" stop-color="#68FF74"/>
</linearGradient>
<linearGradient id="paint10_linear_593_13308" x1="94.2224" y1="100.577" x2="90.4074" y2="16.1949" gradientUnits="userSpaceOnUse">
<stop stop-color="#23A32E"/>
<stop offset="1" stop-color="#68FF74"/>
</linearGradient>
<linearGradient id="paint11_linear_593_13308" x1="95.7332" y1="100.72" x2="90.4559" y2="16.5732" gradientUnits="userSpaceOnUse">
<stop stop-color="#23A32E"/>
<stop offset="1" stop-color="#68FF74"/>
</linearGradient>
<linearGradient id="paint12_linear_593_13308" x1="97.2433" y1="100.85" x2="90.5109" y2="16.9651" gradientUnits="userSpaceOnUse">
<stop stop-color="#23A32E"/>
<stop offset="1" stop-color="#68FF74"/>
</linearGradient>
<linearGradient id="paint13_linear_593_13308" x1="98.7476" y1="100.967" x2="90.5674" y2="17.3689" gradientUnits="userSpaceOnUse">
<stop stop-color="#23A32E"/>
<stop offset="1" stop-color="#68FF74"/>
</linearGradient>
<linearGradient id="paint14_linear_593_13308" x1="100.249" y1="101.073" x2="90.6287" y2="17.786" gradientUnits="userSpaceOnUse">
<stop stop-color="#23A32E"/>
<stop offset="1" stop-color="#68FF74"/>
</linearGradient>
<linearGradient id="paint15_linear_593_13308" x1="101.746" y1="101.166" x2="90.6952" y2="18.2158" gradientUnits="userSpaceOnUse">
<stop stop-color="#23A32E"/>
<stop offset="1" stop-color="#68FF74"/>
</linearGradient>
<linearGradient id="paint16_linear_593_13308" x1="103.24" y1="101.248" x2="90.7661" y2="18.6576" gradientUnits="userSpaceOnUse">
<stop stop-color="#23A32E"/>
<stop offset="1" stop-color="#68FF74"/>
</linearGradient>
<linearGradient id="paint17_linear_593_13308" x1="104.729" y1="101.318" x2="90.8414" y2="19.1128" gradientUnits="userSpaceOnUse">
<stop stop-color="#23A32E"/>
<stop offset="1" stop-color="#68FF74"/>
</linearGradient>
<linearGradient id="paint18_linear_593_13308" x1="106.211" y1="101.374" x2="90.9205" y2="19.5788" gradientUnits="userSpaceOnUse">
<stop stop-color="#23A32E"/>
<stop offset="1" stop-color="#68FF74"/>
</linearGradient>
<linearGradient id="paint19_linear_593_13308" x1="107.691" y1="101.421" x2="91.0063" y2="20.0588" gradientUnits="userSpaceOnUse">
<stop stop-color="#23A32E"/>
<stop offset="1" stop-color="#68FF74"/>
</linearGradient>
<linearGradient id="paint20_linear_593_13308" x1="109.164" y1="101.455" x2="91.0966" y2="20.5489" gradientUnits="userSpaceOnUse">
<stop stop-color="#23A32E"/>
<stop offset="1" stop-color="#68FF74"/>
</linearGradient>
<linearGradient id="paint21_linear_593_13308" x1="110.634" y1="101.477" x2="91.1935" y2="21.0517" gradientUnits="userSpaceOnUse">
<stop stop-color="#23A32E"/>
<stop offset="1" stop-color="#68FF74"/>
</linearGradient>
<linearGradient id="paint22_linear_593_13308" x1="112.097" y1="101.489" x2="91.2958" y2="21.567" gradientUnits="userSpaceOnUse">
<stop stop-color="#23A32E"/>
<stop offset="1" stop-color="#68FF74"/>
</linearGradient>
<linearGradient id="paint23_linear_593_13308" x1="113.555" y1="101.489" x2="91.4042" y2="22.0938" gradientUnits="userSpaceOnUse">
<stop stop-color="#23A32E"/>
<stop offset="1" stop-color="#68FF74"/>
</linearGradient>
<linearGradient id="paint24_linear_593_13308" x1="115.006" y1="101.477" x2="91.5177" y2="22.6309" gradientUnits="userSpaceOnUse">
<stop stop-color="#23A32E"/>
<stop offset="1" stop-color="#68FF74"/>
</linearGradient>
<linearGradient id="paint25_linear_593_13308" x1="116.452" y1="101.455" x2="91.6385" y2="23.1801" gradientUnits="userSpaceOnUse">
<stop stop-color="#23A32E"/>
<stop offset="1" stop-color="#68FF74"/>
</linearGradient>
<linearGradient id="paint26_linear_593_13308" x1="117.892" y1="101.422" x2="91.7664" y2="23.7406" gradientUnits="userSpaceOnUse">
<stop stop-color="#23A32E"/>
<stop offset="1" stop-color="#68FF74"/>
</linearGradient>
<linearGradient id="paint27_linear_593_13308" x1="119.324" y1="101.378" x2="91.8998" y2="24.3123" gradientUnits="userSpaceOnUse">
<stop stop-color="#23A32E"/>
<stop offset="1" stop-color="#68FF74"/>
</linearGradient>
<linearGradient id="paint28_linear_593_13308" x1="120.75" y1="101.323" x2="92.0398" y2="24.895" gradientUnits="userSpaceOnUse">
<stop stop-color="#23A32E"/>
<stop offset="1" stop-color="#68FF74"/>
</linearGradient>
<linearGradient id="paint29_linear_593_13308" x1="122.17" y1="101.258" x2="92.188" y2="25.4889" gradientUnits="userSpaceOnUse">
<stop stop-color="#23A32E"/>
<stop offset="1" stop-color="#68FF74"/>
</linearGradient>
<linearGradient id="paint30_linear_593_13308" x1="123.583" y1="101.183" x2="92.3441" y2="26.0935" gradientUnits="userSpaceOnUse">
<stop stop-color="#23A32E"/>
<stop offset="1" stop-color="#68FF74"/>
</linearGradient>
<linearGradient id="paint31_linear_593_13308" x1="124.989" y1="101.097" x2="92.5064" y2="26.7084" gradientUnits="userSpaceOnUse">
<stop stop-color="#23A32E"/>
<stop offset="1" stop-color="#68FF74"/>
</linearGradient>
<linearGradient id="paint32_linear_593_13308" x1="126.387" y1="101.003" x2="92.6766" y2="27.3351" gradientUnits="userSpaceOnUse">
<stop stop-color="#23A32E"/>
<stop offset="1" stop-color="#68FF74"/>
</linearGradient>
<linearGradient id="paint33_linear_593_13308" x1="127.777" y1="100.895" x2="92.8543" y2="27.9682" gradientUnits="userSpaceOnUse">
<stop stop-color="#23A32E"/>
<stop offset="1" stop-color="#68FF74"/>
</linearGradient>
<linearGradient id="paint34_linear_593_13308" x1="129.16" y1="100.78" x2="93.0403" y2="28.6146" gradientUnits="userSpaceOnUse">
<stop stop-color="#23A32E"/>
<stop offset="1" stop-color="#68FF74"/>
</linearGradient>
<linearGradient id="paint35_linear_593_13308" x1="130.537" y1="100.657" x2="93.2352" y2="29.2714" gradientUnits="userSpaceOnUse">
<stop stop-color="#23A32E"/>
<stop offset="1" stop-color="#68FF74"/>
</linearGradient>
<linearGradient id="paint36_linear_593_13308" x1="131.904" y1="100.521" x2="93.4376" y2="29.9352" gradientUnits="userSpaceOnUse">
<stop stop-color="#23A32E"/>
<stop offset="1" stop-color="#68FF74"/>
</linearGradient>
<linearGradient id="paint37_linear_593_13308" x1="133.262" y1="100.379" x2="93.6473" y2="30.6115" gradientUnits="userSpaceOnUse">
<stop stop-color="#23A32E"/>
<stop offset="1" stop-color="#68FF74"/>
</linearGradient>
<linearGradient id="paint38_linear_593_13308" x1="134.614" y1="100.225" x2="93.8675" y2="31.2948" gradientUnits="userSpaceOnUse">
<stop stop-color="#23A32E"/>
<stop offset="1" stop-color="#68FF74"/>
</linearGradient>
<linearGradient id="paint39_linear_593_13308" x1="135.957" y1="100.062" x2="94.0956" y2="31.9877" gradientUnits="userSpaceOnUse">
<stop stop-color="#23A32E"/>
<stop offset="1" stop-color="#68FF74"/>
</linearGradient>
<linearGradient id="paint40_linear_593_13308" x1="137.292" y1="99.8918" x2="94.3334" y2="32.6906" gradientUnits="userSpaceOnUse">
<stop stop-color="#23A32E"/>
<stop offset="1" stop-color="#68FF74"/>
</linearGradient>
<linearGradient id="paint41_linear_593_13308" x1="138.617" y1="99.7137" x2="94.5792" y2="33.4032" gradientUnits="userSpaceOnUse">
<stop stop-color="#23A32E"/>
<stop offset="1" stop-color="#68FF74"/>
</linearGradient>
<linearGradient id="paint42_linear_593_13308" x1="139.933" y1="99.5259" x2="94.8343" y2="34.1233" gradientUnits="userSpaceOnUse">
<stop stop-color="#23A32E"/>
<stop offset="1" stop-color="#68FF74"/>
</linearGradient>
<linearGradient id="paint43_linear_593_13308" x1="141.242" y1="99.3291" x2="95.1" y2="34.8512" gradientUnits="userSpaceOnUse">
<stop stop-color="#23A32E"/>
<stop offset="1" stop-color="#68FF74"/>
</linearGradient>
<linearGradient id="paint44_linear_593_13308" x1="142.54" y1="99.1259" x2="95.3729" y2="35.5892" gradientUnits="userSpaceOnUse">
<stop stop-color="#23A32E"/>
<stop offset="1" stop-color="#68FF74"/>
</linearGradient>
<linearGradient id="paint45_linear_593_13308" x1="143.83" y1="98.9125" x2="95.6574" y2="36.3331" gradientUnits="userSpaceOnUse">
<stop stop-color="#23A32E"/>
<stop offset="1" stop-color="#68FF74"/>
</linearGradient>
<linearGradient id="paint46_linear_593_13308" x1="145.112" y1="98.694" x2="95.9519" y2="37.0875" gradientUnits="userSpaceOnUse">
<stop stop-color="#23A32E"/>
<stop offset="1" stop-color="#68FF74"/>
</linearGradient>
<linearGradient id="paint47_linear_593_13308" x1="146.382" y1="98.4665" x2="96.2545" y2="37.8484" gradientUnits="userSpaceOnUse">
<stop stop-color="#23A32E"/>
<stop offset="1" stop-color="#68FF74"/>
</linearGradient>
<linearGradient id="paint48_linear_593_13308" x1="147.643" y1="98.2308" x2="96.5674" y2="38.6161" gradientUnits="userSpaceOnUse">
<stop stop-color="#23A32E"/>
<stop offset="1" stop-color="#68FF74"/>
</linearGradient>
<linearGradient id="paint49_linear_593_13308" x1="148.895" y1="97.9905" x2="96.891" y2="39.3936" gradientUnits="userSpaceOnUse">
<stop stop-color="#23A32E"/>
<stop offset="1" stop-color="#68FF74"/>
</linearGradient>
<linearGradient id="paint50_linear_593_13308" x1="150.137" y1="97.7413" x2="97.2249" y2="40.1765" gradientUnits="userSpaceOnUse">
<stop stop-color="#23A32E"/>
<stop offset="1" stop-color="#68FF74"/>
</linearGradient>
<linearGradient id="paint51_linear_593_13308" x1="151.369" y1="97.4853" x2="97.5686" y2="40.9664" gradientUnits="userSpaceOnUse">
<stop stop-color="#23A32E"/>
<stop offset="1" stop-color="#68FF74"/>
</linearGradient>
<linearGradient id="paint52_linear_593_13308" x1="152.592" y1="97.2232" x2="97.9231" y2="41.7637" gradientUnits="userSpaceOnUse">
<stop stop-color="#23A32E"/>
<stop offset="1" stop-color="#68FF74"/>
</linearGradient>
<linearGradient id="paint53_linear_593_13308" x1="153.804" y1="96.9547" x2="98.2878" y2="42.5676" gradientUnits="userSpaceOnUse">
<stop stop-color="#23A32E"/>
<stop offset="1" stop-color="#68FF74"/>
</linearGradient>
<linearGradient id="paint54_linear_593_13308" x1="155.006" y1="96.679" x2="98.6635" y2="43.377" gradientUnits="userSpaceOnUse">
<stop stop-color="#23A32E"/>
<stop offset="1" stop-color="#68FF74"/>
</linearGradient>
<linearGradient id="paint55_linear_593_13308" x1="156.198" y1="96.3988" x2="99.049" y2="44.1941" gradientUnits="userSpaceOnUse">
<stop stop-color="#23A32E"/>
<stop offset="1" stop-color="#68FF74"/>
</linearGradient>
<linearGradient id="paint56_linear_593_13308" x1="157.378" y1="96.1103" x2="99.445" y2="45.0148" gradientUnits="userSpaceOnUse">
<stop stop-color="#23A32E"/>
<stop offset="1" stop-color="#68FF74"/>
</linearGradient>
<linearGradient id="paint57_linear_593_13308" x1="158.55" y1="95.8181" x2="99.8538" y2="45.8433" gradientUnits="userSpaceOnUse">
<stop stop-color="#23A32E"/>
<stop offset="1" stop-color="#68FF74"/>
</linearGradient>
<linearGradient id="paint58_linear_593_13308" x1="159.71" y1="95.5216" x2="100.271" y2="46.6784" gradientUnits="userSpaceOnUse">
<stop stop-color="#23A32E"/>
<stop offset="1" stop-color="#68FF74"/>
</linearGradient>
<linearGradient id="paint59_linear_593_13308" x1="160.86" y1="95.2179" x2="100.701" y2="47.5171" gradientUnits="userSpaceOnUse">
<stop stop-color="#23A32E"/>
<stop offset="1" stop-color="#68FF74"/>
</linearGradient>
<linearGradient id="paint60_linear_593_13308" x1="162" y1="94.9092" x2="101.142" y2="48.361" gradientUnits="userSpaceOnUse">
<stop stop-color="#23A32E"/>
<stop offset="1" stop-color="#68FF74"/>
</linearGradient>
<linearGradient id="paint61_linear_593_13308" x1="163.128" y1="94.5963" x2="101.594" y2="49.2105" gradientUnits="userSpaceOnUse">
<stop stop-color="#23A32E"/>
<stop offset="1" stop-color="#68FF74"/>
</linearGradient>
<linearGradient id="paint62_linear_593_13308" x1="164.247" y1="94.2784" x2="102.058" y2="50.0644" gradientUnits="userSpaceOnUse">
<stop stop-color="#23A32E"/>
<stop offset="1" stop-color="#68FF74"/>
</linearGradient>
<linearGradient id="paint63_linear_593_13308" x1="165.354" y1="93.9563" x2="102.532" y2="50.9231" gradientUnits="userSpaceOnUse">
<stop stop-color="#23A32E"/>
<stop offset="1" stop-color="#68FF74"/>
</linearGradient>
<linearGradient id="paint64_linear_593_13308" x1="166.449" y1="93.6302" x2="103.017" y2="51.7863" gradientUnits="userSpaceOnUse">
<stop stop-color="#23A32E"/>
<stop offset="1" stop-color="#68FF74"/>
</linearGradient>
<linearGradient id="paint65_linear_593_13308" x1="167.534" y1="93.2988" x2="103.514" y2="52.6526" gradientUnits="userSpaceOnUse">
<stop stop-color="#23A32E"/>
<stop offset="1" stop-color="#68FF74"/>
</linearGradient>
<linearGradient id="paint66_linear_593_13308" x1="168.608" y1="92.9645" x2="104.022" y2="53.5235" gradientUnits="userSpaceOnUse">
<stop stop-color="#23A32E"/>
<stop offset="1" stop-color="#68FF74"/>
</linearGradient>
<linearGradient id="paint67_linear_593_13308" x1="169.672" y1="92.6269" x2="104.544" y2="54.3986" gradientUnits="userSpaceOnUse">
<stop stop-color="#23A32E"/>
<stop offset="1" stop-color="#68FF74"/>
</linearGradient>
<linearGradient id="paint68_linear_593_13308" x1="170.724" y1="92.2839" x2="105.075" y2="55.2752" gradientUnits="userSpaceOnUse">
<stop stop-color="#23A32E"/>
<stop offset="1" stop-color="#68FF74"/>
</linearGradient>
<linearGradient id="paint69_linear_593_13308" x1="171.765" y1="91.9402" x2="105.618" y2="56.1576" gradientUnits="userSpaceOnUse">
<stop stop-color="#23A32E"/>
<stop offset="1" stop-color="#68FF74"/>
</linearGradient>
<linearGradient id="paint70_linear_593_13308" x1="172.795" y1="91.5927" x2="106.173" y2="57.0422" gradientUnits="userSpaceOnUse">
<stop stop-color="#23A32E"/>
<stop offset="1" stop-color="#68FF74"/>
</linearGradient>
<linearGradient id="paint71_linear_593_13308" x1="173.813" y1="91.2415" x2="106.739" y2="57.9289" gradientUnits="userSpaceOnUse">
<stop stop-color="#23A32E"/>
<stop offset="1" stop-color="#68FF74"/>
</linearGradient>
<linearGradient id="paint72_linear_593_13308" x1="174.821" y1="90.8896" x2="107.317" y2="58.82" gradientUnits="userSpaceOnUse">
<stop stop-color="#23A32E"/>
<stop offset="1" stop-color="#68FF74"/>
</linearGradient>
<linearGradient id="paint73_linear_593_13308" x1="175.818" y1="90.5337" x2="107.907" y2="59.712" gradientUnits="userSpaceOnUse">
<stop stop-color="#23A32E"/>
<stop offset="1" stop-color="#68FF74"/>
</linearGradient>
<linearGradient id="paint74_linear_593_13308" x1="176.802" y1="90.1756" x2="108.508" y2="60.6062" gradientUnits="userSpaceOnUse">
<stop stop-color="#23A32E"/>
<stop offset="1" stop-color="#68FF74"/>
</linearGradient>
<linearGradient id="paint75_linear_593_13308" x1="177.776" y1="89.8152" x2="109.122" y2="61.502" gradientUnits="userSpaceOnUse">
<stop stop-color="#23A32E"/>
<stop offset="1" stop-color="#68FF74"/>
</linearGradient>
<linearGradient id="paint76_linear_593_13308" x1="178.737" y1="89.4537" x2="109.745" y2="62.4004" gradientUnits="userSpaceOnUse">
<stop stop-color="#23A32E"/>
<stop offset="1" stop-color="#68FF74"/>
</linearGradient>
<linearGradient id="paint77_linear_593_13308" x1="179.689" y1="89.0906" x2="110.383" y2="63.3002" gradientUnits="userSpaceOnUse">
<stop stop-color="#23A32E"/>
<stop offset="1" stop-color="#68FF74"/>
</linearGradient>
<linearGradient id="paint78_linear_593_13308" x1="180.629" y1="88.7256" x2="111.031" y2="64.2009" gradientUnits="userSpaceOnUse">
<stop stop-color="#23A32E"/>
<stop offset="1" stop-color="#68FF74"/>
</linearGradient>
<linearGradient id="paint79_linear_593_13308" x1="181.557" y1="88.3601" x2="111.691" y2="65.1033" gradientUnits="userSpaceOnUse">
<stop stop-color="#23A32E"/>
<stop offset="1" stop-color="#68FF74"/>
</linearGradient>
<linearGradient id="paint80_linear_593_13308" x1="182.475" y1="87.9949" x2="112.364" y2="66.008" gradientUnits="userSpaceOnUse">
<stop stop-color="#23A32E"/>
<stop offset="1" stop-color="#68FF74"/>
</linearGradient>
<linearGradient id="paint81_linear_593_13308" x1="183.381" y1="87.627" x2="113.047" y2="66.9114" gradientUnits="userSpaceOnUse">
<stop stop-color="#23A32E"/>
<stop offset="1" stop-color="#68FF74"/>
</linearGradient>
<linearGradient id="paint82_linear_593_13308" x1="184.275" y1="87.2576" x2="113.742" y2="67.8144" gradientUnits="userSpaceOnUse">
<stop stop-color="#23A32E"/>
<stop offset="1" stop-color="#68FF74"/>
</linearGradient>
<linearGradient id="paint83_linear_593_13308" x1="185.158" y1="86.8897" x2="114.448" y2="68.7195" gradientUnits="userSpaceOnUse">
<stop stop-color="#23A32E"/>
<stop offset="1" stop-color="#68FF74"/>
</linearGradient>
<linearGradient id="paint84_linear_593_13308" x1="186.031" y1="86.5221" x2="115.167" y2="69.6251" gradientUnits="userSpaceOnUse">
<stop stop-color="#23A32E"/>
<stop offset="1" stop-color="#68FF74"/>
</linearGradient>
<linearGradient id="paint85_linear_593_13308" x1="186.891" y1="86.1527" x2="115.897" y2="70.5288" gradientUnits="userSpaceOnUse">
<stop stop-color="#23A32E"/>
<stop offset="1" stop-color="#68FF74"/>
</linearGradient>
<linearGradient id="paint86_linear_593_13308" x1="187.742" y1="85.7849" x2="116.639" y2="71.4335" gradientUnits="userSpaceOnUse">
<stop stop-color="#23A32E"/>
<stop offset="1" stop-color="#68FF74"/>
</linearGradient>
<linearGradient id="paint87_linear_593_13308" x1="188.581" y1="85.4167" x2="117.393" y2="72.3367" gradientUnits="userSpaceOnUse">
<stop stop-color="#23A32E"/>
<stop offset="1" stop-color="#68FF74"/>
</linearGradient>
<linearGradient id="paint88_linear_593_13308" x1="189.408" y1="85.0503" x2="118.158" y2="73.2404" gradientUnits="userSpaceOnUse">
<stop stop-color="#23A32E"/>
<stop offset="1" stop-color="#68FF74"/>
</linearGradient>
<linearGradient id="paint89_linear_593_13308" x1="190.224" y1="84.6848" x2="118.934" y2="74.1432" gradientUnits="userSpaceOnUse">
<stop stop-color="#23A32E"/>
<stop offset="1" stop-color="#68FF74"/>
</linearGradient>
<linearGradient id="paint90_linear_593_13308" x1="191.03" y1="84.3191" x2="119.722" y2="75.0435" gradientUnits="userSpaceOnUse">
<stop stop-color="#23A32E"/>
<stop offset="1" stop-color="#68FF74"/>
</linearGradient>
<linearGradient id="paint91_linear_593_13308" x1="191.824" y1="83.9555" x2="120.521" y2="75.9433" gradientUnits="userSpaceOnUse">
<stop stop-color="#23A32E"/>
<stop offset="1" stop-color="#68FF74"/>
</linearGradient>
<linearGradient id="paint92_linear_593_13308" x1="192.607" y1="83.5921" x2="121.331" y2="76.8403" gradientUnits="userSpaceOnUse">
<stop stop-color="#23A32E"/>
<stop offset="1" stop-color="#68FF74"/>
</linearGradient>
<linearGradient id="paint93_linear_593_13308" x1="193.38" y1="83.2317" x2="122.154" y2="77.737" gradientUnits="userSpaceOnUse">
<stop stop-color="#23A32E"/>
<stop offset="1" stop-color="#68FF74"/>
</linearGradient>
<linearGradient id="paint94_linear_593_13308" x1="194.142" y1="82.8733" x2="122.988" y2="78.6318" gradientUnits="userSpaceOnUse">
<stop stop-color="#23A32E"/>
<stop offset="1" stop-color="#68FF74"/>
</linearGradient>
<linearGradient id="paint95_linear_593_13308" x1="194.893" y1="82.5165" x2="123.833" y2="79.524" gradientUnits="userSpaceOnUse">
<stop stop-color="#23A32E"/>
<stop offset="1" stop-color="#68FF74"/>
</linearGradient>
<linearGradient id="paint96_linear_593_13308" x1="195.633" y1="82.161" x2="124.688" y2="80.4131" gradientUnits="userSpaceOnUse">
<stop stop-color="#23A32E"/>
<stop offset="1" stop-color="#68FF74"/>
</linearGradient>
<linearGradient id="paint97_linear_593_13308" x1="196.362" y1="81.8085" x2="125.555" y2="81.3001" gradientUnits="userSpaceOnUse">
<stop stop-color="#23A32E"/>
<stop offset="1" stop-color="#68FF74"/>
</linearGradient>
<linearGradient id="paint98_linear_593_13308" x1="197.08" y1="81.4579" x2="126.432" y2="82.1837" gradientUnits="userSpaceOnUse">
<stop stop-color="#23A32E"/>
<stop offset="1" stop-color="#68FF74"/>
</linearGradient>
</defs>
</svg>
