<svg width="25" height="24" viewBox="0 0 25 24" fill="none" xmlns="http://www.w3.org/2000/svg">
<path opacity="0.5" d="M3.96447 20.5355C5.42893 22 7.78595 22 12.5 22C17.214 22 19.5711 22 21.0355 20.5355C22.5 19.0711 22.5 16.714 22.5 12C22.5 7.28596 22.5 4.92893 21.0355 3.46447C19.5711 2 17.214 2 12.5 2C7.78595 2 5.42893 2 3.96447 3.46447C2.5 4.92893 2.5 7.28596 2.5 12C2.5 16.714 2.5 19.0711 3.96447 20.5355Z" fill="#4ADE80"/>
<path d="M8.92151 14.8281C8.92151 15.2423 9.2573 15.5781 9.67151 15.5781L13.9142 15.5781C14.3284 15.5781 14.6642 15.2423 14.6642 14.8281C14.6642 14.4139 14.3284 14.0781 13.9142 14.0781H11.4822L15.8587 9.7016C16.1516 9.40871 16.1516 8.93383 15.8587 8.64094C15.5658 8.34805 15.0909 8.34805 14.798 8.64094L10.4215 13.0175L10.4215 10.5855C10.4215 10.1713 10.0857 9.83548 9.67151 9.83548C9.2573 9.83548 8.92151 10.1713 8.92151 10.5855L8.92151 14.8281Z" fill="#166534"/>
</svg>
