<svg width="25" height="25" viewBox="0 0 25 25" fill="none" xmlns="http://www.w3.org/2000/svg">
<path d="M18.125 21.8101C18.7666 21.2398 19.7334 21.2398 20.375 21.8101C20.8109 22.1976 21.5 21.8881 21.5 21.3049V4.31513C21.5 3.7319 20.8109 3.42245 20.375 3.80993C19.7334 4.38023 18.7666 4.38023 18.125 3.80993C17.4834 3.23963 16.5166 3.23963 15.875 3.80993C15.2334 4.38023 14.2666 4.38023 13.625 3.80993C12.9834 3.23963 12.0166 3.23963 11.375 3.80993C10.7334 4.38023 9.76659 4.38023 9.125 3.80993C8.48341 3.23963 7.51659 3.23963 6.875 3.80993C6.23341 4.38023 5.26659 4.38023 4.625 3.80993C4.18909 3.42245 3.5 3.7319 3.5 4.31513V21.3049C3.5 21.8881 4.18909 22.1976 4.625 21.8101C5.26659 21.2398 6.23341 21.2398 6.875 21.8101C7.51659 22.3804 8.48341 22.3804 9.125 21.8101C9.76659 21.2398 10.7334 21.2398 11.375 21.8101C12.0166 22.3804 12.9834 22.3804 13.625 21.8101C14.2666 21.2398 15.2334 21.2398 15.875 21.8101C16.5166 22.3804 17.4834 22.3804 18.125 21.8101Z" stroke="#4A8D34" stroke-width="1.5"/>
<path d="M8 16.3101H17" stroke="#4A8D34" stroke-width="1.5" stroke-linecap="round"/>
<path d="M8 12.8101H17" stroke="#4A8D34" stroke-width="1.5" stroke-linecap="round"/>
<path d="M8 9.31006H17" stroke="#4A8D34" stroke-width="1.5" stroke-linecap="round"/>
</svg>
