<svg width="37" height="37" viewBox="0 0 37 37" fill="none" xmlns="http://www.w3.org/2000/svg">
<path d="M3.00702 18.5001C3.00702 12.83 3.00702 9.99489 4.7685 8.23341C6.52999 6.47192 9.36505 6.47192 15.0352 6.47192H21.0493C26.7194 6.47192 29.5545 6.47192 31.316 8.23341C33.0774 9.99489 33.0774 12.83 33.0774 18.5001C33.0774 24.1702 33.0774 27.0053 31.316 28.7668C29.5545 30.5283 26.7194 30.5283 21.0493 30.5283H15.0352C9.36505 30.5283 6.52999 30.5283 4.7685 28.7668C3.00702 27.0053 3.00702 24.1702 3.00702 18.5001Z" stroke="white" stroke-width="2.25528"/>
<path d="M15.0352 24.5142H9.02112" stroke="white" stroke-width="2.25528" stroke-linecap="round"/>
<path d="M21.0493 24.5142H18.794" stroke="white" stroke-width="2.25528" stroke-linecap="round"/>
<path d="M3.00702 15.4929L33.0774 15.4929" stroke="white" stroke-width="2.25528" stroke-linecap="round"/>
</svg>
