<svg width="20" height="20" viewBox="0 0 20 20" fill="none" xmlns="http://www.w3.org/2000/svg">
<path fill-rule="evenodd" clip-rule="evenodd" d="M18.3333 9.99984C18.3333 14.6022 14.6023 18.3332 9.99996 18.3332C5.39759 18.3332 1.66663 14.6022 1.66663 9.99984C1.66663 5.39746 5.39759 1.6665 9.99996 1.6665C14.6023 1.6665 18.3333 5.39746 18.3333 9.99984ZM13.3586 7.47456C13.6026 7.71864 13.6026 8.11437 13.3586 8.35845L9.1919 12.5251C8.94782 12.7692 8.5521 12.7692 8.30802 12.5251L6.64135 10.8584C6.39727 10.6144 6.39727 10.2186 6.64135 9.97456C6.88543 9.73048 7.28116 9.73048 7.52523 9.97456L8.74996 11.1993L10.6123 9.33693L12.4747 7.47456C12.7188 7.23048 13.1145 7.23048 13.3586 7.47456Z" fill="#4A8D34"/>
</svg>
