<svg width="25" height="24" viewBox="0 0 25 24" fill="none" xmlns="http://www.w3.org/2000/svg">
<path d="M2.25 12C2.25 8.22876 2.25 6.34315 3.42157 5.17157C4.59315 4 6.47876 4 10.25 4H14.25C18.0212 4 19.9069 4 21.0784 5.17157C22.25 6.34315 22.25 8.22876 22.25 12C22.25 15.7712 22.25 17.6569 21.0784 18.8284C19.9069 20 18.0212 20 14.25 20H10.25C6.47876 20 4.59315 20 3.42157 18.8284C2.25 17.6569 2.25 15.7712 2.25 12Z" stroke="#64748B" stroke-width="1.5"/>
<path d="M10.25 16H6.25" stroke="#64748B" stroke-width="1.5" stroke-linecap="round"/>
<path d="M14.25 16H12.75" stroke="#64748B" stroke-width="1.5" stroke-linecap="round"/>
<path d="M2.25 10L22.25 10" stroke="#64748B" stroke-width="1.5" stroke-linecap="round"/>
</svg>
