<svg width="12" height="13" viewBox="0 0 12 13" fill="none" xmlns="http://www.w3.org/2000/svg">
<path d="M2.76999 10.2598C2.46499 10.2598 2.17999 10.1548 1.97499 9.95978C1.71499 9.71478 1.58999 9.34478 1.63499 8.94478L1.81999 7.32478C1.85499 7.01978 2.03999 6.61478 2.25499 6.39478L6.35999 2.04978C7.38499 0.96478 8.45499 0.93478 9.53999 1.95978C10.625 2.98478 10.655 4.05478 9.62999 5.13978L5.52499 9.48478C5.31499 9.70978 4.92499 9.91978 4.61999 9.96978L3.00999 10.2448C2.92499 10.2498 2.84999 10.2598 2.76999 10.2598ZM7.96499 1.95478C7.57999 1.95478 7.24499 2.19478 6.90499 2.55478L2.79999 6.90478C2.69999 7.00978 2.58499 7.25978 2.56499 7.40478L2.37999 9.02478C2.35999 9.18978 2.39999 9.32478 2.48999 9.40978C2.57999 9.49478 2.71499 9.52478 2.87999 9.49978L4.48999 9.22478C4.63499 9.19978 4.87499 9.06978 4.97499 8.96478L9.07999 4.61978C9.69999 3.95978 9.92499 3.34978 9.01999 2.49978C8.61999 2.11478 8.27499 1.95478 7.96499 1.95478Z" fill="#4A8D34"/>
<path d="M8.67 5.97492C8.66 5.97492 8.645 5.97492 8.635 5.97492C7.075 5.81992 5.82 4.63492 5.58 3.08492C5.55 2.87992 5.69 2.68992 5.895 2.65492C6.1 2.62492 6.29 2.76492 6.325 2.96992C6.515 4.17992 7.495 5.10992 8.715 5.22992C8.92 5.24992 9.07 5.43492 9.05 5.63992C9.025 5.82992 8.86 5.97492 8.67 5.97492Z" fill="#4A8D34"/>
<path d="M10.5 11.875H1.5C1.295 11.875 1.125 11.705 1.125 11.5C1.125 11.295 1.295 11.125 1.5 11.125H10.5C10.705 11.125 10.875 11.295 10.875 11.5C10.875 11.705 10.705 11.875 10.5 11.875Z" fill="#4A8D34"/>
</svg>
