<svg width="24" height="24" viewBox="0 0 24 24" fill="none" xmlns="http://www.w3.org/2000/svg">
<mask id="mask0_589_7855" style="mask-type:alpha" maskUnits="userSpaceOnUse" x="0" y="0" width="24" height="24">
<rect width="24" height="24" fill="#D9D9D9"/>
</mask>
<g mask="url(#mask0_589_7855)">
<path d="M19 14.0002H21V7.5252C21 7.19186 20.925 6.88353 20.775 6.60019C20.625 6.31686 20.4167 6.08353 20.15 5.9002L15.15 2.3252C14.8 2.0752 14.4167 1.9502 14 1.9502C13.5833 1.9502 13.2 2.0752 12.85 2.3252L7.85 5.9002C7.58333 6.08353 7.375 6.31686 7.225 6.60019C7.075 6.88353 7 7.19186 7 7.5252V9.0002H9V7.5002L14 4.0002L19 7.5002V14.0002ZM15 8.0002C14.8667 8.0002 14.75 7.95019 14.65 7.85019C14.55 7.7502 14.5 7.63353 14.5 7.5002C14.5 7.36686 14.55 7.2502 14.65 7.1502C14.75 7.0502 14.8667 7.0002 15 7.0002C15.1333 7.0002 15.25 7.0502 15.35 7.1502C15.45 7.2502 15.5 7.36686 15.5 7.5002C15.5 7.63353 15.45 7.7502 15.35 7.85019C15.25 7.95019 15.1333 8.0002 15 8.0002ZM13 8.0002C12.8667 8.0002 12.75 7.95019 12.65 7.85019C12.55 7.7502 12.5 7.63353 12.5 7.5002C12.5 7.36686 12.55 7.2502 12.65 7.1502C12.75 7.0502 12.8667 7.0002 13 7.0002C13.1333 7.0002 13.25 7.0502 13.35 7.1502C13.45 7.2502 13.5 7.36686 13.5 7.5002C13.5 7.63353 13.45 7.7502 13.35 7.85019C13.25 7.95019 13.1333 8.0002 13 8.0002ZM15 10.0002C14.8667 10.0002 14.75 9.9502 14.65 9.8502C14.55 9.7502 14.5 9.63353 14.5 9.5002C14.5 9.36686 14.55 9.2502 14.65 9.1502C14.75 9.0502 14.8667 9.0002 15 9.0002C15.1333 9.0002 15.25 9.0502 15.35 9.1502C15.45 9.2502 15.5 9.36686 15.5 9.5002C15.5 9.63353 15.45 9.7502 15.35 9.8502C15.25 9.9502 15.1333 10.0002 15 10.0002ZM13 10.0002C12.8667 10.0002 12.75 9.9502 12.65 9.8502C12.55 9.7502 12.5 9.63353 12.5 9.5002C12.5 9.36686 12.55 9.2502 12.65 9.1502C12.75 9.0502 12.8667 9.0002 13 9.0002C13.1333 9.0002 13.25 9.0502 13.35 9.1502C13.45 9.2502 13.5 9.36686 13.5 9.5002C13.5 9.63353 13.45 9.7502 13.35 9.8502C13.25 9.9502 13.1333 10.0002 13 10.0002ZM13.95 20.4002L19.9 18.5502C19.8167 18.4002 19.696 18.2712 19.538 18.1632C19.3793 18.0545 19.2 18.0002 19 18.0002H13.95C13.5 18.0002 13.1417 17.9835 12.875 17.9502C12.6083 17.9169 12.3333 17.8502 12.05 17.7502L10.625 17.2752C10.3583 17.1919 10.1667 17.0252 10.05 16.7752C9.93333 16.5252 9.91667 16.2669 10 16.0002C10.0833 15.7335 10.246 15.5375 10.488 15.4122C10.7293 15.2875 10.9833 15.2669 11.25 15.3502L12.3 15.7002C12.5833 15.7835 12.9043 15.8502 13.263 15.9002C13.621 15.9502 14.1083 15.9835 14.725 16.0002H15C15 15.8169 14.946 15.6419 14.838 15.4752C14.7293 15.3085 14.6 15.2002 14.45 15.1502L8.6 13.0002H7V18.5002L13.95 20.4002ZM13.425 22.3502L7 20.5502C6.86667 20.9835 6.60433 21.3335 6.213 21.6002C5.821 21.8669 5.41667 22.0002 5 22.0002H3C2.45 22.0002 1.97933 21.8045 1.588 21.4132C1.196 21.0212 1 20.5502 1 20.0002V13.0002C1 12.4502 1.196 11.9792 1.588 11.5872C1.97933 11.1959 2.45 11.0002 3 11.0002H8.6C8.71667 11.0002 8.83333 11.0125 8.95 11.0372C9.06667 11.0625 9.175 11.0919 9.275 11.1252L15.15 13.3002C15.7 13.5002 16.146 13.8502 16.488 14.3502C16.8293 14.8502 17 15.4002 17 16.0002H19C19.8333 16.0002 20.5417 16.2752 21.125 16.8252C21.7083 17.3752 22 18.1002 22 19.0002C22 19.3669 21.904 19.6545 21.712 19.8632C21.5207 20.0712 21.225 20.2419 20.825 20.3752L14.575 22.3252C14.3917 22.3919 14.2 22.4252 14 22.4252C13.8 22.4252 13.6083 22.4002 13.425 22.3502ZM3 20.0002H5V13.0002H3V20.0002Z" fill="#694187"/>
</g>
</svg>
