<svg width="27" height="26" viewBox="0 0 27 26" fill="none" xmlns="http://www.w3.org/2000/svg">
<path d="M2.9375 14.6748C8.9009 14.6611 14.6365 16.9265 18.9775 20.9941L19.3936 21.3936L19.3945 21.3945C19.4501 21.4466 19.4975 21.5065 19.5352 21.5723L19.5693 21.6396C19.6108 21.7325 19.6335 21.8329 19.6357 21.9346C19.6374 22.0109 19.6273 22.087 19.6064 22.1602L19.582 22.2314C19.5446 22.326 19.4891 22.4128 19.418 22.4854C19.3647 22.5397 19.303 22.585 19.2363 22.6211L19.168 22.6543C19.0742 22.6936 18.9727 22.7141 18.8711 22.7139L18.7959 22.71C18.7456 22.7048 18.6958 22.6947 18.6475 22.6797L18.5762 22.6533C18.5058 22.6235 18.44 22.5832 18.3818 22.5342L18.3262 22.4824V22.4814L17.9375 22.1084C14.0088 18.4276 8.85879 16.3253 3.47656 16.2051L2.9375 16.2002C2.78595 16.2002 2.63894 16.1551 2.51465 16.0723L2.39844 15.9766C2.25544 15.8336 2.1748 15.6397 2.1748 15.4375C2.1748 15.286 2.21994 15.1389 2.30273 15.0146L2.39844 14.8984C2.50571 14.7912 2.64148 14.7187 2.78809 14.6895L2.9375 14.6748ZM15.125 2.4873C15.2487 2.4873 15.37 2.51744 15.4785 2.57422L15.582 2.63965L22.082 7.51465C22.153 7.56785 22.2143 7.63325 22.2627 7.70703L22.3066 7.78418C22.3596 7.89006 22.3877 8.00663 22.3877 8.125V11.4775L22.4404 11.4746C22.9789 11.4432 23.5192 11.4248 24.0625 11.4248C24.214 11.4248 24.3611 11.4699 24.4854 11.5527L24.6016 11.6484C24.7446 11.7914 24.8252 11.9853 24.8252 12.1875C24.8252 12.339 24.7801 12.4861 24.6973 12.6104L24.6016 12.7266C24.4943 12.8338 24.3585 12.9063 24.2119 12.9355L24.0625 12.9502C21.1391 12.9446 18.2374 13.4508 15.4883 14.4453L15.3818 14.4834L15.4814 14.5361C16.1193 14.874 16.743 15.2383 17.3525 15.6289L17.3721 15.6416L17.3936 15.6348C19.4237 15.0365 21.5248 14.7152 23.6396 14.6787L24.0625 14.6748C24.214 14.6748 24.3611 14.7199 24.4854 14.8027L24.6016 14.8984C24.7446 15.0414 24.8252 15.2353 24.8252 15.4375C24.8252 15.589 24.7801 15.7361 24.6973 15.8604L24.6016 15.9766C24.4943 16.0838 24.3585 16.1563 24.2119 16.1855L24.0625 16.2002C22.398 16.1991 20.7385 16.3863 19.1162 16.7588L19.0117 16.7832L19.0977 16.8477C19.6544 17.27 20.1954 17.7147 20.7197 18.1816L20.7373 18.1973L20.7607 18.1934C21.7157 18.0369 22.6804 17.9483 23.6475 17.9287L24.0625 17.9248C24.214 17.9248 24.3611 17.9699 24.4854 18.0527L24.6016 18.1484C24.7446 18.2914 24.8252 18.4853 24.8252 18.6875C24.8252 18.8897 24.7446 19.0836 24.6016 19.2266C24.4586 19.3696 24.2647 19.4502 24.0625 19.4502C23.4516 19.4502 22.8478 19.4791 22.2451 19.5371L22.1416 19.5479L22.2139 19.6221C22.6355 20.0615 23.0434 20.5165 23.4385 20.9863L23.8291 21.4609L23.8301 21.4619C23.8799 21.5203 23.921 21.586 23.9512 21.6562L23.9775 21.7275C24.0007 21.8007 24.0123 21.8767 24.0127 21.9531L24.0098 22.0293C24.0025 22.1054 23.9834 22.1797 23.9541 22.25L23.9219 22.3193C23.8854 22.3869 23.8388 22.4484 23.7842 22.502L23.7275 22.5527C23.6678 22.6006 23.6012 22.639 23.5303 22.667L23.458 22.6914C23.3597 22.7191 23.2566 22.7266 23.1553 22.7139C23.0541 22.7011 22.9564 22.6683 22.8682 22.6172C22.8018 22.5786 22.7413 22.5299 22.6895 22.4736L22.6406 22.415L22.6396 22.4141L22.1904 21.8662C20.0566 19.3399 17.4451 17.2594 14.5059 15.7441L13.8711 15.4287C10.6728 13.8924 7.1881 13.0518 3.64648 12.959L2.9375 12.9502C2.78595 12.9502 2.63894 12.9051 2.51465 12.8223L2.39844 12.7266C2.25544 12.5836 2.1748 12.3897 2.1748 12.1875C2.1748 12.036 2.21994 11.8889 2.30273 11.7646L2.39844 11.6484C2.50571 11.5412 2.64148 11.4687 2.78809 11.4395L2.9375 11.4248C4.56955 11.4251 6.19844 11.5737 7.80371 11.8682L7.8623 11.8789V8.125C7.8623 8.03618 7.8781 7.94831 7.9082 7.86523L7.94336 7.78418C7.98301 7.70487 8.03567 7.63305 8.09961 7.57227L8.16797 7.51465L14.668 2.63965C14.7999 2.54088 14.9602 2.4873 15.125 2.4873ZM2.9375 17.9248C6.67502 17.919 10.3358 18.9516 13.5137 20.9004L14.1426 21.3027C14.2688 21.3867 14.3662 21.5057 14.4238 21.6436L14.4678 21.7871C14.4977 21.9359 14.4826 22.0892 14.4258 22.2275L14.3555 22.3594C14.2436 22.5276 14.0691 22.6446 13.8711 22.6846C13.7224 22.7145 13.5689 22.6994 13.4307 22.6426L13.2979 22.5723C10.4207 20.6583 7.0724 19.5839 3.62793 19.4619L2.9375 19.4502C2.78595 19.4502 2.63894 19.4051 2.51465 19.3223L2.39844 19.2266C2.25544 19.0836 2.17481 18.8897 2.1748 18.6875C2.1748 18.536 2.21994 18.3889 2.30273 18.2646L2.39844 18.1484C2.50571 18.0412 2.64148 17.9687 2.78809 17.9395L2.9375 17.9248ZM13.4502 13.5654L13.4805 13.5781L13.4873 13.5811L13.5068 13.5898L13.5264 13.5811C14.5794 13.1289 15.6611 12.7454 16.7637 12.4326L16.7998 12.4219V10.5127H13.4502V13.5654ZM20.8623 8.50586L15.1553 4.22559L15.125 4.20312L15.0947 4.22559L9.3877 8.50586V12.207L9.42578 12.2168C10.2495 12.4195 11.0604 12.6619 11.8584 12.9443L11.9248 12.9678V9.75C11.9248 9.54777 12.0054 9.35393 12.1484 9.21094C12.2914 9.06794 12.4853 8.9873 12.6875 8.9873H17.5625C17.714 8.9873 17.8611 9.03244 17.9854 9.11523L18.1016 9.21094C18.2446 9.35393 18.3252 9.54777 18.3252 9.75V12.04L18.3857 12.0273C19.1885 11.8544 19.9994 11.7194 20.8184 11.6221L20.8623 11.6162V8.50586Z" fill="#64748B" stroke="white" stroke-width="0.1"/>
</svg>
