<svg width="25" height="24" viewBox="0 0 25 24" fill="none" xmlns="http://www.w3.org/2000/svg">
<path d="M10 17.75C9.58582 17.75 9.25003 18.0858 9.25003 18.5C9.25003 18.9142 9.58582 19.25 10 19.25V17.75ZM15 19.25C15.4142 19.25 15.75 18.9142 15.75 18.5C15.75 18.0858 15.4142 17.75 15 17.75V19.25ZM11.75 22.0001C11.7501 22.4143 12.0859 22.75 12.5001 22.75C12.9143 22.75 13.2501 22.4142 13.25 21.9999L11.75 22.0001ZM12.4998 16H11.7498V18.5H12.4998H13.2498V16H12.4998ZM12.4998 18.5V17.75H10V18.5V19.25H12.4998V18.5ZM15 18.5V17.75H12.4998V18.5V19.25H15V18.5ZM12.4998 18.5L11.7498 18.5001L11.75 22.0001L12.5 22L13.25 21.9999L13.2498 18.4999L12.4998 18.5Z" fill="#4A8D34"/>
<path d="M19.5 9C19.5 12.866 16.366 16 12.5 16C8.63401 16 5.5 12.866 5.5 9C5.5 5.13401 8.63401 2 12.5 2C16.366 2 19.5 5.13401 19.5 9Z" stroke="#4A8D34" stroke-width="1.5"/>
</svg>
