<svg width="33" height="33" viewBox="0 0 33 33" fill="none" xmlns="http://www.w3.org/2000/svg">
<path d="M25.2095 20.327C25.2095 25.8964 21.7035 29.4024 16.1341 29.4024C10.5647 29.4024 7.05865 25.8964 7.05865 20.327C7.05865 14.3504 13.5646 6.28212 15.5599 3.94835C15.6309 3.86543 15.719 3.79887 15.8182 3.75323C15.9174 3.70759 16.0252 3.68396 16.1344 3.68396C16.2435 3.68396 16.3514 3.70759 16.4506 3.75323C16.5497 3.79887 16.6378 3.86543 16.7088 3.94835C18.7036 6.28212 25.2095 14.3504 25.2095 20.327Z" stroke="white" stroke-width="2.01676" stroke-miterlimit="10"/>
<path d="M21.6802 20.8311C21.6802 22.0345 21.2021 23.1887 20.3511 24.0397C19.5001 24.8907 18.3459 25.3688 17.1425 25.3688" stroke="white" stroke-width="2.01676" stroke-linecap="round" stroke-linejoin="round"/>
</svg>
