<svg width="25" height="24" viewBox="0 0 25 24" fill="none" xmlns="http://www.w3.org/2000/svg">
<circle cx="10.5" cy="14" r="8" stroke="#4A8D34" stroke-width="1.5"/>
<path d="M22.5 2H23.25C23.25 1.58579 22.9142 1.25 22.5 1.25V2ZM21.75 7C21.75 7.41421 22.0858 7.75 22.5 7.75C22.9142 7.75 23.25 7.41421 23.25 7H21.75ZM17.5 1.25C17.0858 1.25 16.75 1.58579 16.75 2C16.75 2.41421 17.0858 2.75 17.5 2.75V1.25ZM16 8.5L16.5303 9.03033L23.0303 2.53033L22.5 2L21.9697 1.46967L15.4697 7.96967L16 8.5ZM22.5 2H21.75V7H22.5H23.25V2H22.5ZM17.5 2V2.75H22.5V2V1.25H17.5V2Z" fill="#4A8D34"/>
</svg>
