<svg width="21" height="20" viewBox="0 0 21 20" fill="none" xmlns="http://www.w3.org/2000/svg">
<path d="M15.0118 8.67851C15.5 8.19036 15.5 7.40468 15.5 5.83333C15.5 4.26198 15.5 3.47631 15.0118 2.98816M15.0118 8.67851C14.5237 9.16667 13.738 9.16667 12.1667 9.16667H8.83333C7.26199 9.16667 6.47631 9.16667 5.98816 8.67851M15.0118 8.67851C15.0118 8.67851 15.0118 8.67851 15.0118 8.67851ZM15.0118 2.98816C14.5237 2.5 13.738 2.5 12.1667 2.5L8.83333 2.5C7.26198 2.5 6.47631 2.5 5.98816 2.98816M15.0118 2.98816C15.0118 2.98816 15.0118 2.98816 15.0118 2.98816ZM5.98816 2.98816C5.5 3.47631 5.5 4.26199 5.5 5.83333C5.5 7.40468 5.5 8.19036 5.98816 8.67851M5.98816 2.98816C5.98816 2.98816 5.98816 2.98816 5.98816 2.98816ZM5.98816 8.67851C5.98816 8.67851 5.98816 8.67851 5.98816 8.67851Z" stroke="white"/>
<path d="M11.3334 5.83333C11.3334 6.29357 10.9603 6.66667 10.5 6.66667C10.0398 6.66667 9.66669 6.29357 9.66669 5.83333C9.66669 5.3731 10.0398 5 10.5 5C10.9603 5 11.3334 5.3731 11.3334 5.83333Z" fill="#16A34A" stroke="white"/>
<path d="M15.5 5C14.1193 5 13 3.88071 13 2.5" stroke="white" stroke-linecap="round"/>
<path d="M15.5 6.66675C14.1193 6.66675 13 7.78604 13 9.16675" stroke="white" stroke-linecap="round"/>
<path d="M5.5 5C6.88071 5 8 3.88071 8 2.5" stroke="white" stroke-linecap="round"/>
<path d="M5.5 6.66675C6.88071 6.66675 8 7.78604 8 9.16675" stroke="white" stroke-linecap="round"/>
<path d="M4.66669 16.9904H6.54997C7.39235 16.9904 8.2438 17.0782 9.06363 17.2471C10.5138 17.5458 12.0407 17.582 13.5058 17.3449C14.2282 17.2279 14.9384 17.0491 15.5813 16.7389C16.1616 16.4587 16.8725 16.0639 17.35 15.6217C17.8268 15.1801 18.3233 14.4573 18.6758 13.8924C18.978 13.4079 18.8318 12.8136 18.3538 12.4526C17.8228 12.0517 17.0348 12.0517 16.5039 12.4528L14.9979 13.5904C14.4142 14.0313 13.7767 14.4372 13.0172 14.5583C12.9259 14.5729 12.8302 14.5862 12.7303 14.5977M12.7303 14.5977C12.7003 14.6012 12.6698 14.6046 12.639 14.6077M12.7303 14.5977C12.8518 14.5717 12.9725 14.4968 13.0857 14.398C13.6217 13.9302 13.6556 13.1417 13.1905 12.6194C13.0826 12.4981 12.9563 12.3971 12.8159 12.3133C10.4848 10.923 6.85787 11.9819 4.66669 13.5358M12.7303 14.5977C12.6999 14.6043 12.6694 14.6077 12.639 14.6077M12.639 14.6077C12.2029 14.6525 11.6927 14.6641 11.1265 14.6106" stroke="white" stroke-width="1.08333" stroke-linecap="round"/>
<rect x="2.16669" y="11.6667" width="2.5" height="6.66667" rx="1.25" stroke="white" stroke-width="1.08333"/>
</svg>
