<svg width="25" height="26" viewBox="0 0 25 26" fill="none" xmlns="http://www.w3.org/2000/svg">
<path d="M12.9728 3.87402C9.64981 3.87402 6.94922 6.57461 6.94922 9.89764V12.799C6.94922 13.4114 6.6882 14.3451 6.37698 14.8671L5.22245 16.7846C4.50966 17.9693 5.00159 19.2844 6.3067 19.7262C10.6337 21.1718 15.302 21.1718 19.6289 19.7262C20.8437 19.3246 21.3758 17.889 20.7132 16.7846L19.5587 14.8671C19.2575 14.3451 18.9964 13.4114 18.9964 12.799V9.89764C18.9964 6.58465 16.2858 3.87402 12.9728 3.87402Z" stroke="#4A8D34" stroke-width="1.5059" stroke-miterlimit="10" stroke-linecap="round"/>
<path d="M14.8301 4.16535C14.5189 4.075 14.1976 4.00472 13.8663 3.96456C12.9025 3.84409 11.9789 3.91437 11.1155 4.16535C11.4067 3.42244 12.1295 2.90039 12.9728 2.90039C13.8161 2.90039 14.539 3.42244 14.8301 4.16535Z" stroke="#4A8D34" stroke-width="1.5059" stroke-miterlimit="10" stroke-linecap="round" stroke-linejoin="round"/>
<path d="M15.9846 20.0879C15.9846 21.7444 14.6293 23.0997 12.9728 23.0997C12.1496 23.0997 11.3866 22.7584 10.8445 22.2162C10.3023 21.6741 9.961 20.9111 9.961 20.0879" stroke="#4A8D34" stroke-width="1.5059" stroke-miterlimit="10"/>
</svg>
