<svg width="24" height="24" viewBox="0 0 24 24" fill="none" xmlns="http://www.w3.org/2000/svg">
<path d="M10 4V4.75H14V4V3.25H10V4ZM14 20V19.25H10V20V20.75H14V20ZM10 20V19.25C8.09318 19.25 6.73851 19.2484 5.71085 19.1102C4.70476 18.975 4.12511 18.7213 3.7019 18.2981L3.17157 18.8284L2.64124 19.3588C3.38961 20.1071 4.33855 20.4392 5.51098 20.5969C6.66182 20.7516 8.13558 20.75 10 20.75V20ZM2 12H1.25C1.25 13.8644 1.24841 15.3382 1.40313 16.489C1.56076 17.6614 1.89288 18.6104 2.64124 19.3588L3.17157 18.8284L3.7019 18.2981C3.27869 17.8749 3.02502 17.2952 2.88976 16.2892C2.75159 15.2615 2.75 13.9068 2.75 12H2ZM22 12H21.25C21.25 13.9068 21.2484 15.2615 21.1102 16.2892C20.975 17.2952 20.7213 17.8749 20.2981 18.2981L20.8284 18.8284L21.3588 19.3588C22.1071 18.6104 22.4392 17.6614 22.5969 16.489C22.7516 15.3382 22.75 13.8644 22.75 12H22ZM14 20V20.75C15.8644 20.75 17.3382 20.7516 18.489 20.5969C19.6614 20.4392 20.6104 20.1071 21.3588 19.3588L20.8284 18.8284L20.2981 18.2981C19.8749 18.7213 19.2952 18.975 18.2892 19.1102C17.2615 19.2484 15.9068 19.25 14 19.25V20ZM14 4V4.75C15.9068 4.75 17.2615 4.75159 18.2892 4.88976C19.2952 5.02502 19.8749 5.27869 20.2981 5.7019L20.8284 5.17157L21.3588 4.64124C20.6104 3.89288 19.6614 3.56076 18.489 3.40313C17.3382 3.24841 15.8644 3.25 14 3.25V4ZM22 12H22.75C22.75 10.1356 22.7516 8.66182 22.5969 7.51098C22.4392 6.33855 22.1071 5.38961 21.3588 4.64124L20.8284 5.17157L20.2981 5.7019C20.7213 6.12511 20.975 6.70476 21.1102 7.71085C21.2484 8.73851 21.25 10.0932 21.25 12H22ZM10 4V3.25C8.13558 3.25 6.66182 3.24841 5.51098 3.40313C4.33856 3.56076 3.38961 3.89288 2.64124 4.64124L3.17157 5.17157L3.7019 5.7019C4.12511 5.27869 4.70476 5.02502 5.71085 4.88976C6.73851 4.75159 8.09318 4.75 10 4.75V4ZM2 12H2.75C2.75 10.0932 2.75159 8.73851 2.88976 7.71085C3.02502 6.70476 3.27869 6.12511 3.7019 5.7019L3.17157 5.17157L2.64124 4.64124C1.89288 5.38961 1.56076 6.33856 1.40313 7.51098C1.24841 8.66182 1.25 10.1356 1.25 12H2Z" fill="#4A8D34"/>
<path d="M12 10V14M10.2676 11L13.7317 13M13.7314 11L10.2673 13" stroke="#4A8D34" stroke-linecap="round"/>
<path d="M6.73241 10V14M4.99999 11L8.46409 13M8.46386 11L4.99976 13" stroke="#4A8D34" stroke-linecap="round"/>
<path d="M17.2681 10V14M15.5356 11L18.9997 13M18.9995 11L15.5354 13" stroke="#4A8D34" stroke-linecap="round"/>
</svg>
