<svg width="25" height="25" viewBox="0 0 25 25" fill="none" xmlns="http://www.w3.org/2000/svg">
<g clip-path="url(#clip0_580_2439)">
<path d="M13.5 2.81104C16.6143 2.82015 18.2653 2.91858 19.3284 3.98168C20.5 5.15325 20.5 7.03887 20.5 10.8101V14.8101C20.5 18.5813 20.5 20.467 19.3284 21.6385C18.1569 22.8101 16.2712 22.8101 12.5 22.8101C8.72876 22.8101 6.84315 22.8101 5.67157 21.6385C4.5 20.467 4.5 18.5813 4.5 14.8101V11.811" stroke="#4A8D34" stroke-width="1.5" stroke-linecap="round"/>
<path d="M3.23016 4.81006H2.48016H3.23016ZM3.23016 5.61006L2.67621 6.11566C2.81831 6.27135 3.01937 6.36006 3.23016 6.36006C3.44096 6.36006 3.64202 6.27135 3.78412 6.11566L3.23016 5.61006ZM4.51428 5.31566C4.79352 5.00972 4.77187 4.53534 4.46593 4.2561C4.15998 3.97687 3.6856 3.99852 3.40637 4.30446L4.51428 5.31566ZM3.05396 4.30446C2.77472 3.99852 2.30034 3.97687 1.9944 4.2561C1.68846 4.53534 1.66681 5.00972 1.94604 5.31566L3.05396 4.30446ZM10.7698 4.01006L11.3238 3.50446C11.1817 3.34877 10.9806 3.26006 10.7698 3.26006C10.559 3.26006 10.358 3.34877 10.2159 3.50446L10.7698 4.01006ZM9.48572 4.30446C9.20648 4.6104 9.22813 5.08478 9.53407 5.36402C9.84002 5.64325 10.3144 5.6216 10.5936 5.31566L9.48572 4.30446ZM10.946 5.31566C11.2253 5.6216 11.6997 5.64325 12.0056 5.36402C12.3115 5.08478 12.3332 4.6104 12.054 4.30446L10.946 5.31566ZM5.07638 7.11624C4.79935 6.80829 4.32514 6.78323 4.01719 7.06026C3.70925 7.33728 3.68419 7.8115 3.96122 8.11944L5.07638 7.11624ZM9.03968 2.64053C9.29878 2.9637 9.77081 3.01565 10.094 2.75655C10.4172 2.49745 10.4691 2.02543 10.21 1.70225L9.03968 2.64053ZM6.88098 0.810059V0.0600586C4.38747 0.0600586 2.48016 2.25265 2.48016 4.81006H3.23016H3.98016C3.98016 2.94918 5.34191 1.56006 6.88098 1.56006V0.810059ZM3.23016 4.81006H2.48016L2.48016 5.61006H3.23016H3.98016L3.98016 4.81006L3.23016 4.81006ZM3.23016 5.61006L3.78412 6.11566L4.51428 5.31566L3.96033 4.81006L3.40637 4.30446L2.67621 5.10446L3.23016 5.61006ZM3.23016 5.61006L3.78412 5.10446L3.05396 4.30446L2.5 4.81006L1.94604 5.31566L2.67621 6.11566L3.23016 5.61006ZM7.11902 8.81006V9.56006C9.61253 9.56006 11.5198 7.36746 11.5198 4.81006H10.7698H10.0198C10.0198 6.67093 8.65809 8.06006 7.11902 8.06006V8.81006ZM10.7698 4.81006H11.5198V4.01006H10.7698H10.0198V4.81006H10.7698ZM10.7698 4.01006L10.2159 3.50446L9.48572 4.30446L10.0397 4.81006L10.5936 5.31566L11.3238 4.51566L10.7698 4.01006ZM10.7698 4.01006L10.2159 4.51566L10.946 5.31566L11.5 4.81006L12.054 4.30446L11.3238 3.50446L10.7698 4.01006ZM4.5188 7.61784L3.96122 8.11944C4.75148 8.9979 5.8685 9.56006 7.11902 9.56006V8.81006V8.06006C6.33415 8.06006 5.61029 7.70974 5.07638 7.11624L4.5188 7.61784ZM9.62484 2.17139L10.21 1.70225C9.4139 0.709269 8.22551 0.0600586 6.88098 0.0600586V0.810059V1.56006C7.72351 1.56006 8.49759 1.96438 9.03968 2.64053L9.62484 2.17139Z" fill="#4A8D34"/>
<path d="M15.5 19.8101H9.5" stroke="#4A8D34" stroke-width="1.5" stroke-linecap="round"/>
</g>
<defs>
<clipPath id="clip0_580_2439">
<rect width="24" height="24" fill="white" transform="translate(0.5 0.810059)"/>
</clipPath>
</defs>
</svg>
