<svg width="14" height="28" viewBox="0 0 14 28" fill="none" xmlns="http://www.w3.org/2000/svg">
<path d="M6.83233 0.848389C7.94824 0.848296 9.0219 1.27514 9.83314 2.04138C10.6444 2.80762 11.1317 3.8552 11.1953 4.9693L11.202 5.21803L11.2033 15.9095L11.3109 16.0023C12.5638 17.1194 13.3525 18.6656 13.5213 20.3357L13.5468 20.6745L13.5549 21.016C13.5551 22.1236 13.2816 23.2141 12.7587 24.1906C12.2359 25.167 11.4798 25.9991 10.5579 26.613C9.63587 27.2268 8.57651 27.6033 7.47394 27.709C6.37137 27.8147 5.25977 27.6464 4.23795 27.2189C3.21613 26.7915 2.31577 26.1181 1.6169 25.2588C0.918032 24.3995 0.442317 23.3808 0.232048 22.2934C0.0217799 21.2059 0.0834735 20.0833 0.411644 19.0254C0.739814 17.9675 1.32429 17.0071 2.11312 16.2295L2.35513 16.001L2.46134 15.9095L2.46269 5.21803C2.46247 4.14418 2.85768 3.10785 3.57289 2.30683C4.2881 1.50582 5.27323 0.996211 6.34025 0.875279L6.58495 0.855111L6.83233 0.848389ZM6.83233 2.86515C6.24163 2.8652 5.67255 3.08744 5.23814 3.48772C4.80374 3.888 4.53578 4.43704 4.48751 5.02577L4.47945 5.21803V16.9072L4.064 17.2097C3.27024 17.7871 2.67689 18.5982 2.36701 19.5295C2.05712 20.4608 2.04621 21.4658 2.33581 22.4036C2.6254 23.3414 3.201 24.1652 3.98203 24.7597C4.76306 25.3542 5.71043 25.6895 6.69153 25.7189C7.67262 25.7482 8.63833 25.47 9.45347 24.9232C10.2686 24.3765 10.8924 23.5885 11.2375 22.6696C11.5825 21.7508 11.6317 20.747 11.3779 19.7988C11.1242 18.8506 10.5804 18.0055 9.82252 17.3818L9.60067 17.211L9.18791 16.9085L9.18522 5.21803C9.18522 4.59401 8.93733 3.99554 8.49608 3.55429C8.05483 3.11304 7.45636 2.86515 6.83233 2.86515ZM6.83233 8.91543C7.09977 8.91543 7.35626 9.02167 7.54537 9.21078C7.73447 9.39988 7.84071 9.65637 7.84071 9.92381V17.8093C8.60716 18.0503 9.26201 18.5577 9.68672 19.2396C10.1114 19.9216 10.2779 20.7332 10.156 21.5273C10.0342 22.3214 9.63197 23.0457 9.0223 23.5689C8.41263 24.0921 7.63576 24.3798 6.83233 24.3798C6.02891 24.3798 5.25204 24.0921 4.64237 23.5689C4.03269 23.0457 3.63051 22.3214 3.50864 21.5273C3.38676 20.7332 3.55325 19.9216 3.97795 19.2396C4.40266 18.5577 5.05751 18.0503 5.82396 17.8093V9.92381C5.82396 9.65637 5.9302 9.39988 6.1193 9.21078C6.30841 9.02167 6.5649 8.91543 6.83233 8.91543Z" fill="white"/>
</svg>
