<svg width="25" height="21" viewBox="0 0 25 21" fill="none" xmlns="http://www.w3.org/2000/svg">
<path d="M12.1341 0.386353C16.3948 0.386353 18.8109 3.20713 19.1618 6.61142H19.2694C19.9207 6.61036 20.5658 6.73766 21.1679 6.98606C21.77 7.23445 22.3173 7.59907 22.7784 8.05907C23.2395 8.51906 23.6055 9.06542 23.8554 9.66692C24.1052 10.2684 24.2341 10.9133 24.2346 11.5646C24.2339 12.2158 24.1049 12.8605 23.855 13.4618C23.605 14.0632 23.239 14.6094 22.7779 15.0692C22.3168 15.5291 21.7696 15.8936 21.1676 16.1419C20.5656 16.3902 19.9206 16.5175 19.2694 16.5164H18.4869L16.3598 20.0578C16.232 20.2789 16.025 20.4433 15.7807 20.5177C15.5364 20.5921 15.2729 20.571 15.0435 20.4587C14.8141 20.3464 14.6359 20.1512 14.5448 19.9126C14.4538 19.674 14.4566 19.4097 14.5528 19.1731L14.6133 19.0494L16.1582 16.5164H13.2863L11.1593 20.0578C11.0314 20.2789 10.8245 20.4433 10.5801 20.5177C10.3358 20.5921 10.0724 20.571 9.84297 20.4587C9.61358 20.3464 9.43536 20.1512 9.34428 19.9126C9.25321 19.674 9.25606 19.4097 9.35228 19.1731L9.41278 19.0494L10.9576 16.5164H8.08441L5.9574 20.0565C5.8284 20.2753 5.6216 20.4373 5.37832 20.5102C5.13503 20.5831 4.8732 20.5616 4.64513 20.4498C4.41705 20.3381 4.23955 20.1444 4.14808 19.9075C4.05661 19.6705 4.05791 19.4078 4.15173 19.1718L4.21089 19.0481L5.75573 16.5151H4.99877C4.34756 16.5161 3.70251 16.3889 3.1005 16.1405C2.49848 15.8922 1.95129 15.5277 1.49019 15.0679C1.02909 14.608 0.663109 14.0618 0.413167 13.4605C0.163224 12.8591 0.0342139 12.2144 0.0335083 11.5632C0.0343905 10.9122 0.163486 10.2678 0.413424 9.66671C0.663361 9.06561 1.02925 8.51963 1.49019 8.05994C1.95113 7.60024 2.4981 7.23584 3.09988 6.98753C3.70165 6.73922 4.34644 6.61188 4.99743 6.61276H5.10499C5.45994 3.18292 7.87467 0.386353 12.1341 0.386353ZM12.1341 2.40042C9.34959 2.40042 6.92141 4.59735 6.92141 7.63055C6.92141 8.11054 6.49252 8.487 6.00177 8.487H5.07406C3.37864 8.487 2.00321 9.8342 2.00321 11.4947C2.00321 13.1551 3.37864 14.501 5.07406 14.501H19.1954C20.8895 14.501 22.2649 13.1551 22.2649 11.4947C22.2649 9.8342 20.8895 8.487 19.1941 8.487H18.2664C17.7756 8.487 17.3467 8.11054 17.3467 7.63055C17.3467 4.55836 14.9185 2.40042 12.1341 2.40042Z" fill="white"/>
</svg>
