<svg width="37" height="37" viewBox="0 0 37 37" fill="none" xmlns="http://www.w3.org/2000/svg">
<path d="M18.0423 19.6274C13.2761 19.6274 9.39703 15.7483 9.39703 10.9822C9.39703 6.216 13.2761 2.33691 18.0423 2.33691C22.8084 2.33691 26.6875 6.216 26.6875 10.9822C26.6875 15.7483 22.8084 19.6274 18.0423 19.6274ZM18.0423 4.5922C14.524 4.5922 11.6523 7.46392 11.6523 10.9822C11.6523 14.5004 14.524 17.3721 18.0423 17.3721C21.5605 17.3721 24.4322 14.5004 24.4322 10.9822C24.4322 7.46392 21.5605 4.5922 18.0423 4.5922Z" fill="white"/>
<path d="M5.12721 34.6627C4.51077 34.6627 3.99957 34.1515 3.99957 33.5351C3.99957 27.1151 10.2993 21.8828 18.0425 21.8828C19.561 21.8828 21.0495 22.0783 22.4929 22.4843C23.0943 22.6496 23.4401 23.2661 23.2747 23.8675C23.1093 24.4689 22.4929 24.8147 21.8915 24.6493C20.6586 24.3035 19.3656 24.1381 18.0425 24.1381C11.5472 24.1381 6.25485 28.348 6.25485 33.5351C6.25485 34.1515 5.74366 34.6627 5.12721 34.6627Z" fill="white"/>
<path d="M27.0634 34.6628C25.2892 34.6628 23.6052 34.0013 22.2972 32.8135C21.7709 32.3625 21.3049 31.8062 20.944 31.1897C20.2825 30.1072 19.9216 28.8292 19.9216 27.5211C19.9216 25.6417 20.6433 23.8826 21.9363 22.5445C23.2895 21.1462 25.1088 20.3794 27.0634 20.3794C29.1081 20.3794 31.0477 21.2515 32.3708 22.755C33.5435 24.063 34.2051 25.747 34.2051 27.5211C34.2051 28.0925 34.1299 28.6638 33.9796 29.2051C33.8292 29.8816 33.5435 30.5883 33.1526 31.2048C31.9047 33.3398 29.5592 34.6628 27.0634 34.6628ZM27.0634 22.6347C25.7252 22.6347 24.4924 23.1609 23.5602 24.1081C22.6731 25.0252 22.1769 26.2281 22.1769 27.5211C22.1769 28.4082 22.4175 29.2802 22.8836 30.032C23.1241 30.453 23.4399 30.8288 23.8007 31.1446C24.7028 31.9715 25.8605 32.4226 27.0634 32.4226C28.7623 32.4226 30.3711 31.5205 31.2431 30.0621C31.4987 29.6411 31.6942 29.16 31.7994 28.6939C31.9047 28.303 31.9498 27.9271 31.9498 27.5362C31.9498 26.3334 31.4987 25.1757 30.6868 24.2736C29.7847 23.2211 28.4616 22.6347 27.0634 22.6347Z" fill="white"/>
<path d="M29.3183 28.6186H24.8228C24.2063 28.6186 23.6951 28.1074 23.6951 27.4909C23.6951 26.8745 24.2063 26.3633 24.8228 26.3633H29.3183C29.9347 26.3633 30.4459 26.8745 30.4459 27.4909C30.4459 28.1074 29.9347 28.6186 29.3183 28.6186Z" fill="white"/>
<path d="M27.0634 30.9188C26.4469 30.9188 25.9357 30.4076 25.9357 29.7911V25.2956C25.9357 24.6792 26.4469 24.168 27.0634 24.168C27.6798 24.168 28.191 24.6792 28.191 25.2956V29.7911C28.191 30.4226 27.6798 30.9188 27.0634 30.9188Z" fill="white"/>
</svg>
