<svg width="33" height="33" viewBox="0 0 33 33" fill="none" xmlns="http://www.w3.org/2000/svg">
<path d="M13.7901 28.2432C13.9945 28.2465 14.1951 28.1876 14.3653 28.0743C14.5354 27.9611 14.6672 27.7987 14.743 27.6089L18.6162 17.9274L28.2986 14.0542C28.4859 13.9794 28.6465 13.8502 28.7595 13.6832C28.8726 13.5162 28.933 13.3191 28.9329 13.1175L28.9329 13.1013C28.9297 12.8971 28.8645 12.6986 28.7461 12.5323C28.6276 12.3659 28.4614 12.2394 28.2694 12.1696L6.08505 4.10254C5.90457 4.0365 5.70899 4.02341 5.52132 4.06481C5.33366 4.1062 5.16173 4.20037 5.02579 4.3362C4.88985 4.47204 4.79555 4.64389 4.75401 4.83152C4.71246 5.01916 4.7254 5.21475 4.7913 5.39528L12.8583 27.5796C12.9283 27.7717 13.055 27.9379 13.2216 28.0564C13.3881 28.1749 13.5867 28.24 13.7911 28.2432L13.7901 28.2432Z" fill="white"/>
</svg>
